M48
; DRILL file {KiCad (5.1.5)-3} date 4/3/2020 11:20:07 AM
; FORMAT={-:-/ absolute / inch / decimal}
; #@! TF.CreationDate,2020-04-03T11:20:07-04:00
; #@! TF.GenerationSoftware,Kicad,Pcbnew,(5.1.5)-3
; #@! TF.FileFunction,Plated,1,2,PTH
FMAT,2
INCH
T1C0.0157
T2C0.0276
T3C0.0591
%
G90
G05
T1
X1.765Y-1.935
X1.885Y-1.55
X1.9Y-1.9159
X2.065Y-1.545
X2.15Y-1.95
X2.2Y-1.1
X2.2Y-2.2
X2.205Y-1.5
X2.36Y-2.2
X2.63Y-2.35
X2.7Y-1.82
X2.7Y-2.25
X2.75Y-1.85
X2.8Y-2.05
X2.85Y-1.4
X2.95Y-2.35
X3.2Y-2.065
T3
X3.875Y-1.9625
X4.125Y-2.0625
X3.875Y-1.2125
X4.125Y-1.3125
X3.125Y-1.9625
X3.375Y-2.0625
X3.125Y-1.2125
X3.375Y-1.3125
T2
G00X1.6998Y-0.7442
M15
G01X1.6998Y-0.7915
M16
G05
G00X1.6998Y-0.9214
M15
G01X1.6998Y-0.9686
M16
G05
G00X1.9872Y-0.7442
M15
G01X1.9872Y-0.7915
M16
G05
G00X1.9872Y-0.9214
M15
G01X1.9872Y-0.9686
M16
G05
T0
M30
