G04 #@! TF.GenerationSoftware,KiCad,Pcbnew,(5.1.5)-3*
G04 #@! TF.CreationDate,2020-04-03T11:19:55-04:00*
G04 #@! TF.ProjectId,Claw10 PCB,436c6177-3130-4205-9043-422e6b696361,rev?*
G04 #@! TF.SameCoordinates,Original*
G04 #@! TF.FileFunction,Legend,Bot*
G04 #@! TF.FilePolarity,Positive*
%FSLAX46Y46*%
G04 Gerber Fmt 4.6, Leading zero omitted, Abs format (unit mm)*
G04 Created by KiCad (PCBNEW (5.1.5)-3) date 2020-04-03 11:19:55*
%MOMM*%
%LPD*%
G04 APERTURE LIST*
%ADD10C,0.150000*%
%ADD11C,0.120000*%
%ADD12O,1.802000X2.802000*%
%ADD13R,0.602000X2.352000*%
%ADD14R,0.652000X1.602000*%
%ADD15R,1.602000X0.652000*%
%ADD16R,1.502000X1.302000*%
%ADD17R,1.202000X1.902000*%
%ADD18C,0.100000*%
%ADD19C,1.802000*%
%ADD20C,4.102000*%
%ADD21C,2.302000*%
%ADD22R,1.302000X1.002000*%
G04 APERTURE END LIST*
D10*
X87782604Y-65968571D02*
X88115937Y-65968571D01*
X88181413Y-66492380D02*
X88056413Y-65492380D01*
X87580223Y-65492380D01*
X87324270Y-66492380D02*
X87240937Y-65825714D01*
X87199270Y-65492380D02*
X87252842Y-65540000D01*
X87211175Y-65587619D01*
X87157604Y-65540000D01*
X87199270Y-65492380D01*
X87211175Y-65587619D01*
X86848080Y-66492380D02*
X86764747Y-65825714D01*
X86788556Y-66016190D02*
X86729032Y-65920952D01*
X86675461Y-65873333D01*
X86574270Y-65825714D01*
X86479032Y-65825714D01*
X86270699Y-66444761D02*
X86181413Y-66492380D01*
X85990937Y-66492380D01*
X85889747Y-66444761D01*
X85830223Y-66349523D01*
X85824270Y-66301904D01*
X85859985Y-66206666D01*
X85949270Y-66159047D01*
X86092127Y-66159047D01*
X86181413Y-66111428D01*
X86217127Y-66016190D01*
X86211175Y-65968571D01*
X86151651Y-65873333D01*
X86050461Y-65825714D01*
X85907604Y-65825714D01*
X85818318Y-65873333D01*
X85479032Y-65825714D02*
X85098080Y-65825714D01*
X85294508Y-65492380D02*
X85401651Y-66349523D01*
X85365937Y-66444761D01*
X85276651Y-66492380D01*
X85181413Y-66492380D01*
X83502842Y-66397142D02*
X83556413Y-66444761D01*
X83705223Y-66492380D01*
X83800461Y-66492380D01*
X83937366Y-66444761D01*
X84020699Y-66349523D01*
X84056413Y-66254285D01*
X84080223Y-66063809D01*
X84062366Y-65920952D01*
X83990937Y-65730476D01*
X83931413Y-65635238D01*
X83824270Y-65540000D01*
X83675461Y-65492380D01*
X83580223Y-65492380D01*
X83443318Y-65540000D01*
X83401651Y-65587619D01*
X82943318Y-66492380D02*
X83032604Y-66444761D01*
X83068318Y-66349523D01*
X82961175Y-65492380D01*
X82133794Y-66492380D02*
X82068318Y-65968571D01*
X82104032Y-65873333D01*
X82193318Y-65825714D01*
X82383794Y-65825714D01*
X82484985Y-65873333D01*
X82127842Y-66444761D02*
X82229032Y-66492380D01*
X82467127Y-66492380D01*
X82556413Y-66444761D01*
X82592127Y-66349523D01*
X82580223Y-66254285D01*
X82520699Y-66159047D01*
X82419508Y-66111428D01*
X82181413Y-66111428D01*
X82080223Y-66063809D01*
X81669508Y-65825714D02*
X81562366Y-66492380D01*
X81312366Y-66016190D01*
X81181413Y-66492380D01*
X80907604Y-65825714D01*
X80211175Y-65968571D02*
X80074270Y-66016190D01*
X80032604Y-66063809D01*
X79996889Y-66159047D01*
X80014747Y-66301904D01*
X80074270Y-66397142D01*
X80127842Y-66444761D01*
X80229032Y-66492380D01*
X80609985Y-66492380D01*
X80484985Y-65492380D01*
X80151651Y-65492380D01*
X80062366Y-65540000D01*
X80020699Y-65587619D01*
X79984985Y-65682857D01*
X79996889Y-65778095D01*
X80056413Y-65873333D01*
X80109985Y-65920952D01*
X80211175Y-65968571D01*
X80544508Y-65968571D01*
X79467127Y-66492380D02*
X79556413Y-66444761D01*
X79598080Y-66397142D01*
X79633794Y-66301904D01*
X79598080Y-66016190D01*
X79538556Y-65920952D01*
X79484985Y-65873333D01*
X79383794Y-65825714D01*
X79240937Y-65825714D01*
X79151651Y-65873333D01*
X79109985Y-65920952D01*
X79074270Y-66016190D01*
X79109985Y-66301904D01*
X79169508Y-66397142D01*
X79223080Y-66444761D01*
X79324270Y-66492380D01*
X79467127Y-66492380D01*
X78276651Y-66492380D02*
X78211175Y-65968571D01*
X78246889Y-65873333D01*
X78336175Y-65825714D01*
X78526651Y-65825714D01*
X78627842Y-65873333D01*
X78270699Y-66444761D02*
X78371889Y-66492380D01*
X78609985Y-66492380D01*
X78699270Y-66444761D01*
X78734985Y-66349523D01*
X78723080Y-66254285D01*
X78663556Y-66159047D01*
X78562366Y-66111428D01*
X78324270Y-66111428D01*
X78223080Y-66063809D01*
X77800461Y-66492380D02*
X77717127Y-65825714D01*
X77740937Y-66016190D02*
X77681413Y-65920952D01*
X77627842Y-65873333D01*
X77526651Y-65825714D01*
X77431413Y-65825714D01*
X76752842Y-66492380D02*
X76627842Y-65492380D01*
X76746889Y-66444761D02*
X76848080Y-66492380D01*
X77038556Y-66492380D01*
X77127842Y-66444761D01*
X77169508Y-66397142D01*
X77205223Y-66301904D01*
X77169508Y-66016190D01*
X77109985Y-65920952D01*
X77056413Y-65873333D01*
X76955223Y-65825714D01*
X76764747Y-65825714D01*
X76675461Y-65873333D01*
X75449270Y-65968571D02*
X75115937Y-65968571D01*
X75038556Y-66492380D02*
X75514747Y-66492380D01*
X75389747Y-65492380D01*
X74913556Y-65492380D01*
X74621889Y-65825714D02*
X74467127Y-66492380D01*
X74145699Y-65825714D01*
X73419508Y-66492380D02*
X73354032Y-65968571D01*
X73389747Y-65873333D01*
X73479032Y-65825714D01*
X73669508Y-65825714D01*
X73770699Y-65873333D01*
X73413556Y-66444761D02*
X73514747Y-66492380D01*
X73752842Y-66492380D01*
X73842127Y-66444761D01*
X73877842Y-66349523D01*
X73865937Y-66254285D01*
X73806413Y-66159047D01*
X73705223Y-66111428D01*
X73467127Y-66111428D01*
X73365937Y-66063809D01*
X72943318Y-66492380D02*
X72818318Y-65492380D01*
X72514747Y-66492380D02*
X72449270Y-65968571D01*
X72484985Y-65873333D01*
X72574270Y-65825714D01*
X72717127Y-65825714D01*
X72818318Y-65873333D01*
X72871889Y-65920952D01*
X72026651Y-66397142D02*
X71984985Y-66444761D01*
X72038556Y-66492380D01*
X72080223Y-66444761D01*
X72026651Y-66397142D01*
X72038556Y-66492380D01*
X71990937Y-66111428D02*
X71967127Y-65540000D01*
X71913556Y-65492380D01*
X71871889Y-65540000D01*
X71990937Y-66111428D01*
X71913556Y-65492380D01*
D11*
X109220000Y-17780000D02*
G75*
G02X111760000Y-20320000I0J-2540000D01*
G01*
X111760000Y-66040000D02*
G75*
G02X109220000Y-68580000I-2540000J0D01*
G01*
X111760000Y-20320000D02*
X111760000Y-66040000D01*
X40640000Y-17780000D02*
X109220000Y-17780000D01*
X38100000Y-20320000D02*
G75*
G02X40640000Y-17780000I2540000J0D01*
G01*
X40640000Y-68580000D02*
X109220000Y-68580000D01*
X40640000Y-68580000D02*
G75*
G02X38100000Y-66040000I0J2540000D01*
G01*
X38100000Y-20320000D02*
X38100000Y-66040000D01*
D10*
X42975000Y-19503000D02*
X42975000Y-24953000D01*
X50675000Y-19503000D02*
X50675000Y-24953000D01*
X42975000Y-24953000D02*
X50675000Y-24953000D01*
X51594000Y-51590000D02*
X50319000Y-51590000D01*
X61944000Y-52165000D02*
X61269000Y-52165000D01*
X61944000Y-41815000D02*
X61269000Y-41815000D01*
X51594000Y-41815000D02*
X52269000Y-41815000D01*
X51594000Y-52165000D02*
X52269000Y-52165000D01*
X51594000Y-41815000D02*
X51594000Y-42490000D01*
X61944000Y-41815000D02*
X61944000Y-42490000D01*
X61944000Y-52165000D02*
X61944000Y-51490000D01*
X51594000Y-52165000D02*
X51594000Y-51590000D01*
D11*
X60039000Y-33146000D02*
X56039000Y-33146000D01*
X60039000Y-29846000D02*
X60039000Y-33146000D01*
D10*
X71688000Y-43240000D02*
X71688000Y-38040000D01*
X71688000Y-38040000D02*
X66488000Y-38040000D01*
X66488000Y-38040000D02*
X66488000Y-43240000D01*
X66488000Y-43240000D02*
X71688000Y-43240000D01*
X70088000Y-40640000D02*
G75*
G03X70088000Y-40640000I-1000000J0D01*
G01*
D11*
X65584000Y-54995578D02*
X65584000Y-54478422D01*
X67004000Y-54995578D02*
X67004000Y-54478422D01*
X66092000Y-63123578D02*
X66092000Y-62606422D01*
X67512000Y-63123578D02*
X67512000Y-62606422D01*
X46788000Y-32946078D02*
X46788000Y-32428922D01*
X48208000Y-32946078D02*
X48208000Y-32428922D01*
X44756000Y-32897578D02*
X44756000Y-32380422D01*
X46176000Y-32897578D02*
X46176000Y-32380422D01*
X95250000Y-40322500D02*
X95250000Y-54292500D01*
X109220000Y-40322500D02*
X95250000Y-40322500D01*
X109220000Y-54292500D02*
X109220000Y-40322500D01*
X95250000Y-54292500D02*
X109220000Y-54292500D01*
X76200000Y-40322500D02*
X76200000Y-54292500D01*
X90170000Y-40322500D02*
X76200000Y-40322500D01*
X90170000Y-54292500D02*
X90170000Y-40322500D01*
X76200000Y-54292500D02*
X90170000Y-54292500D01*
X95250000Y-21272500D02*
X95250000Y-35242500D01*
X109220000Y-21272500D02*
X95250000Y-21272500D01*
X109220000Y-35242500D02*
X109220000Y-21272500D01*
X95250000Y-35242500D02*
X109220000Y-35242500D01*
X76200000Y-21272500D02*
X76200000Y-35242500D01*
X90170000Y-21272500D02*
X76200000Y-21272500D01*
X90170000Y-35242500D02*
X90170000Y-21272500D01*
X76200000Y-35242500D02*
X90170000Y-35242500D01*
X42397000Y-33365064D02*
X42397000Y-32160936D01*
X44217000Y-33365064D02*
X44217000Y-32160936D01*
X109331250Y-45375000D02*
X109331250Y-49275000D01*
X111331250Y-45375000D02*
X111331250Y-49275000D01*
X109331250Y-45375000D02*
X111331250Y-45375000D01*
X90281250Y-45375000D02*
X90281250Y-49275000D01*
X92281250Y-45375000D02*
X92281250Y-49275000D01*
X90281250Y-45375000D02*
X92281250Y-45375000D01*
X111331250Y-30825000D02*
X111331250Y-26925000D01*
X109331250Y-30825000D02*
X109331250Y-26925000D01*
X111331250Y-30825000D02*
X109331250Y-30825000D01*
X92281250Y-30825000D02*
X92281250Y-26925000D01*
X90281250Y-30825000D02*
X90281250Y-26925000D01*
X92281250Y-30825000D02*
X90281250Y-30825000D01*
X52884000Y-64012578D02*
X52884000Y-63495422D01*
X54304000Y-64012578D02*
X54304000Y-63495422D01*
X44271000Y-46144922D02*
X44271000Y-46662078D01*
X42851000Y-46144922D02*
X42851000Y-46662078D01*
X44884078Y-42239000D02*
X44366922Y-42239000D01*
X44884078Y-40819000D02*
X44366922Y-40819000D01*
X61139000Y-64012578D02*
X61139000Y-63495422D01*
X62559000Y-64012578D02*
X62559000Y-63495422D01*
X53288000Y-31110422D02*
X53288000Y-31627578D01*
X51868000Y-31110422D02*
X51868000Y-31627578D01*
X63829000Y-31285922D02*
X63829000Y-31803078D01*
X62409000Y-31285922D02*
X62409000Y-31803078D01*
X42851000Y-51820578D02*
X42851000Y-51303422D01*
X44271000Y-51820578D02*
X44271000Y-51303422D01*
D10*
X48563095Y-20987380D02*
X48563095Y-21796904D01*
X48515476Y-21892142D01*
X48467857Y-21939761D01*
X48372619Y-21987380D01*
X48182142Y-21987380D01*
X48086904Y-21939761D01*
X48039285Y-21892142D01*
X47991666Y-21796904D01*
X47991666Y-20987380D01*
X47563095Y-21939761D02*
X47420238Y-21987380D01*
X47182142Y-21987380D01*
X47086904Y-21939761D01*
X47039285Y-21892142D01*
X46991666Y-21796904D01*
X46991666Y-21701666D01*
X47039285Y-21606428D01*
X47086904Y-21558809D01*
X47182142Y-21511190D01*
X47372619Y-21463571D01*
X47467857Y-21415952D01*
X47515476Y-21368333D01*
X47563095Y-21273095D01*
X47563095Y-21177857D01*
X47515476Y-21082619D01*
X47467857Y-21035000D01*
X47372619Y-20987380D01*
X47134523Y-20987380D01*
X46991666Y-21035000D01*
X46229761Y-21463571D02*
X46086904Y-21511190D01*
X46039285Y-21558809D01*
X45991666Y-21654047D01*
X45991666Y-21796904D01*
X46039285Y-21892142D01*
X46086904Y-21939761D01*
X46182142Y-21987380D01*
X46563095Y-21987380D01*
X46563095Y-20987380D01*
X46229761Y-20987380D01*
X46134523Y-21035000D01*
X46086904Y-21082619D01*
X46039285Y-21177857D01*
X46039285Y-21273095D01*
X46086904Y-21368333D01*
X46134523Y-21415952D01*
X46229761Y-21463571D01*
X46563095Y-21463571D01*
X45039285Y-21987380D02*
X45610714Y-21987380D01*
X45325000Y-21987380D02*
X45325000Y-20987380D01*
X45420238Y-21130238D01*
X45515476Y-21225476D01*
X45610714Y-21273095D01*
X57530904Y-53892380D02*
X57530904Y-54701904D01*
X57483285Y-54797142D01*
X57435666Y-54844761D01*
X57340428Y-54892380D01*
X57149952Y-54892380D01*
X57054714Y-54844761D01*
X57007095Y-54797142D01*
X56959476Y-54701904D01*
X56959476Y-53892380D01*
X55959476Y-54892380D02*
X56530904Y-54892380D01*
X56245190Y-54892380D02*
X56245190Y-53892380D01*
X56340428Y-54035238D01*
X56435666Y-54130476D01*
X56530904Y-54178095D01*
X58515190Y-29022190D02*
X58515190Y-29498380D01*
X58848523Y-28498380D02*
X58515190Y-29022190D01*
X58181857Y-28498380D01*
X57324714Y-29498380D02*
X57896142Y-29498380D01*
X57610428Y-29498380D02*
X57610428Y-28498380D01*
X57705666Y-28641238D01*
X57800904Y-28736476D01*
X57896142Y-28784095D01*
X65428761Y-39306666D02*
X65476380Y-39449523D01*
X65476380Y-39687619D01*
X65428761Y-39782857D01*
X65381142Y-39830476D01*
X65285904Y-39878095D01*
X65190666Y-39878095D01*
X65095428Y-39830476D01*
X65047809Y-39782857D01*
X65000190Y-39687619D01*
X64952571Y-39497142D01*
X64904952Y-39401904D01*
X64857333Y-39354285D01*
X64762095Y-39306666D01*
X64666857Y-39306666D01*
X64571619Y-39354285D01*
X64524000Y-39401904D01*
X64476380Y-39497142D01*
X64476380Y-39735238D01*
X64524000Y-39878095D01*
X64476380Y-40211428D02*
X65476380Y-40449523D01*
X64762095Y-40640000D01*
X65476380Y-40830476D01*
X64476380Y-41068571D01*
X65476380Y-41973333D02*
X65476380Y-41401904D01*
X65476380Y-41687619D02*
X64476380Y-41687619D01*
X64619238Y-41592380D01*
X64714476Y-41497142D01*
X64762095Y-41401904D01*
X68396380Y-54570333D02*
X67920190Y-54237000D01*
X68396380Y-53998904D02*
X67396380Y-53998904D01*
X67396380Y-54379857D01*
X67444000Y-54475095D01*
X67491619Y-54522714D01*
X67586857Y-54570333D01*
X67729714Y-54570333D01*
X67824952Y-54522714D01*
X67872571Y-54475095D01*
X67920190Y-54379857D01*
X67920190Y-53998904D01*
X67729714Y-55427476D02*
X68396380Y-55427476D01*
X67348761Y-55189380D02*
X68063047Y-54951285D01*
X68063047Y-55570333D01*
X68904380Y-62698333D02*
X68428190Y-62365000D01*
X68904380Y-62126904D02*
X67904380Y-62126904D01*
X67904380Y-62507857D01*
X67952000Y-62603095D01*
X67999619Y-62650714D01*
X68094857Y-62698333D01*
X68237714Y-62698333D01*
X68332952Y-62650714D01*
X68380571Y-62603095D01*
X68428190Y-62507857D01*
X68428190Y-62126904D01*
X67904380Y-63031666D02*
X67904380Y-63650714D01*
X68285333Y-63317380D01*
X68285333Y-63460238D01*
X68332952Y-63555476D01*
X68380571Y-63603095D01*
X68475809Y-63650714D01*
X68713904Y-63650714D01*
X68809142Y-63603095D01*
X68856761Y-63555476D01*
X68904380Y-63460238D01*
X68904380Y-63174523D01*
X68856761Y-63079285D01*
X68809142Y-63031666D01*
X49600380Y-32520833D02*
X49124190Y-32187500D01*
X49600380Y-31949404D02*
X48600380Y-31949404D01*
X48600380Y-32330357D01*
X48648000Y-32425595D01*
X48695619Y-32473214D01*
X48790857Y-32520833D01*
X48933714Y-32520833D01*
X49028952Y-32473214D01*
X49076571Y-32425595D01*
X49124190Y-32330357D01*
X49124190Y-31949404D01*
X48695619Y-32901785D02*
X48648000Y-32949404D01*
X48600380Y-33044642D01*
X48600380Y-33282738D01*
X48648000Y-33377976D01*
X48695619Y-33425595D01*
X48790857Y-33473214D01*
X48886095Y-33473214D01*
X49028952Y-33425595D01*
X49600380Y-32854166D01*
X49600380Y-33473214D01*
X47568380Y-32472333D02*
X47092190Y-32139000D01*
X47568380Y-31900904D02*
X46568380Y-31900904D01*
X46568380Y-32281857D01*
X46616000Y-32377095D01*
X46663619Y-32424714D01*
X46758857Y-32472333D01*
X46901714Y-32472333D01*
X46996952Y-32424714D01*
X47044571Y-32377095D01*
X47092190Y-32281857D01*
X47092190Y-31900904D01*
X47568380Y-33424714D02*
X47568380Y-32853285D01*
X47568380Y-33139000D02*
X46568380Y-33139000D01*
X46711238Y-33043761D01*
X46806476Y-32948523D01*
X46854095Y-32853285D01*
X103520714Y-55633880D02*
X103520714Y-54633880D01*
X103187380Y-55348166D01*
X102854047Y-54633880D01*
X102854047Y-55633880D01*
X102473095Y-54633880D02*
X101806428Y-55633880D01*
X101806428Y-54633880D02*
X102473095Y-55633880D01*
X100996904Y-54967214D02*
X100996904Y-55633880D01*
X101235000Y-54586261D02*
X101473095Y-55300547D01*
X100854047Y-55300547D01*
X84470714Y-55633880D02*
X84470714Y-54633880D01*
X84137380Y-55348166D01*
X83804047Y-54633880D01*
X83804047Y-55633880D01*
X83423095Y-54633880D02*
X82756428Y-55633880D01*
X82756428Y-54633880D02*
X83423095Y-55633880D01*
X82470714Y-54633880D02*
X81851666Y-54633880D01*
X82185000Y-55014833D01*
X82042142Y-55014833D01*
X81946904Y-55062452D01*
X81899285Y-55110071D01*
X81851666Y-55205309D01*
X81851666Y-55443404D01*
X81899285Y-55538642D01*
X81946904Y-55586261D01*
X82042142Y-55633880D01*
X82327857Y-55633880D01*
X82423095Y-55586261D01*
X82470714Y-55538642D01*
X103520714Y-36583880D02*
X103520714Y-35583880D01*
X103187380Y-36298166D01*
X102854047Y-35583880D01*
X102854047Y-36583880D01*
X102473095Y-35583880D02*
X101806428Y-36583880D01*
X101806428Y-35583880D02*
X102473095Y-36583880D01*
X101473095Y-35679119D02*
X101425476Y-35631500D01*
X101330238Y-35583880D01*
X101092142Y-35583880D01*
X100996904Y-35631500D01*
X100949285Y-35679119D01*
X100901666Y-35774357D01*
X100901666Y-35869595D01*
X100949285Y-36012452D01*
X101520714Y-36583880D01*
X100901666Y-36583880D01*
X84470714Y-36583880D02*
X84470714Y-35583880D01*
X84137380Y-36298166D01*
X83804047Y-35583880D01*
X83804047Y-36583880D01*
X83423095Y-35583880D02*
X82756428Y-36583880D01*
X82756428Y-35583880D02*
X83423095Y-36583880D01*
X81851666Y-36583880D02*
X82423095Y-36583880D01*
X82137380Y-36583880D02*
X82137380Y-35583880D01*
X82232619Y-35726738D01*
X82327857Y-35821976D01*
X82423095Y-35869595D01*
X45055571Y-32429666D02*
X45055571Y-32096333D01*
X45579380Y-32096333D02*
X44579380Y-32096333D01*
X44579380Y-32572523D01*
X45579380Y-33477285D02*
X45579380Y-32905857D01*
X45579380Y-33191571D02*
X44579380Y-33191571D01*
X44722238Y-33096333D01*
X44817476Y-33001095D01*
X44865095Y-32905857D01*
X108783630Y-46886904D02*
X107783630Y-46886904D01*
X107783630Y-47125000D01*
X107831250Y-47267857D01*
X107926488Y-47363095D01*
X108021726Y-47410714D01*
X108212202Y-47458333D01*
X108355059Y-47458333D01*
X108545535Y-47410714D01*
X108640773Y-47363095D01*
X108736011Y-47267857D01*
X108783630Y-47125000D01*
X108783630Y-46886904D01*
X108116964Y-48315476D02*
X108783630Y-48315476D01*
X107736011Y-48077380D02*
X108450297Y-47839285D01*
X108450297Y-48458333D01*
X89733630Y-46886904D02*
X88733630Y-46886904D01*
X88733630Y-47125000D01*
X88781250Y-47267857D01*
X88876488Y-47363095D01*
X88971726Y-47410714D01*
X89162202Y-47458333D01*
X89305059Y-47458333D01*
X89495535Y-47410714D01*
X89590773Y-47363095D01*
X89686011Y-47267857D01*
X89733630Y-47125000D01*
X89733630Y-46886904D01*
X88733630Y-47791666D02*
X88733630Y-48410714D01*
X89114583Y-48077380D01*
X89114583Y-48220238D01*
X89162202Y-48315476D01*
X89209821Y-48363095D01*
X89305059Y-48410714D01*
X89543154Y-48410714D01*
X89638392Y-48363095D01*
X89686011Y-48315476D01*
X89733630Y-48220238D01*
X89733630Y-47934523D01*
X89686011Y-47839285D01*
X89638392Y-47791666D01*
X112783630Y-27836904D02*
X111783630Y-27836904D01*
X111783630Y-28075000D01*
X111831250Y-28217857D01*
X111926488Y-28313095D01*
X112021726Y-28360714D01*
X112212202Y-28408333D01*
X112355059Y-28408333D01*
X112545535Y-28360714D01*
X112640773Y-28313095D01*
X112736011Y-28217857D01*
X112783630Y-28075000D01*
X112783630Y-27836904D01*
X111878869Y-28789285D02*
X111831250Y-28836904D01*
X111783630Y-28932142D01*
X111783630Y-29170238D01*
X111831250Y-29265476D01*
X111878869Y-29313095D01*
X111974107Y-29360714D01*
X112069345Y-29360714D01*
X112212202Y-29313095D01*
X112783630Y-28741666D01*
X112783630Y-29360714D01*
X93733630Y-27836904D02*
X92733630Y-27836904D01*
X92733630Y-28075000D01*
X92781250Y-28217857D01*
X92876488Y-28313095D01*
X92971726Y-28360714D01*
X93162202Y-28408333D01*
X93305059Y-28408333D01*
X93495535Y-28360714D01*
X93590773Y-28313095D01*
X93686011Y-28217857D01*
X93733630Y-28075000D01*
X93733630Y-27836904D01*
X93733630Y-29360714D02*
X93733630Y-28789285D01*
X93733630Y-29075000D02*
X92733630Y-29075000D01*
X92876488Y-28979761D01*
X92971726Y-28884523D01*
X93019345Y-28789285D01*
X55601142Y-63587333D02*
X55648761Y-63539714D01*
X55696380Y-63396857D01*
X55696380Y-63301619D01*
X55648761Y-63158761D01*
X55553523Y-63063523D01*
X55458285Y-63015904D01*
X55267809Y-62968285D01*
X55124952Y-62968285D01*
X54934476Y-63015904D01*
X54839238Y-63063523D01*
X54744000Y-63158761D01*
X54696380Y-63301619D01*
X54696380Y-63396857D01*
X54744000Y-63539714D01*
X54791619Y-63587333D01*
X54696380Y-63920666D02*
X54696380Y-64587333D01*
X55696380Y-64158761D01*
X42268142Y-46236833D02*
X42315761Y-46189214D01*
X42363380Y-46046357D01*
X42363380Y-45951119D01*
X42315761Y-45808261D01*
X42220523Y-45713023D01*
X42125285Y-45665404D01*
X41934809Y-45617785D01*
X41791952Y-45617785D01*
X41601476Y-45665404D01*
X41506238Y-45713023D01*
X41411000Y-45808261D01*
X41363380Y-45951119D01*
X41363380Y-46046357D01*
X41411000Y-46189214D01*
X41458619Y-46236833D01*
X41363380Y-47093976D02*
X41363380Y-46903500D01*
X41411000Y-46808261D01*
X41458619Y-46760642D01*
X41601476Y-46665404D01*
X41791952Y-46617785D01*
X42172904Y-46617785D01*
X42268142Y-46665404D01*
X42315761Y-46713023D01*
X42363380Y-46808261D01*
X42363380Y-46998738D01*
X42315761Y-47093976D01*
X42268142Y-47141595D01*
X42172904Y-47189214D01*
X41934809Y-47189214D01*
X41839571Y-47141595D01*
X41791952Y-47093976D01*
X41744333Y-46998738D01*
X41744333Y-46808261D01*
X41791952Y-46713023D01*
X41839571Y-46665404D01*
X41934809Y-46617785D01*
X44792166Y-40236142D02*
X44839785Y-40283761D01*
X44982642Y-40331380D01*
X45077880Y-40331380D01*
X45220738Y-40283761D01*
X45315976Y-40188523D01*
X45363595Y-40093285D01*
X45411214Y-39902809D01*
X45411214Y-39759952D01*
X45363595Y-39569476D01*
X45315976Y-39474238D01*
X45220738Y-39379000D01*
X45077880Y-39331380D01*
X44982642Y-39331380D01*
X44839785Y-39379000D01*
X44792166Y-39426619D01*
X43887404Y-39331380D02*
X44363595Y-39331380D01*
X44411214Y-39807571D01*
X44363595Y-39759952D01*
X44268357Y-39712333D01*
X44030261Y-39712333D01*
X43935023Y-39759952D01*
X43887404Y-39807571D01*
X43839785Y-39902809D01*
X43839785Y-40140904D01*
X43887404Y-40236142D01*
X43935023Y-40283761D01*
X44030261Y-40331380D01*
X44268357Y-40331380D01*
X44363595Y-40283761D01*
X44411214Y-40236142D01*
X63856142Y-63587333D02*
X63903761Y-63539714D01*
X63951380Y-63396857D01*
X63951380Y-63301619D01*
X63903761Y-63158761D01*
X63808523Y-63063523D01*
X63713285Y-63015904D01*
X63522809Y-62968285D01*
X63379952Y-62968285D01*
X63189476Y-63015904D01*
X63094238Y-63063523D01*
X62999000Y-63158761D01*
X62951380Y-63301619D01*
X62951380Y-63396857D01*
X62999000Y-63539714D01*
X63046619Y-63587333D01*
X63284714Y-64444476D02*
X63951380Y-64444476D01*
X62903761Y-64206380D02*
X63618047Y-63968285D01*
X63618047Y-64587333D01*
X51285142Y-31202333D02*
X51332761Y-31154714D01*
X51380380Y-31011857D01*
X51380380Y-30916619D01*
X51332761Y-30773761D01*
X51237523Y-30678523D01*
X51142285Y-30630904D01*
X50951809Y-30583285D01*
X50808952Y-30583285D01*
X50618476Y-30630904D01*
X50523238Y-30678523D01*
X50428000Y-30773761D01*
X50380380Y-30916619D01*
X50380380Y-31011857D01*
X50428000Y-31154714D01*
X50475619Y-31202333D01*
X50380380Y-31535666D02*
X50380380Y-32154714D01*
X50761333Y-31821380D01*
X50761333Y-31964238D01*
X50808952Y-32059476D01*
X50856571Y-32107095D01*
X50951809Y-32154714D01*
X51189904Y-32154714D01*
X51285142Y-32107095D01*
X51332761Y-32059476D01*
X51380380Y-31964238D01*
X51380380Y-31678523D01*
X51332761Y-31583285D01*
X51285142Y-31535666D01*
X61826142Y-31377833D02*
X61873761Y-31330214D01*
X61921380Y-31187357D01*
X61921380Y-31092119D01*
X61873761Y-30949261D01*
X61778523Y-30854023D01*
X61683285Y-30806404D01*
X61492809Y-30758785D01*
X61349952Y-30758785D01*
X61159476Y-30806404D01*
X61064238Y-30854023D01*
X60969000Y-30949261D01*
X60921380Y-31092119D01*
X60921380Y-31187357D01*
X60969000Y-31330214D01*
X61016619Y-31377833D01*
X61016619Y-31758785D02*
X60969000Y-31806404D01*
X60921380Y-31901642D01*
X60921380Y-32139738D01*
X60969000Y-32234976D01*
X61016619Y-32282595D01*
X61111857Y-32330214D01*
X61207095Y-32330214D01*
X61349952Y-32282595D01*
X61921380Y-31711166D01*
X61921380Y-32330214D01*
X45568142Y-51395333D02*
X45615761Y-51347714D01*
X45663380Y-51204857D01*
X45663380Y-51109619D01*
X45615761Y-50966761D01*
X45520523Y-50871523D01*
X45425285Y-50823904D01*
X45234809Y-50776285D01*
X45091952Y-50776285D01*
X44901476Y-50823904D01*
X44806238Y-50871523D01*
X44711000Y-50966761D01*
X44663380Y-51109619D01*
X44663380Y-51204857D01*
X44711000Y-51347714D01*
X44758619Y-51395333D01*
X45663380Y-52347714D02*
X45663380Y-51776285D01*
X45663380Y-52062000D02*
X44663380Y-52062000D01*
X44806238Y-51966761D01*
X44901476Y-51871523D01*
X44949095Y-51776285D01*
%LPC*%
D12*
X43175000Y-19503000D03*
X50475000Y-19503000D03*
X50475000Y-24003000D03*
X43175000Y-24003000D03*
D13*
X45225000Y-24003000D03*
X46025000Y-24003000D03*
X46825000Y-24003000D03*
X47625000Y-24003000D03*
X48425000Y-24003000D03*
D14*
X52769000Y-52690000D03*
X53569000Y-52690000D03*
X54369000Y-52690000D03*
X55169000Y-52690000D03*
X55969000Y-52690000D03*
X56769000Y-52690000D03*
X57569000Y-52690000D03*
X58369000Y-52690000D03*
X59169000Y-52690000D03*
X59969000Y-52690000D03*
X60769000Y-52690000D03*
D15*
X62469000Y-50990000D03*
X62469000Y-50190000D03*
X62469000Y-49390000D03*
X62469000Y-48590000D03*
X62469000Y-47790000D03*
X62469000Y-46990000D03*
X62469000Y-46190000D03*
X62469000Y-45390000D03*
X62469000Y-44590000D03*
X62469000Y-43790000D03*
X62469000Y-42990000D03*
D14*
X60769000Y-41290000D03*
X59969000Y-41290000D03*
X59169000Y-41290000D03*
X58369000Y-41290000D03*
X57569000Y-41290000D03*
X56769000Y-41290000D03*
X55969000Y-41290000D03*
X55169000Y-41290000D03*
X54369000Y-41290000D03*
X53569000Y-41290000D03*
X52769000Y-41290000D03*
D15*
X51069000Y-42990000D03*
X51069000Y-43790000D03*
X51069000Y-44590000D03*
X51069000Y-45390000D03*
X51069000Y-46190000D03*
X51069000Y-46990000D03*
X51069000Y-47790000D03*
X51069000Y-48590000D03*
X51069000Y-49390000D03*
X51069000Y-50190000D03*
X51069000Y-50990000D03*
D16*
X59139000Y-30646000D03*
X56939000Y-30646000D03*
X56939000Y-32346000D03*
X59139000Y-32346000D03*
D17*
X67238000Y-43740000D03*
X70938000Y-37540000D03*
X70938000Y-43740000D03*
X67238000Y-37540000D03*
D18*
G36*
X66802141Y-53262297D02*
G01*
X66828278Y-53266174D01*
X66853909Y-53272594D01*
X66878788Y-53281495D01*
X66902674Y-53292793D01*
X66925337Y-53306377D01*
X66946560Y-53322117D01*
X66966139Y-53339861D01*
X66983883Y-53359440D01*
X66999623Y-53380663D01*
X67013207Y-53403326D01*
X67024505Y-53427212D01*
X67033406Y-53452091D01*
X67039826Y-53477722D01*
X67043703Y-53503859D01*
X67045000Y-53530250D01*
X67045000Y-54068750D01*
X67043703Y-54095141D01*
X67039826Y-54121278D01*
X67033406Y-54146909D01*
X67024505Y-54171788D01*
X67013207Y-54195674D01*
X66999623Y-54218337D01*
X66983883Y-54239560D01*
X66966139Y-54259139D01*
X66946560Y-54276883D01*
X66925337Y-54292623D01*
X66902674Y-54306207D01*
X66878788Y-54317505D01*
X66853909Y-54326406D01*
X66828278Y-54332826D01*
X66802141Y-54336703D01*
X66775750Y-54338000D01*
X65812250Y-54338000D01*
X65785859Y-54336703D01*
X65759722Y-54332826D01*
X65734091Y-54326406D01*
X65709212Y-54317505D01*
X65685326Y-54306207D01*
X65662663Y-54292623D01*
X65641440Y-54276883D01*
X65621861Y-54259139D01*
X65604117Y-54239560D01*
X65588377Y-54218337D01*
X65574793Y-54195674D01*
X65563495Y-54171788D01*
X65554594Y-54146909D01*
X65548174Y-54121278D01*
X65544297Y-54095141D01*
X65543000Y-54068750D01*
X65543000Y-53530250D01*
X65544297Y-53503859D01*
X65548174Y-53477722D01*
X65554594Y-53452091D01*
X65563495Y-53427212D01*
X65574793Y-53403326D01*
X65588377Y-53380663D01*
X65604117Y-53359440D01*
X65621861Y-53339861D01*
X65641440Y-53322117D01*
X65662663Y-53306377D01*
X65685326Y-53292793D01*
X65709212Y-53281495D01*
X65734091Y-53272594D01*
X65759722Y-53266174D01*
X65785859Y-53262297D01*
X65812250Y-53261000D01*
X66775750Y-53261000D01*
X66802141Y-53262297D01*
G37*
G36*
X66802141Y-55137297D02*
G01*
X66828278Y-55141174D01*
X66853909Y-55147594D01*
X66878788Y-55156495D01*
X66902674Y-55167793D01*
X66925337Y-55181377D01*
X66946560Y-55197117D01*
X66966139Y-55214861D01*
X66983883Y-55234440D01*
X66999623Y-55255663D01*
X67013207Y-55278326D01*
X67024505Y-55302212D01*
X67033406Y-55327091D01*
X67039826Y-55352722D01*
X67043703Y-55378859D01*
X67045000Y-55405250D01*
X67045000Y-55943750D01*
X67043703Y-55970141D01*
X67039826Y-55996278D01*
X67033406Y-56021909D01*
X67024505Y-56046788D01*
X67013207Y-56070674D01*
X66999623Y-56093337D01*
X66983883Y-56114560D01*
X66966139Y-56134139D01*
X66946560Y-56151883D01*
X66925337Y-56167623D01*
X66902674Y-56181207D01*
X66878788Y-56192505D01*
X66853909Y-56201406D01*
X66828278Y-56207826D01*
X66802141Y-56211703D01*
X66775750Y-56213000D01*
X65812250Y-56213000D01*
X65785859Y-56211703D01*
X65759722Y-56207826D01*
X65734091Y-56201406D01*
X65709212Y-56192505D01*
X65685326Y-56181207D01*
X65662663Y-56167623D01*
X65641440Y-56151883D01*
X65621861Y-56134139D01*
X65604117Y-56114560D01*
X65588377Y-56093337D01*
X65574793Y-56070674D01*
X65563495Y-56046788D01*
X65554594Y-56021909D01*
X65548174Y-55996278D01*
X65544297Y-55970141D01*
X65543000Y-55943750D01*
X65543000Y-55405250D01*
X65544297Y-55378859D01*
X65548174Y-55352722D01*
X65554594Y-55327091D01*
X65563495Y-55302212D01*
X65574793Y-55278326D01*
X65588377Y-55255663D01*
X65604117Y-55234440D01*
X65621861Y-55214861D01*
X65641440Y-55197117D01*
X65662663Y-55181377D01*
X65685326Y-55167793D01*
X65709212Y-55156495D01*
X65734091Y-55147594D01*
X65759722Y-55141174D01*
X65785859Y-55137297D01*
X65812250Y-55136000D01*
X66775750Y-55136000D01*
X66802141Y-55137297D01*
G37*
G36*
X67310141Y-61390297D02*
G01*
X67336278Y-61394174D01*
X67361909Y-61400594D01*
X67386788Y-61409495D01*
X67410674Y-61420793D01*
X67433337Y-61434377D01*
X67454560Y-61450117D01*
X67474139Y-61467861D01*
X67491883Y-61487440D01*
X67507623Y-61508663D01*
X67521207Y-61531326D01*
X67532505Y-61555212D01*
X67541406Y-61580091D01*
X67547826Y-61605722D01*
X67551703Y-61631859D01*
X67553000Y-61658250D01*
X67553000Y-62196750D01*
X67551703Y-62223141D01*
X67547826Y-62249278D01*
X67541406Y-62274909D01*
X67532505Y-62299788D01*
X67521207Y-62323674D01*
X67507623Y-62346337D01*
X67491883Y-62367560D01*
X67474139Y-62387139D01*
X67454560Y-62404883D01*
X67433337Y-62420623D01*
X67410674Y-62434207D01*
X67386788Y-62445505D01*
X67361909Y-62454406D01*
X67336278Y-62460826D01*
X67310141Y-62464703D01*
X67283750Y-62466000D01*
X66320250Y-62466000D01*
X66293859Y-62464703D01*
X66267722Y-62460826D01*
X66242091Y-62454406D01*
X66217212Y-62445505D01*
X66193326Y-62434207D01*
X66170663Y-62420623D01*
X66149440Y-62404883D01*
X66129861Y-62387139D01*
X66112117Y-62367560D01*
X66096377Y-62346337D01*
X66082793Y-62323674D01*
X66071495Y-62299788D01*
X66062594Y-62274909D01*
X66056174Y-62249278D01*
X66052297Y-62223141D01*
X66051000Y-62196750D01*
X66051000Y-61658250D01*
X66052297Y-61631859D01*
X66056174Y-61605722D01*
X66062594Y-61580091D01*
X66071495Y-61555212D01*
X66082793Y-61531326D01*
X66096377Y-61508663D01*
X66112117Y-61487440D01*
X66129861Y-61467861D01*
X66149440Y-61450117D01*
X66170663Y-61434377D01*
X66193326Y-61420793D01*
X66217212Y-61409495D01*
X66242091Y-61400594D01*
X66267722Y-61394174D01*
X66293859Y-61390297D01*
X66320250Y-61389000D01*
X67283750Y-61389000D01*
X67310141Y-61390297D01*
G37*
G36*
X67310141Y-63265297D02*
G01*
X67336278Y-63269174D01*
X67361909Y-63275594D01*
X67386788Y-63284495D01*
X67410674Y-63295793D01*
X67433337Y-63309377D01*
X67454560Y-63325117D01*
X67474139Y-63342861D01*
X67491883Y-63362440D01*
X67507623Y-63383663D01*
X67521207Y-63406326D01*
X67532505Y-63430212D01*
X67541406Y-63455091D01*
X67547826Y-63480722D01*
X67551703Y-63506859D01*
X67553000Y-63533250D01*
X67553000Y-64071750D01*
X67551703Y-64098141D01*
X67547826Y-64124278D01*
X67541406Y-64149909D01*
X67532505Y-64174788D01*
X67521207Y-64198674D01*
X67507623Y-64221337D01*
X67491883Y-64242560D01*
X67474139Y-64262139D01*
X67454560Y-64279883D01*
X67433337Y-64295623D01*
X67410674Y-64309207D01*
X67386788Y-64320505D01*
X67361909Y-64329406D01*
X67336278Y-64335826D01*
X67310141Y-64339703D01*
X67283750Y-64341000D01*
X66320250Y-64341000D01*
X66293859Y-64339703D01*
X66267722Y-64335826D01*
X66242091Y-64329406D01*
X66217212Y-64320505D01*
X66193326Y-64309207D01*
X66170663Y-64295623D01*
X66149440Y-64279883D01*
X66129861Y-64262139D01*
X66112117Y-64242560D01*
X66096377Y-64221337D01*
X66082793Y-64198674D01*
X66071495Y-64174788D01*
X66062594Y-64149909D01*
X66056174Y-64124278D01*
X66052297Y-64098141D01*
X66051000Y-64071750D01*
X66051000Y-63533250D01*
X66052297Y-63506859D01*
X66056174Y-63480722D01*
X66062594Y-63455091D01*
X66071495Y-63430212D01*
X66082793Y-63406326D01*
X66096377Y-63383663D01*
X66112117Y-63362440D01*
X66129861Y-63342861D01*
X66149440Y-63325117D01*
X66170663Y-63309377D01*
X66193326Y-63295793D01*
X66217212Y-63284495D01*
X66242091Y-63275594D01*
X66267722Y-63269174D01*
X66293859Y-63265297D01*
X66320250Y-63264000D01*
X67283750Y-63264000D01*
X67310141Y-63265297D01*
G37*
G36*
X48006141Y-31212797D02*
G01*
X48032278Y-31216674D01*
X48057909Y-31223094D01*
X48082788Y-31231995D01*
X48106674Y-31243293D01*
X48129337Y-31256877D01*
X48150560Y-31272617D01*
X48170139Y-31290361D01*
X48187883Y-31309940D01*
X48203623Y-31331163D01*
X48217207Y-31353826D01*
X48228505Y-31377712D01*
X48237406Y-31402591D01*
X48243826Y-31428222D01*
X48247703Y-31454359D01*
X48249000Y-31480750D01*
X48249000Y-32019250D01*
X48247703Y-32045641D01*
X48243826Y-32071778D01*
X48237406Y-32097409D01*
X48228505Y-32122288D01*
X48217207Y-32146174D01*
X48203623Y-32168837D01*
X48187883Y-32190060D01*
X48170139Y-32209639D01*
X48150560Y-32227383D01*
X48129337Y-32243123D01*
X48106674Y-32256707D01*
X48082788Y-32268005D01*
X48057909Y-32276906D01*
X48032278Y-32283326D01*
X48006141Y-32287203D01*
X47979750Y-32288500D01*
X47016250Y-32288500D01*
X46989859Y-32287203D01*
X46963722Y-32283326D01*
X46938091Y-32276906D01*
X46913212Y-32268005D01*
X46889326Y-32256707D01*
X46866663Y-32243123D01*
X46845440Y-32227383D01*
X46825861Y-32209639D01*
X46808117Y-32190060D01*
X46792377Y-32168837D01*
X46778793Y-32146174D01*
X46767495Y-32122288D01*
X46758594Y-32097409D01*
X46752174Y-32071778D01*
X46748297Y-32045641D01*
X46747000Y-32019250D01*
X46747000Y-31480750D01*
X46748297Y-31454359D01*
X46752174Y-31428222D01*
X46758594Y-31402591D01*
X46767495Y-31377712D01*
X46778793Y-31353826D01*
X46792377Y-31331163D01*
X46808117Y-31309940D01*
X46825861Y-31290361D01*
X46845440Y-31272617D01*
X46866663Y-31256877D01*
X46889326Y-31243293D01*
X46913212Y-31231995D01*
X46938091Y-31223094D01*
X46963722Y-31216674D01*
X46989859Y-31212797D01*
X47016250Y-31211500D01*
X47979750Y-31211500D01*
X48006141Y-31212797D01*
G37*
G36*
X48006141Y-33087797D02*
G01*
X48032278Y-33091674D01*
X48057909Y-33098094D01*
X48082788Y-33106995D01*
X48106674Y-33118293D01*
X48129337Y-33131877D01*
X48150560Y-33147617D01*
X48170139Y-33165361D01*
X48187883Y-33184940D01*
X48203623Y-33206163D01*
X48217207Y-33228826D01*
X48228505Y-33252712D01*
X48237406Y-33277591D01*
X48243826Y-33303222D01*
X48247703Y-33329359D01*
X48249000Y-33355750D01*
X48249000Y-33894250D01*
X48247703Y-33920641D01*
X48243826Y-33946778D01*
X48237406Y-33972409D01*
X48228505Y-33997288D01*
X48217207Y-34021174D01*
X48203623Y-34043837D01*
X48187883Y-34065060D01*
X48170139Y-34084639D01*
X48150560Y-34102383D01*
X48129337Y-34118123D01*
X48106674Y-34131707D01*
X48082788Y-34143005D01*
X48057909Y-34151906D01*
X48032278Y-34158326D01*
X48006141Y-34162203D01*
X47979750Y-34163500D01*
X47016250Y-34163500D01*
X46989859Y-34162203D01*
X46963722Y-34158326D01*
X46938091Y-34151906D01*
X46913212Y-34143005D01*
X46889326Y-34131707D01*
X46866663Y-34118123D01*
X46845440Y-34102383D01*
X46825861Y-34084639D01*
X46808117Y-34065060D01*
X46792377Y-34043837D01*
X46778793Y-34021174D01*
X46767495Y-33997288D01*
X46758594Y-33972409D01*
X46752174Y-33946778D01*
X46748297Y-33920641D01*
X46747000Y-33894250D01*
X46747000Y-33355750D01*
X46748297Y-33329359D01*
X46752174Y-33303222D01*
X46758594Y-33277591D01*
X46767495Y-33252712D01*
X46778793Y-33228826D01*
X46792377Y-33206163D01*
X46808117Y-33184940D01*
X46825861Y-33165361D01*
X46845440Y-33147617D01*
X46866663Y-33131877D01*
X46889326Y-33118293D01*
X46913212Y-33106995D01*
X46938091Y-33098094D01*
X46963722Y-33091674D01*
X46989859Y-33087797D01*
X47016250Y-33086500D01*
X47979750Y-33086500D01*
X48006141Y-33087797D01*
G37*
G36*
X45974141Y-31164297D02*
G01*
X46000278Y-31168174D01*
X46025909Y-31174594D01*
X46050788Y-31183495D01*
X46074674Y-31194793D01*
X46097337Y-31208377D01*
X46118560Y-31224117D01*
X46138139Y-31241861D01*
X46155883Y-31261440D01*
X46171623Y-31282663D01*
X46185207Y-31305326D01*
X46196505Y-31329212D01*
X46205406Y-31354091D01*
X46211826Y-31379722D01*
X46215703Y-31405859D01*
X46217000Y-31432250D01*
X46217000Y-31970750D01*
X46215703Y-31997141D01*
X46211826Y-32023278D01*
X46205406Y-32048909D01*
X46196505Y-32073788D01*
X46185207Y-32097674D01*
X46171623Y-32120337D01*
X46155883Y-32141560D01*
X46138139Y-32161139D01*
X46118560Y-32178883D01*
X46097337Y-32194623D01*
X46074674Y-32208207D01*
X46050788Y-32219505D01*
X46025909Y-32228406D01*
X46000278Y-32234826D01*
X45974141Y-32238703D01*
X45947750Y-32240000D01*
X44984250Y-32240000D01*
X44957859Y-32238703D01*
X44931722Y-32234826D01*
X44906091Y-32228406D01*
X44881212Y-32219505D01*
X44857326Y-32208207D01*
X44834663Y-32194623D01*
X44813440Y-32178883D01*
X44793861Y-32161139D01*
X44776117Y-32141560D01*
X44760377Y-32120337D01*
X44746793Y-32097674D01*
X44735495Y-32073788D01*
X44726594Y-32048909D01*
X44720174Y-32023278D01*
X44716297Y-31997141D01*
X44715000Y-31970750D01*
X44715000Y-31432250D01*
X44716297Y-31405859D01*
X44720174Y-31379722D01*
X44726594Y-31354091D01*
X44735495Y-31329212D01*
X44746793Y-31305326D01*
X44760377Y-31282663D01*
X44776117Y-31261440D01*
X44793861Y-31241861D01*
X44813440Y-31224117D01*
X44834663Y-31208377D01*
X44857326Y-31194793D01*
X44881212Y-31183495D01*
X44906091Y-31174594D01*
X44931722Y-31168174D01*
X44957859Y-31164297D01*
X44984250Y-31163000D01*
X45947750Y-31163000D01*
X45974141Y-31164297D01*
G37*
G36*
X45974141Y-33039297D02*
G01*
X46000278Y-33043174D01*
X46025909Y-33049594D01*
X46050788Y-33058495D01*
X46074674Y-33069793D01*
X46097337Y-33083377D01*
X46118560Y-33099117D01*
X46138139Y-33116861D01*
X46155883Y-33136440D01*
X46171623Y-33157663D01*
X46185207Y-33180326D01*
X46196505Y-33204212D01*
X46205406Y-33229091D01*
X46211826Y-33254722D01*
X46215703Y-33280859D01*
X46217000Y-33307250D01*
X46217000Y-33845750D01*
X46215703Y-33872141D01*
X46211826Y-33898278D01*
X46205406Y-33923909D01*
X46196505Y-33948788D01*
X46185207Y-33972674D01*
X46171623Y-33995337D01*
X46155883Y-34016560D01*
X46138139Y-34036139D01*
X46118560Y-34053883D01*
X46097337Y-34069623D01*
X46074674Y-34083207D01*
X46050788Y-34094505D01*
X46025909Y-34103406D01*
X46000278Y-34109826D01*
X45974141Y-34113703D01*
X45947750Y-34115000D01*
X44984250Y-34115000D01*
X44957859Y-34113703D01*
X44931722Y-34109826D01*
X44906091Y-34103406D01*
X44881212Y-34094505D01*
X44857326Y-34083207D01*
X44834663Y-34069623D01*
X44813440Y-34053883D01*
X44793861Y-34036139D01*
X44776117Y-34016560D01*
X44760377Y-33995337D01*
X44746793Y-33972674D01*
X44735495Y-33948788D01*
X44726594Y-33923909D01*
X44720174Y-33898278D01*
X44716297Y-33872141D01*
X44715000Y-33845750D01*
X44715000Y-33307250D01*
X44716297Y-33280859D01*
X44720174Y-33254722D01*
X44726594Y-33229091D01*
X44735495Y-33204212D01*
X44746793Y-33180326D01*
X44760377Y-33157663D01*
X44776117Y-33136440D01*
X44793861Y-33116861D01*
X44813440Y-33099117D01*
X44834663Y-33083377D01*
X44857326Y-33069793D01*
X44881212Y-33058495D01*
X44906091Y-33049594D01*
X44931722Y-33043174D01*
X44957859Y-33039297D01*
X44984250Y-33038000D01*
X45947750Y-33038000D01*
X45974141Y-33039297D01*
G37*
D19*
X107315000Y-47307500D03*
X97155000Y-47307500D03*
D20*
X102235000Y-47307500D03*
D21*
X98425000Y-49847500D03*
X104775000Y-52387500D03*
D19*
X88265000Y-47307500D03*
X78105000Y-47307500D03*
D20*
X83185000Y-47307500D03*
D21*
X79375000Y-49847500D03*
X85725000Y-52387500D03*
D19*
X107315000Y-28257500D03*
X97155000Y-28257500D03*
D20*
X102235000Y-28257500D03*
D21*
X98425000Y-30797500D03*
X104775000Y-33337500D03*
D19*
X88265000Y-28257500D03*
X78105000Y-28257500D03*
D20*
X83185000Y-28257500D03*
D21*
X79375000Y-30797500D03*
X85725000Y-33337500D03*
D18*
G36*
X43989104Y-30688302D02*
G01*
X44015352Y-30692196D01*
X44041093Y-30698643D01*
X44066078Y-30707583D01*
X44090066Y-30718928D01*
X44112826Y-30732571D01*
X44134140Y-30748378D01*
X44153802Y-30766198D01*
X44171622Y-30785860D01*
X44187429Y-30807174D01*
X44201072Y-30829934D01*
X44212417Y-30853922D01*
X44221357Y-30878907D01*
X44227804Y-30904648D01*
X44231698Y-30930896D01*
X44233000Y-30957400D01*
X44233000Y-31768600D01*
X44231698Y-31795104D01*
X44227804Y-31821352D01*
X44221357Y-31847093D01*
X44212417Y-31872078D01*
X44201072Y-31896066D01*
X44187429Y-31918826D01*
X44171622Y-31940140D01*
X44153802Y-31959802D01*
X44134140Y-31977622D01*
X44112826Y-31993429D01*
X44090066Y-32007072D01*
X44066078Y-32018417D01*
X44041093Y-32027357D01*
X44015352Y-32033804D01*
X43989104Y-32037698D01*
X43962600Y-32039000D01*
X42651400Y-32039000D01*
X42624896Y-32037698D01*
X42598648Y-32033804D01*
X42572907Y-32027357D01*
X42547922Y-32018417D01*
X42523934Y-32007072D01*
X42501174Y-31993429D01*
X42479860Y-31977622D01*
X42460198Y-31959802D01*
X42442378Y-31940140D01*
X42426571Y-31918826D01*
X42412928Y-31896066D01*
X42401583Y-31872078D01*
X42392643Y-31847093D01*
X42386196Y-31821352D01*
X42382302Y-31795104D01*
X42381000Y-31768600D01*
X42381000Y-30957400D01*
X42382302Y-30930896D01*
X42386196Y-30904648D01*
X42392643Y-30878907D01*
X42401583Y-30853922D01*
X42412928Y-30829934D01*
X42426571Y-30807174D01*
X42442378Y-30785860D01*
X42460198Y-30766198D01*
X42479860Y-30748378D01*
X42501174Y-30732571D01*
X42523934Y-30718928D01*
X42547922Y-30707583D01*
X42572907Y-30698643D01*
X42598648Y-30692196D01*
X42624896Y-30688302D01*
X42651400Y-30687000D01*
X43962600Y-30687000D01*
X43989104Y-30688302D01*
G37*
G36*
X43989104Y-33488302D02*
G01*
X44015352Y-33492196D01*
X44041093Y-33498643D01*
X44066078Y-33507583D01*
X44090066Y-33518928D01*
X44112826Y-33532571D01*
X44134140Y-33548378D01*
X44153802Y-33566198D01*
X44171622Y-33585860D01*
X44187429Y-33607174D01*
X44201072Y-33629934D01*
X44212417Y-33653922D01*
X44221357Y-33678907D01*
X44227804Y-33704648D01*
X44231698Y-33730896D01*
X44233000Y-33757400D01*
X44233000Y-34568600D01*
X44231698Y-34595104D01*
X44227804Y-34621352D01*
X44221357Y-34647093D01*
X44212417Y-34672078D01*
X44201072Y-34696066D01*
X44187429Y-34718826D01*
X44171622Y-34740140D01*
X44153802Y-34759802D01*
X44134140Y-34777622D01*
X44112826Y-34793429D01*
X44090066Y-34807072D01*
X44066078Y-34818417D01*
X44041093Y-34827357D01*
X44015352Y-34833804D01*
X43989104Y-34837698D01*
X43962600Y-34839000D01*
X42651400Y-34839000D01*
X42624896Y-34837698D01*
X42598648Y-34833804D01*
X42572907Y-34827357D01*
X42547922Y-34818417D01*
X42523934Y-34807072D01*
X42501174Y-34793429D01*
X42479860Y-34777622D01*
X42460198Y-34759802D01*
X42442378Y-34740140D01*
X42426571Y-34718826D01*
X42412928Y-34696066D01*
X42401583Y-34672078D01*
X42392643Y-34647093D01*
X42386196Y-34621352D01*
X42382302Y-34595104D01*
X42381000Y-34568600D01*
X42381000Y-33757400D01*
X42382302Y-33730896D01*
X42386196Y-33704648D01*
X42392643Y-33678907D01*
X42401583Y-33653922D01*
X42412928Y-33629934D01*
X42426571Y-33607174D01*
X42442378Y-33585860D01*
X42460198Y-33566198D01*
X42479860Y-33548378D01*
X42501174Y-33532571D01*
X42523934Y-33518928D01*
X42547922Y-33507583D01*
X42572907Y-33498643D01*
X42598648Y-33492196D01*
X42624896Y-33488302D01*
X42651400Y-33487000D01*
X43962600Y-33487000D01*
X43989104Y-33488302D01*
G37*
D22*
X110331250Y-49275000D03*
X110331250Y-45975000D03*
X91281250Y-49275000D03*
X91281250Y-45975000D03*
X110331250Y-26925000D03*
X110331250Y-30225000D03*
X91281250Y-26925000D03*
X91281250Y-30225000D03*
D18*
G36*
X54102141Y-62279297D02*
G01*
X54128278Y-62283174D01*
X54153909Y-62289594D01*
X54178788Y-62298495D01*
X54202674Y-62309793D01*
X54225337Y-62323377D01*
X54246560Y-62339117D01*
X54266139Y-62356861D01*
X54283883Y-62376440D01*
X54299623Y-62397663D01*
X54313207Y-62420326D01*
X54324505Y-62444212D01*
X54333406Y-62469091D01*
X54339826Y-62494722D01*
X54343703Y-62520859D01*
X54345000Y-62547250D01*
X54345000Y-63085750D01*
X54343703Y-63112141D01*
X54339826Y-63138278D01*
X54333406Y-63163909D01*
X54324505Y-63188788D01*
X54313207Y-63212674D01*
X54299623Y-63235337D01*
X54283883Y-63256560D01*
X54266139Y-63276139D01*
X54246560Y-63293883D01*
X54225337Y-63309623D01*
X54202674Y-63323207D01*
X54178788Y-63334505D01*
X54153909Y-63343406D01*
X54128278Y-63349826D01*
X54102141Y-63353703D01*
X54075750Y-63355000D01*
X53112250Y-63355000D01*
X53085859Y-63353703D01*
X53059722Y-63349826D01*
X53034091Y-63343406D01*
X53009212Y-63334505D01*
X52985326Y-63323207D01*
X52962663Y-63309623D01*
X52941440Y-63293883D01*
X52921861Y-63276139D01*
X52904117Y-63256560D01*
X52888377Y-63235337D01*
X52874793Y-63212674D01*
X52863495Y-63188788D01*
X52854594Y-63163909D01*
X52848174Y-63138278D01*
X52844297Y-63112141D01*
X52843000Y-63085750D01*
X52843000Y-62547250D01*
X52844297Y-62520859D01*
X52848174Y-62494722D01*
X52854594Y-62469091D01*
X52863495Y-62444212D01*
X52874793Y-62420326D01*
X52888377Y-62397663D01*
X52904117Y-62376440D01*
X52921861Y-62356861D01*
X52941440Y-62339117D01*
X52962663Y-62323377D01*
X52985326Y-62309793D01*
X53009212Y-62298495D01*
X53034091Y-62289594D01*
X53059722Y-62283174D01*
X53085859Y-62279297D01*
X53112250Y-62278000D01*
X54075750Y-62278000D01*
X54102141Y-62279297D01*
G37*
G36*
X54102141Y-64154297D02*
G01*
X54128278Y-64158174D01*
X54153909Y-64164594D01*
X54178788Y-64173495D01*
X54202674Y-64184793D01*
X54225337Y-64198377D01*
X54246560Y-64214117D01*
X54266139Y-64231861D01*
X54283883Y-64251440D01*
X54299623Y-64272663D01*
X54313207Y-64295326D01*
X54324505Y-64319212D01*
X54333406Y-64344091D01*
X54339826Y-64369722D01*
X54343703Y-64395859D01*
X54345000Y-64422250D01*
X54345000Y-64960750D01*
X54343703Y-64987141D01*
X54339826Y-65013278D01*
X54333406Y-65038909D01*
X54324505Y-65063788D01*
X54313207Y-65087674D01*
X54299623Y-65110337D01*
X54283883Y-65131560D01*
X54266139Y-65151139D01*
X54246560Y-65168883D01*
X54225337Y-65184623D01*
X54202674Y-65198207D01*
X54178788Y-65209505D01*
X54153909Y-65218406D01*
X54128278Y-65224826D01*
X54102141Y-65228703D01*
X54075750Y-65230000D01*
X53112250Y-65230000D01*
X53085859Y-65228703D01*
X53059722Y-65224826D01*
X53034091Y-65218406D01*
X53009212Y-65209505D01*
X52985326Y-65198207D01*
X52962663Y-65184623D01*
X52941440Y-65168883D01*
X52921861Y-65151139D01*
X52904117Y-65131560D01*
X52888377Y-65110337D01*
X52874793Y-65087674D01*
X52863495Y-65063788D01*
X52854594Y-65038909D01*
X52848174Y-65013278D01*
X52844297Y-64987141D01*
X52843000Y-64960750D01*
X52843000Y-64422250D01*
X52844297Y-64395859D01*
X52848174Y-64369722D01*
X52854594Y-64344091D01*
X52863495Y-64319212D01*
X52874793Y-64295326D01*
X52888377Y-64272663D01*
X52904117Y-64251440D01*
X52921861Y-64231861D01*
X52941440Y-64214117D01*
X52962663Y-64198377D01*
X52985326Y-64184793D01*
X53009212Y-64173495D01*
X53034091Y-64164594D01*
X53059722Y-64158174D01*
X53085859Y-64154297D01*
X53112250Y-64153000D01*
X54075750Y-64153000D01*
X54102141Y-64154297D01*
G37*
G36*
X44069141Y-46803797D02*
G01*
X44095278Y-46807674D01*
X44120909Y-46814094D01*
X44145788Y-46822995D01*
X44169674Y-46834293D01*
X44192337Y-46847877D01*
X44213560Y-46863617D01*
X44233139Y-46881361D01*
X44250883Y-46900940D01*
X44266623Y-46922163D01*
X44280207Y-46944826D01*
X44291505Y-46968712D01*
X44300406Y-46993591D01*
X44306826Y-47019222D01*
X44310703Y-47045359D01*
X44312000Y-47071750D01*
X44312000Y-47610250D01*
X44310703Y-47636641D01*
X44306826Y-47662778D01*
X44300406Y-47688409D01*
X44291505Y-47713288D01*
X44280207Y-47737174D01*
X44266623Y-47759837D01*
X44250883Y-47781060D01*
X44233139Y-47800639D01*
X44213560Y-47818383D01*
X44192337Y-47834123D01*
X44169674Y-47847707D01*
X44145788Y-47859005D01*
X44120909Y-47867906D01*
X44095278Y-47874326D01*
X44069141Y-47878203D01*
X44042750Y-47879500D01*
X43079250Y-47879500D01*
X43052859Y-47878203D01*
X43026722Y-47874326D01*
X43001091Y-47867906D01*
X42976212Y-47859005D01*
X42952326Y-47847707D01*
X42929663Y-47834123D01*
X42908440Y-47818383D01*
X42888861Y-47800639D01*
X42871117Y-47781060D01*
X42855377Y-47759837D01*
X42841793Y-47737174D01*
X42830495Y-47713288D01*
X42821594Y-47688409D01*
X42815174Y-47662778D01*
X42811297Y-47636641D01*
X42810000Y-47610250D01*
X42810000Y-47071750D01*
X42811297Y-47045359D01*
X42815174Y-47019222D01*
X42821594Y-46993591D01*
X42830495Y-46968712D01*
X42841793Y-46944826D01*
X42855377Y-46922163D01*
X42871117Y-46900940D01*
X42888861Y-46881361D01*
X42908440Y-46863617D01*
X42929663Y-46847877D01*
X42952326Y-46834293D01*
X42976212Y-46822995D01*
X43001091Y-46814094D01*
X43026722Y-46807674D01*
X43052859Y-46803797D01*
X43079250Y-46802500D01*
X44042750Y-46802500D01*
X44069141Y-46803797D01*
G37*
G36*
X44069141Y-44928797D02*
G01*
X44095278Y-44932674D01*
X44120909Y-44939094D01*
X44145788Y-44947995D01*
X44169674Y-44959293D01*
X44192337Y-44972877D01*
X44213560Y-44988617D01*
X44233139Y-45006361D01*
X44250883Y-45025940D01*
X44266623Y-45047163D01*
X44280207Y-45069826D01*
X44291505Y-45093712D01*
X44300406Y-45118591D01*
X44306826Y-45144222D01*
X44310703Y-45170359D01*
X44312000Y-45196750D01*
X44312000Y-45735250D01*
X44310703Y-45761641D01*
X44306826Y-45787778D01*
X44300406Y-45813409D01*
X44291505Y-45838288D01*
X44280207Y-45862174D01*
X44266623Y-45884837D01*
X44250883Y-45906060D01*
X44233139Y-45925639D01*
X44213560Y-45943383D01*
X44192337Y-45959123D01*
X44169674Y-45972707D01*
X44145788Y-45984005D01*
X44120909Y-45992906D01*
X44095278Y-45999326D01*
X44069141Y-46003203D01*
X44042750Y-46004500D01*
X43079250Y-46004500D01*
X43052859Y-46003203D01*
X43026722Y-45999326D01*
X43001091Y-45992906D01*
X42976212Y-45984005D01*
X42952326Y-45972707D01*
X42929663Y-45959123D01*
X42908440Y-45943383D01*
X42888861Y-45925639D01*
X42871117Y-45906060D01*
X42855377Y-45884837D01*
X42841793Y-45862174D01*
X42830495Y-45838288D01*
X42821594Y-45813409D01*
X42815174Y-45787778D01*
X42811297Y-45761641D01*
X42810000Y-45735250D01*
X42810000Y-45196750D01*
X42811297Y-45170359D01*
X42815174Y-45144222D01*
X42821594Y-45118591D01*
X42830495Y-45093712D01*
X42841793Y-45069826D01*
X42855377Y-45047163D01*
X42871117Y-45025940D01*
X42888861Y-45006361D01*
X42908440Y-44988617D01*
X42929663Y-44972877D01*
X42952326Y-44959293D01*
X42976212Y-44947995D01*
X43001091Y-44939094D01*
X43026722Y-44932674D01*
X43052859Y-44928797D01*
X43079250Y-44927500D01*
X44042750Y-44927500D01*
X44069141Y-44928797D01*
G37*
G36*
X43983641Y-40779297D02*
G01*
X44009778Y-40783174D01*
X44035409Y-40789594D01*
X44060288Y-40798495D01*
X44084174Y-40809793D01*
X44106837Y-40823377D01*
X44128060Y-40839117D01*
X44147639Y-40856861D01*
X44165383Y-40876440D01*
X44181123Y-40897663D01*
X44194707Y-40920326D01*
X44206005Y-40944212D01*
X44214906Y-40969091D01*
X44221326Y-40994722D01*
X44225203Y-41020859D01*
X44226500Y-41047250D01*
X44226500Y-42010750D01*
X44225203Y-42037141D01*
X44221326Y-42063278D01*
X44214906Y-42088909D01*
X44206005Y-42113788D01*
X44194707Y-42137674D01*
X44181123Y-42160337D01*
X44165383Y-42181560D01*
X44147639Y-42201139D01*
X44128060Y-42218883D01*
X44106837Y-42234623D01*
X44084174Y-42248207D01*
X44060288Y-42259505D01*
X44035409Y-42268406D01*
X44009778Y-42274826D01*
X43983641Y-42278703D01*
X43957250Y-42280000D01*
X43418750Y-42280000D01*
X43392359Y-42278703D01*
X43366222Y-42274826D01*
X43340591Y-42268406D01*
X43315712Y-42259505D01*
X43291826Y-42248207D01*
X43269163Y-42234623D01*
X43247940Y-42218883D01*
X43228361Y-42201139D01*
X43210617Y-42181560D01*
X43194877Y-42160337D01*
X43181293Y-42137674D01*
X43169995Y-42113788D01*
X43161094Y-42088909D01*
X43154674Y-42063278D01*
X43150797Y-42037141D01*
X43149500Y-42010750D01*
X43149500Y-41047250D01*
X43150797Y-41020859D01*
X43154674Y-40994722D01*
X43161094Y-40969091D01*
X43169995Y-40944212D01*
X43181293Y-40920326D01*
X43194877Y-40897663D01*
X43210617Y-40876440D01*
X43228361Y-40856861D01*
X43247940Y-40839117D01*
X43269163Y-40823377D01*
X43291826Y-40809793D01*
X43315712Y-40798495D01*
X43340591Y-40789594D01*
X43366222Y-40783174D01*
X43392359Y-40779297D01*
X43418750Y-40778000D01*
X43957250Y-40778000D01*
X43983641Y-40779297D01*
G37*
G36*
X45858641Y-40779297D02*
G01*
X45884778Y-40783174D01*
X45910409Y-40789594D01*
X45935288Y-40798495D01*
X45959174Y-40809793D01*
X45981837Y-40823377D01*
X46003060Y-40839117D01*
X46022639Y-40856861D01*
X46040383Y-40876440D01*
X46056123Y-40897663D01*
X46069707Y-40920326D01*
X46081005Y-40944212D01*
X46089906Y-40969091D01*
X46096326Y-40994722D01*
X46100203Y-41020859D01*
X46101500Y-41047250D01*
X46101500Y-42010750D01*
X46100203Y-42037141D01*
X46096326Y-42063278D01*
X46089906Y-42088909D01*
X46081005Y-42113788D01*
X46069707Y-42137674D01*
X46056123Y-42160337D01*
X46040383Y-42181560D01*
X46022639Y-42201139D01*
X46003060Y-42218883D01*
X45981837Y-42234623D01*
X45959174Y-42248207D01*
X45935288Y-42259505D01*
X45910409Y-42268406D01*
X45884778Y-42274826D01*
X45858641Y-42278703D01*
X45832250Y-42280000D01*
X45293750Y-42280000D01*
X45267359Y-42278703D01*
X45241222Y-42274826D01*
X45215591Y-42268406D01*
X45190712Y-42259505D01*
X45166826Y-42248207D01*
X45144163Y-42234623D01*
X45122940Y-42218883D01*
X45103361Y-42201139D01*
X45085617Y-42181560D01*
X45069877Y-42160337D01*
X45056293Y-42137674D01*
X45044995Y-42113788D01*
X45036094Y-42088909D01*
X45029674Y-42063278D01*
X45025797Y-42037141D01*
X45024500Y-42010750D01*
X45024500Y-41047250D01*
X45025797Y-41020859D01*
X45029674Y-40994722D01*
X45036094Y-40969091D01*
X45044995Y-40944212D01*
X45056293Y-40920326D01*
X45069877Y-40897663D01*
X45085617Y-40876440D01*
X45103361Y-40856861D01*
X45122940Y-40839117D01*
X45144163Y-40823377D01*
X45166826Y-40809793D01*
X45190712Y-40798495D01*
X45215591Y-40789594D01*
X45241222Y-40783174D01*
X45267359Y-40779297D01*
X45293750Y-40778000D01*
X45832250Y-40778000D01*
X45858641Y-40779297D01*
G37*
G36*
X62357141Y-62279297D02*
G01*
X62383278Y-62283174D01*
X62408909Y-62289594D01*
X62433788Y-62298495D01*
X62457674Y-62309793D01*
X62480337Y-62323377D01*
X62501560Y-62339117D01*
X62521139Y-62356861D01*
X62538883Y-62376440D01*
X62554623Y-62397663D01*
X62568207Y-62420326D01*
X62579505Y-62444212D01*
X62588406Y-62469091D01*
X62594826Y-62494722D01*
X62598703Y-62520859D01*
X62600000Y-62547250D01*
X62600000Y-63085750D01*
X62598703Y-63112141D01*
X62594826Y-63138278D01*
X62588406Y-63163909D01*
X62579505Y-63188788D01*
X62568207Y-63212674D01*
X62554623Y-63235337D01*
X62538883Y-63256560D01*
X62521139Y-63276139D01*
X62501560Y-63293883D01*
X62480337Y-63309623D01*
X62457674Y-63323207D01*
X62433788Y-63334505D01*
X62408909Y-63343406D01*
X62383278Y-63349826D01*
X62357141Y-63353703D01*
X62330750Y-63355000D01*
X61367250Y-63355000D01*
X61340859Y-63353703D01*
X61314722Y-63349826D01*
X61289091Y-63343406D01*
X61264212Y-63334505D01*
X61240326Y-63323207D01*
X61217663Y-63309623D01*
X61196440Y-63293883D01*
X61176861Y-63276139D01*
X61159117Y-63256560D01*
X61143377Y-63235337D01*
X61129793Y-63212674D01*
X61118495Y-63188788D01*
X61109594Y-63163909D01*
X61103174Y-63138278D01*
X61099297Y-63112141D01*
X61098000Y-63085750D01*
X61098000Y-62547250D01*
X61099297Y-62520859D01*
X61103174Y-62494722D01*
X61109594Y-62469091D01*
X61118495Y-62444212D01*
X61129793Y-62420326D01*
X61143377Y-62397663D01*
X61159117Y-62376440D01*
X61176861Y-62356861D01*
X61196440Y-62339117D01*
X61217663Y-62323377D01*
X61240326Y-62309793D01*
X61264212Y-62298495D01*
X61289091Y-62289594D01*
X61314722Y-62283174D01*
X61340859Y-62279297D01*
X61367250Y-62278000D01*
X62330750Y-62278000D01*
X62357141Y-62279297D01*
G37*
G36*
X62357141Y-64154297D02*
G01*
X62383278Y-64158174D01*
X62408909Y-64164594D01*
X62433788Y-64173495D01*
X62457674Y-64184793D01*
X62480337Y-64198377D01*
X62501560Y-64214117D01*
X62521139Y-64231861D01*
X62538883Y-64251440D01*
X62554623Y-64272663D01*
X62568207Y-64295326D01*
X62579505Y-64319212D01*
X62588406Y-64344091D01*
X62594826Y-64369722D01*
X62598703Y-64395859D01*
X62600000Y-64422250D01*
X62600000Y-64960750D01*
X62598703Y-64987141D01*
X62594826Y-65013278D01*
X62588406Y-65038909D01*
X62579505Y-65063788D01*
X62568207Y-65087674D01*
X62554623Y-65110337D01*
X62538883Y-65131560D01*
X62521139Y-65151139D01*
X62501560Y-65168883D01*
X62480337Y-65184623D01*
X62457674Y-65198207D01*
X62433788Y-65209505D01*
X62408909Y-65218406D01*
X62383278Y-65224826D01*
X62357141Y-65228703D01*
X62330750Y-65230000D01*
X61367250Y-65230000D01*
X61340859Y-65228703D01*
X61314722Y-65224826D01*
X61289091Y-65218406D01*
X61264212Y-65209505D01*
X61240326Y-65198207D01*
X61217663Y-65184623D01*
X61196440Y-65168883D01*
X61176861Y-65151139D01*
X61159117Y-65131560D01*
X61143377Y-65110337D01*
X61129793Y-65087674D01*
X61118495Y-65063788D01*
X61109594Y-65038909D01*
X61103174Y-65013278D01*
X61099297Y-64987141D01*
X61098000Y-64960750D01*
X61098000Y-64422250D01*
X61099297Y-64395859D01*
X61103174Y-64369722D01*
X61109594Y-64344091D01*
X61118495Y-64319212D01*
X61129793Y-64295326D01*
X61143377Y-64272663D01*
X61159117Y-64251440D01*
X61176861Y-64231861D01*
X61196440Y-64214117D01*
X61217663Y-64198377D01*
X61240326Y-64184793D01*
X61264212Y-64173495D01*
X61289091Y-64164594D01*
X61314722Y-64158174D01*
X61340859Y-64154297D01*
X61367250Y-64153000D01*
X62330750Y-64153000D01*
X62357141Y-64154297D01*
G37*
G36*
X53086141Y-31769297D02*
G01*
X53112278Y-31773174D01*
X53137909Y-31779594D01*
X53162788Y-31788495D01*
X53186674Y-31799793D01*
X53209337Y-31813377D01*
X53230560Y-31829117D01*
X53250139Y-31846861D01*
X53267883Y-31866440D01*
X53283623Y-31887663D01*
X53297207Y-31910326D01*
X53308505Y-31934212D01*
X53317406Y-31959091D01*
X53323826Y-31984722D01*
X53327703Y-32010859D01*
X53329000Y-32037250D01*
X53329000Y-32575750D01*
X53327703Y-32602141D01*
X53323826Y-32628278D01*
X53317406Y-32653909D01*
X53308505Y-32678788D01*
X53297207Y-32702674D01*
X53283623Y-32725337D01*
X53267883Y-32746560D01*
X53250139Y-32766139D01*
X53230560Y-32783883D01*
X53209337Y-32799623D01*
X53186674Y-32813207D01*
X53162788Y-32824505D01*
X53137909Y-32833406D01*
X53112278Y-32839826D01*
X53086141Y-32843703D01*
X53059750Y-32845000D01*
X52096250Y-32845000D01*
X52069859Y-32843703D01*
X52043722Y-32839826D01*
X52018091Y-32833406D01*
X51993212Y-32824505D01*
X51969326Y-32813207D01*
X51946663Y-32799623D01*
X51925440Y-32783883D01*
X51905861Y-32766139D01*
X51888117Y-32746560D01*
X51872377Y-32725337D01*
X51858793Y-32702674D01*
X51847495Y-32678788D01*
X51838594Y-32653909D01*
X51832174Y-32628278D01*
X51828297Y-32602141D01*
X51827000Y-32575750D01*
X51827000Y-32037250D01*
X51828297Y-32010859D01*
X51832174Y-31984722D01*
X51838594Y-31959091D01*
X51847495Y-31934212D01*
X51858793Y-31910326D01*
X51872377Y-31887663D01*
X51888117Y-31866440D01*
X51905861Y-31846861D01*
X51925440Y-31829117D01*
X51946663Y-31813377D01*
X51969326Y-31799793D01*
X51993212Y-31788495D01*
X52018091Y-31779594D01*
X52043722Y-31773174D01*
X52069859Y-31769297D01*
X52096250Y-31768000D01*
X53059750Y-31768000D01*
X53086141Y-31769297D01*
G37*
G36*
X53086141Y-29894297D02*
G01*
X53112278Y-29898174D01*
X53137909Y-29904594D01*
X53162788Y-29913495D01*
X53186674Y-29924793D01*
X53209337Y-29938377D01*
X53230560Y-29954117D01*
X53250139Y-29971861D01*
X53267883Y-29991440D01*
X53283623Y-30012663D01*
X53297207Y-30035326D01*
X53308505Y-30059212D01*
X53317406Y-30084091D01*
X53323826Y-30109722D01*
X53327703Y-30135859D01*
X53329000Y-30162250D01*
X53329000Y-30700750D01*
X53327703Y-30727141D01*
X53323826Y-30753278D01*
X53317406Y-30778909D01*
X53308505Y-30803788D01*
X53297207Y-30827674D01*
X53283623Y-30850337D01*
X53267883Y-30871560D01*
X53250139Y-30891139D01*
X53230560Y-30908883D01*
X53209337Y-30924623D01*
X53186674Y-30938207D01*
X53162788Y-30949505D01*
X53137909Y-30958406D01*
X53112278Y-30964826D01*
X53086141Y-30968703D01*
X53059750Y-30970000D01*
X52096250Y-30970000D01*
X52069859Y-30968703D01*
X52043722Y-30964826D01*
X52018091Y-30958406D01*
X51993212Y-30949505D01*
X51969326Y-30938207D01*
X51946663Y-30924623D01*
X51925440Y-30908883D01*
X51905861Y-30891139D01*
X51888117Y-30871560D01*
X51872377Y-30850337D01*
X51858793Y-30827674D01*
X51847495Y-30803788D01*
X51838594Y-30778909D01*
X51832174Y-30753278D01*
X51828297Y-30727141D01*
X51827000Y-30700750D01*
X51827000Y-30162250D01*
X51828297Y-30135859D01*
X51832174Y-30109722D01*
X51838594Y-30084091D01*
X51847495Y-30059212D01*
X51858793Y-30035326D01*
X51872377Y-30012663D01*
X51888117Y-29991440D01*
X51905861Y-29971861D01*
X51925440Y-29954117D01*
X51946663Y-29938377D01*
X51969326Y-29924793D01*
X51993212Y-29913495D01*
X52018091Y-29904594D01*
X52043722Y-29898174D01*
X52069859Y-29894297D01*
X52096250Y-29893000D01*
X53059750Y-29893000D01*
X53086141Y-29894297D01*
G37*
G36*
X63627141Y-31944797D02*
G01*
X63653278Y-31948674D01*
X63678909Y-31955094D01*
X63703788Y-31963995D01*
X63727674Y-31975293D01*
X63750337Y-31988877D01*
X63771560Y-32004617D01*
X63791139Y-32022361D01*
X63808883Y-32041940D01*
X63824623Y-32063163D01*
X63838207Y-32085826D01*
X63849505Y-32109712D01*
X63858406Y-32134591D01*
X63864826Y-32160222D01*
X63868703Y-32186359D01*
X63870000Y-32212750D01*
X63870000Y-32751250D01*
X63868703Y-32777641D01*
X63864826Y-32803778D01*
X63858406Y-32829409D01*
X63849505Y-32854288D01*
X63838207Y-32878174D01*
X63824623Y-32900837D01*
X63808883Y-32922060D01*
X63791139Y-32941639D01*
X63771560Y-32959383D01*
X63750337Y-32975123D01*
X63727674Y-32988707D01*
X63703788Y-33000005D01*
X63678909Y-33008906D01*
X63653278Y-33015326D01*
X63627141Y-33019203D01*
X63600750Y-33020500D01*
X62637250Y-33020500D01*
X62610859Y-33019203D01*
X62584722Y-33015326D01*
X62559091Y-33008906D01*
X62534212Y-33000005D01*
X62510326Y-32988707D01*
X62487663Y-32975123D01*
X62466440Y-32959383D01*
X62446861Y-32941639D01*
X62429117Y-32922060D01*
X62413377Y-32900837D01*
X62399793Y-32878174D01*
X62388495Y-32854288D01*
X62379594Y-32829409D01*
X62373174Y-32803778D01*
X62369297Y-32777641D01*
X62368000Y-32751250D01*
X62368000Y-32212750D01*
X62369297Y-32186359D01*
X62373174Y-32160222D01*
X62379594Y-32134591D01*
X62388495Y-32109712D01*
X62399793Y-32085826D01*
X62413377Y-32063163D01*
X62429117Y-32041940D01*
X62446861Y-32022361D01*
X62466440Y-32004617D01*
X62487663Y-31988877D01*
X62510326Y-31975293D01*
X62534212Y-31963995D01*
X62559091Y-31955094D01*
X62584722Y-31948674D01*
X62610859Y-31944797D01*
X62637250Y-31943500D01*
X63600750Y-31943500D01*
X63627141Y-31944797D01*
G37*
G36*
X63627141Y-30069797D02*
G01*
X63653278Y-30073674D01*
X63678909Y-30080094D01*
X63703788Y-30088995D01*
X63727674Y-30100293D01*
X63750337Y-30113877D01*
X63771560Y-30129617D01*
X63791139Y-30147361D01*
X63808883Y-30166940D01*
X63824623Y-30188163D01*
X63838207Y-30210826D01*
X63849505Y-30234712D01*
X63858406Y-30259591D01*
X63864826Y-30285222D01*
X63868703Y-30311359D01*
X63870000Y-30337750D01*
X63870000Y-30876250D01*
X63868703Y-30902641D01*
X63864826Y-30928778D01*
X63858406Y-30954409D01*
X63849505Y-30979288D01*
X63838207Y-31003174D01*
X63824623Y-31025837D01*
X63808883Y-31047060D01*
X63791139Y-31066639D01*
X63771560Y-31084383D01*
X63750337Y-31100123D01*
X63727674Y-31113707D01*
X63703788Y-31125005D01*
X63678909Y-31133906D01*
X63653278Y-31140326D01*
X63627141Y-31144203D01*
X63600750Y-31145500D01*
X62637250Y-31145500D01*
X62610859Y-31144203D01*
X62584722Y-31140326D01*
X62559091Y-31133906D01*
X62534212Y-31125005D01*
X62510326Y-31113707D01*
X62487663Y-31100123D01*
X62466440Y-31084383D01*
X62446861Y-31066639D01*
X62429117Y-31047060D01*
X62413377Y-31025837D01*
X62399793Y-31003174D01*
X62388495Y-30979288D01*
X62379594Y-30954409D01*
X62373174Y-30928778D01*
X62369297Y-30902641D01*
X62368000Y-30876250D01*
X62368000Y-30337750D01*
X62369297Y-30311359D01*
X62373174Y-30285222D01*
X62379594Y-30259591D01*
X62388495Y-30234712D01*
X62399793Y-30210826D01*
X62413377Y-30188163D01*
X62429117Y-30166940D01*
X62446861Y-30147361D01*
X62466440Y-30129617D01*
X62487663Y-30113877D01*
X62510326Y-30100293D01*
X62534212Y-30088995D01*
X62559091Y-30080094D01*
X62584722Y-30073674D01*
X62610859Y-30069797D01*
X62637250Y-30068500D01*
X63600750Y-30068500D01*
X63627141Y-30069797D01*
G37*
G36*
X44069141Y-50087297D02*
G01*
X44095278Y-50091174D01*
X44120909Y-50097594D01*
X44145788Y-50106495D01*
X44169674Y-50117793D01*
X44192337Y-50131377D01*
X44213560Y-50147117D01*
X44233139Y-50164861D01*
X44250883Y-50184440D01*
X44266623Y-50205663D01*
X44280207Y-50228326D01*
X44291505Y-50252212D01*
X44300406Y-50277091D01*
X44306826Y-50302722D01*
X44310703Y-50328859D01*
X44312000Y-50355250D01*
X44312000Y-50893750D01*
X44310703Y-50920141D01*
X44306826Y-50946278D01*
X44300406Y-50971909D01*
X44291505Y-50996788D01*
X44280207Y-51020674D01*
X44266623Y-51043337D01*
X44250883Y-51064560D01*
X44233139Y-51084139D01*
X44213560Y-51101883D01*
X44192337Y-51117623D01*
X44169674Y-51131207D01*
X44145788Y-51142505D01*
X44120909Y-51151406D01*
X44095278Y-51157826D01*
X44069141Y-51161703D01*
X44042750Y-51163000D01*
X43079250Y-51163000D01*
X43052859Y-51161703D01*
X43026722Y-51157826D01*
X43001091Y-51151406D01*
X42976212Y-51142505D01*
X42952326Y-51131207D01*
X42929663Y-51117623D01*
X42908440Y-51101883D01*
X42888861Y-51084139D01*
X42871117Y-51064560D01*
X42855377Y-51043337D01*
X42841793Y-51020674D01*
X42830495Y-50996788D01*
X42821594Y-50971909D01*
X42815174Y-50946278D01*
X42811297Y-50920141D01*
X42810000Y-50893750D01*
X42810000Y-50355250D01*
X42811297Y-50328859D01*
X42815174Y-50302722D01*
X42821594Y-50277091D01*
X42830495Y-50252212D01*
X42841793Y-50228326D01*
X42855377Y-50205663D01*
X42871117Y-50184440D01*
X42888861Y-50164861D01*
X42908440Y-50147117D01*
X42929663Y-50131377D01*
X42952326Y-50117793D01*
X42976212Y-50106495D01*
X43001091Y-50097594D01*
X43026722Y-50091174D01*
X43052859Y-50087297D01*
X43079250Y-50086000D01*
X44042750Y-50086000D01*
X44069141Y-50087297D01*
G37*
G36*
X44069141Y-51962297D02*
G01*
X44095278Y-51966174D01*
X44120909Y-51972594D01*
X44145788Y-51981495D01*
X44169674Y-51992793D01*
X44192337Y-52006377D01*
X44213560Y-52022117D01*
X44233139Y-52039861D01*
X44250883Y-52059440D01*
X44266623Y-52080663D01*
X44280207Y-52103326D01*
X44291505Y-52127212D01*
X44300406Y-52152091D01*
X44306826Y-52177722D01*
X44310703Y-52203859D01*
X44312000Y-52230250D01*
X44312000Y-52768750D01*
X44310703Y-52795141D01*
X44306826Y-52821278D01*
X44300406Y-52846909D01*
X44291505Y-52871788D01*
X44280207Y-52895674D01*
X44266623Y-52918337D01*
X44250883Y-52939560D01*
X44233139Y-52959139D01*
X44213560Y-52976883D01*
X44192337Y-52992623D01*
X44169674Y-53006207D01*
X44145788Y-53017505D01*
X44120909Y-53026406D01*
X44095278Y-53032826D01*
X44069141Y-53036703D01*
X44042750Y-53038000D01*
X43079250Y-53038000D01*
X43052859Y-53036703D01*
X43026722Y-53032826D01*
X43001091Y-53026406D01*
X42976212Y-53017505D01*
X42952326Y-53006207D01*
X42929663Y-52992623D01*
X42908440Y-52976883D01*
X42888861Y-52959139D01*
X42871117Y-52939560D01*
X42855377Y-52918337D01*
X42841793Y-52895674D01*
X42830495Y-52871788D01*
X42821594Y-52846909D01*
X42815174Y-52821278D01*
X42811297Y-52795141D01*
X42810000Y-52768750D01*
X42810000Y-52230250D01*
X42811297Y-52203859D01*
X42815174Y-52177722D01*
X42821594Y-52152091D01*
X42830495Y-52127212D01*
X42841793Y-52103326D01*
X42855377Y-52080663D01*
X42871117Y-52059440D01*
X42888861Y-52039861D01*
X42908440Y-52022117D01*
X42929663Y-52006377D01*
X42952326Y-51992793D01*
X42976212Y-51981495D01*
X43001091Y-51972594D01*
X43026722Y-51966174D01*
X43052859Y-51962297D01*
X43079250Y-51961000D01*
X44042750Y-51961000D01*
X44069141Y-51962297D01*
G37*
M02*
