G04 #@! TF.GenerationSoftware,KiCad,Pcbnew,(5.1.5)-3*
G04 #@! TF.CreationDate,2020-04-03T11:19:55-04:00*
G04 #@! TF.ProjectId,Claw10 PCB,436c6177-3130-4205-9043-422e6b696361,rev?*
G04 #@! TF.SameCoordinates,Original*
G04 #@! TF.FileFunction,Soldermask,Top*
G04 #@! TF.FilePolarity,Negative*
%FSLAX46Y46*%
G04 Gerber Fmt 4.6, Leading zero omitted, Abs format (unit mm)*
G04 Created by KiCad (PCBNEW (5.1.5)-3) date 2020-04-03 11:19:55*
%MOMM*%
%LPD*%
G04 APERTURE LIST*
%ADD10C,0.100000*%
G04 APERTURE END LIST*
D10*
G36*
X104999549Y-51258616D02*
G01*
X105110734Y-51280732D01*
X105320203Y-51367497D01*
X105508720Y-51493460D01*
X105669040Y-51653780D01*
X105795003Y-51842297D01*
X105881768Y-52051766D01*
X105926000Y-52274136D01*
X105926000Y-52500864D01*
X105881768Y-52723234D01*
X105795003Y-52932703D01*
X105669040Y-53121220D01*
X105508720Y-53281540D01*
X105320203Y-53407503D01*
X105110734Y-53494268D01*
X104999549Y-53516384D01*
X104888365Y-53538500D01*
X104661635Y-53538500D01*
X104550451Y-53516384D01*
X104439266Y-53494268D01*
X104229797Y-53407503D01*
X104041280Y-53281540D01*
X103880960Y-53121220D01*
X103754997Y-52932703D01*
X103668232Y-52723234D01*
X103624000Y-52500864D01*
X103624000Y-52274136D01*
X103668232Y-52051766D01*
X103754997Y-51842297D01*
X103880960Y-51653780D01*
X104041280Y-51493460D01*
X104229797Y-51367497D01*
X104439266Y-51280732D01*
X104550451Y-51258616D01*
X104661635Y-51236500D01*
X104888365Y-51236500D01*
X104999549Y-51258616D01*
G37*
G36*
X85949549Y-51258616D02*
G01*
X86060734Y-51280732D01*
X86270203Y-51367497D01*
X86458720Y-51493460D01*
X86619040Y-51653780D01*
X86745003Y-51842297D01*
X86831768Y-52051766D01*
X86876000Y-52274136D01*
X86876000Y-52500864D01*
X86831768Y-52723234D01*
X86745003Y-52932703D01*
X86619040Y-53121220D01*
X86458720Y-53281540D01*
X86270203Y-53407503D01*
X86060734Y-53494268D01*
X85949549Y-53516384D01*
X85838365Y-53538500D01*
X85611635Y-53538500D01*
X85500451Y-53516384D01*
X85389266Y-53494268D01*
X85179797Y-53407503D01*
X84991280Y-53281540D01*
X84830960Y-53121220D01*
X84704997Y-52932703D01*
X84618232Y-52723234D01*
X84574000Y-52500864D01*
X84574000Y-52274136D01*
X84618232Y-52051766D01*
X84704997Y-51842297D01*
X84830960Y-51653780D01*
X84991280Y-51493460D01*
X85179797Y-51367497D01*
X85389266Y-51280732D01*
X85500451Y-51258616D01*
X85611635Y-51236500D01*
X85838365Y-51236500D01*
X85949549Y-51258616D01*
G37*
G36*
X98649549Y-48718616D02*
G01*
X98760734Y-48740732D01*
X98970203Y-48827497D01*
X99158720Y-48953460D01*
X99319040Y-49113780D01*
X99445003Y-49302297D01*
X99531768Y-49511766D01*
X99576000Y-49734136D01*
X99576000Y-49960864D01*
X99531768Y-50183234D01*
X99445003Y-50392703D01*
X99319040Y-50581220D01*
X99158720Y-50741540D01*
X98970203Y-50867503D01*
X98760734Y-50954268D01*
X98649549Y-50976384D01*
X98538365Y-50998500D01*
X98311635Y-50998500D01*
X98200451Y-50976384D01*
X98089266Y-50954268D01*
X97879797Y-50867503D01*
X97691280Y-50741540D01*
X97530960Y-50581220D01*
X97404997Y-50392703D01*
X97318232Y-50183234D01*
X97274000Y-49960864D01*
X97274000Y-49734136D01*
X97318232Y-49511766D01*
X97404997Y-49302297D01*
X97530960Y-49113780D01*
X97691280Y-48953460D01*
X97879797Y-48827497D01*
X98089266Y-48740732D01*
X98200451Y-48718616D01*
X98311635Y-48696500D01*
X98538365Y-48696500D01*
X98649549Y-48718616D01*
G37*
G36*
X79599549Y-48718616D02*
G01*
X79710734Y-48740732D01*
X79920203Y-48827497D01*
X80108720Y-48953460D01*
X80269040Y-49113780D01*
X80395003Y-49302297D01*
X80481768Y-49511766D01*
X80526000Y-49734136D01*
X80526000Y-49960864D01*
X80481768Y-50183234D01*
X80395003Y-50392703D01*
X80269040Y-50581220D01*
X80108720Y-50741540D01*
X79920203Y-50867503D01*
X79710734Y-50954268D01*
X79599549Y-50976384D01*
X79488365Y-50998500D01*
X79261635Y-50998500D01*
X79150451Y-50976384D01*
X79039266Y-50954268D01*
X78829797Y-50867503D01*
X78641280Y-50741540D01*
X78480960Y-50581220D01*
X78354997Y-50392703D01*
X78268232Y-50183234D01*
X78224000Y-49960864D01*
X78224000Y-49734136D01*
X78268232Y-49511766D01*
X78354997Y-49302297D01*
X78480960Y-49113780D01*
X78641280Y-48953460D01*
X78829797Y-48827497D01*
X79039266Y-48740732D01*
X79150451Y-48718616D01*
X79261635Y-48696500D01*
X79488365Y-48696500D01*
X79599549Y-48718616D01*
G37*
G36*
X102833254Y-45335318D02*
G01*
X103206511Y-45489926D01*
X103206513Y-45489927D01*
X103542436Y-45714384D01*
X103828116Y-46000064D01*
X104052574Y-46335989D01*
X104207182Y-46709246D01*
X104286000Y-47105493D01*
X104286000Y-47509507D01*
X104207182Y-47905754D01*
X104052574Y-48279011D01*
X104052573Y-48279013D01*
X103828116Y-48614936D01*
X103542436Y-48900616D01*
X103206513Y-49125073D01*
X103206512Y-49125074D01*
X103206511Y-49125074D01*
X102833254Y-49279682D01*
X102437007Y-49358500D01*
X102032993Y-49358500D01*
X101636746Y-49279682D01*
X101263489Y-49125074D01*
X101263488Y-49125074D01*
X101263487Y-49125073D01*
X100927564Y-48900616D01*
X100641884Y-48614936D01*
X100417427Y-48279013D01*
X100417426Y-48279011D01*
X100262818Y-47905754D01*
X100184000Y-47509507D01*
X100184000Y-47105493D01*
X100262818Y-46709246D01*
X100417426Y-46335989D01*
X100641884Y-46000064D01*
X100927564Y-45714384D01*
X101263487Y-45489927D01*
X101263489Y-45489926D01*
X101636746Y-45335318D01*
X102032993Y-45256500D01*
X102437007Y-45256500D01*
X102833254Y-45335318D01*
G37*
G36*
X83783254Y-45335318D02*
G01*
X84156511Y-45489926D01*
X84156513Y-45489927D01*
X84492436Y-45714384D01*
X84778116Y-46000064D01*
X85002574Y-46335989D01*
X85157182Y-46709246D01*
X85236000Y-47105493D01*
X85236000Y-47509507D01*
X85157182Y-47905754D01*
X85002574Y-48279011D01*
X85002573Y-48279013D01*
X84778116Y-48614936D01*
X84492436Y-48900616D01*
X84156513Y-49125073D01*
X84156512Y-49125074D01*
X84156511Y-49125074D01*
X83783254Y-49279682D01*
X83387007Y-49358500D01*
X82982993Y-49358500D01*
X82586746Y-49279682D01*
X82213489Y-49125074D01*
X82213488Y-49125074D01*
X82213487Y-49125073D01*
X81877564Y-48900616D01*
X81591884Y-48614936D01*
X81367427Y-48279013D01*
X81367426Y-48279011D01*
X81212818Y-47905754D01*
X81134000Y-47509507D01*
X81134000Y-47105493D01*
X81212818Y-46709246D01*
X81367426Y-46335989D01*
X81591884Y-46000064D01*
X81877564Y-45714384D01*
X82213487Y-45489927D01*
X82213489Y-45489926D01*
X82586746Y-45335318D01*
X82982993Y-45256500D01*
X83387007Y-45256500D01*
X83783254Y-45335318D01*
G37*
G36*
X107428512Y-46411427D02*
G01*
X107577812Y-46441124D01*
X107741784Y-46509044D01*
X107889354Y-46607647D01*
X108014853Y-46733146D01*
X108113456Y-46880716D01*
X108181376Y-47044688D01*
X108216000Y-47218759D01*
X108216000Y-47396241D01*
X108181376Y-47570312D01*
X108113456Y-47734284D01*
X108014853Y-47881854D01*
X107889354Y-48007353D01*
X107741784Y-48105956D01*
X107577812Y-48173876D01*
X107428512Y-48203573D01*
X107403742Y-48208500D01*
X107226258Y-48208500D01*
X107201488Y-48203573D01*
X107052188Y-48173876D01*
X106888216Y-48105956D01*
X106740646Y-48007353D01*
X106615147Y-47881854D01*
X106516544Y-47734284D01*
X106448624Y-47570312D01*
X106414000Y-47396241D01*
X106414000Y-47218759D01*
X106448624Y-47044688D01*
X106516544Y-46880716D01*
X106615147Y-46733146D01*
X106740646Y-46607647D01*
X106888216Y-46509044D01*
X107052188Y-46441124D01*
X107201488Y-46411427D01*
X107226258Y-46406500D01*
X107403742Y-46406500D01*
X107428512Y-46411427D01*
G37*
G36*
X97268512Y-46411427D02*
G01*
X97417812Y-46441124D01*
X97581784Y-46509044D01*
X97729354Y-46607647D01*
X97854853Y-46733146D01*
X97953456Y-46880716D01*
X98021376Y-47044688D01*
X98056000Y-47218759D01*
X98056000Y-47396241D01*
X98021376Y-47570312D01*
X97953456Y-47734284D01*
X97854853Y-47881854D01*
X97729354Y-48007353D01*
X97581784Y-48105956D01*
X97417812Y-48173876D01*
X97268512Y-48203573D01*
X97243742Y-48208500D01*
X97066258Y-48208500D01*
X97041488Y-48203573D01*
X96892188Y-48173876D01*
X96728216Y-48105956D01*
X96580646Y-48007353D01*
X96455147Y-47881854D01*
X96356544Y-47734284D01*
X96288624Y-47570312D01*
X96254000Y-47396241D01*
X96254000Y-47218759D01*
X96288624Y-47044688D01*
X96356544Y-46880716D01*
X96455147Y-46733146D01*
X96580646Y-46607647D01*
X96728216Y-46509044D01*
X96892188Y-46441124D01*
X97041488Y-46411427D01*
X97066258Y-46406500D01*
X97243742Y-46406500D01*
X97268512Y-46411427D01*
G37*
G36*
X88378512Y-46411427D02*
G01*
X88527812Y-46441124D01*
X88691784Y-46509044D01*
X88839354Y-46607647D01*
X88964853Y-46733146D01*
X89063456Y-46880716D01*
X89131376Y-47044688D01*
X89166000Y-47218759D01*
X89166000Y-47396241D01*
X89131376Y-47570312D01*
X89063456Y-47734284D01*
X88964853Y-47881854D01*
X88839354Y-48007353D01*
X88691784Y-48105956D01*
X88527812Y-48173876D01*
X88378512Y-48203573D01*
X88353742Y-48208500D01*
X88176258Y-48208500D01*
X88151488Y-48203573D01*
X88002188Y-48173876D01*
X87838216Y-48105956D01*
X87690646Y-48007353D01*
X87565147Y-47881854D01*
X87466544Y-47734284D01*
X87398624Y-47570312D01*
X87364000Y-47396241D01*
X87364000Y-47218759D01*
X87398624Y-47044688D01*
X87466544Y-46880716D01*
X87565147Y-46733146D01*
X87690646Y-46607647D01*
X87838216Y-46509044D01*
X88002188Y-46441124D01*
X88151488Y-46411427D01*
X88176258Y-46406500D01*
X88353742Y-46406500D01*
X88378512Y-46411427D01*
G37*
G36*
X78218512Y-46411427D02*
G01*
X78367812Y-46441124D01*
X78531784Y-46509044D01*
X78679354Y-46607647D01*
X78804853Y-46733146D01*
X78903456Y-46880716D01*
X78971376Y-47044688D01*
X79006000Y-47218759D01*
X79006000Y-47396241D01*
X78971376Y-47570312D01*
X78903456Y-47734284D01*
X78804853Y-47881854D01*
X78679354Y-48007353D01*
X78531784Y-48105956D01*
X78367812Y-48173876D01*
X78218512Y-48203573D01*
X78193742Y-48208500D01*
X78016258Y-48208500D01*
X77991488Y-48203573D01*
X77842188Y-48173876D01*
X77678216Y-48105956D01*
X77530646Y-48007353D01*
X77405147Y-47881854D01*
X77306544Y-47734284D01*
X77238624Y-47570312D01*
X77204000Y-47396241D01*
X77204000Y-47218759D01*
X77238624Y-47044688D01*
X77306544Y-46880716D01*
X77405147Y-46733146D01*
X77530646Y-46607647D01*
X77678216Y-46509044D01*
X77842188Y-46441124D01*
X77991488Y-46411427D01*
X78016258Y-46406500D01*
X78193742Y-46406500D01*
X78218512Y-46411427D01*
G37*
G36*
X104999549Y-32208616D02*
G01*
X105110734Y-32230732D01*
X105320203Y-32317497D01*
X105508720Y-32443460D01*
X105669040Y-32603780D01*
X105795003Y-32792297D01*
X105881768Y-33001766D01*
X105926000Y-33224136D01*
X105926000Y-33450864D01*
X105881768Y-33673234D01*
X105795003Y-33882703D01*
X105669040Y-34071220D01*
X105508720Y-34231540D01*
X105320203Y-34357503D01*
X105110734Y-34444268D01*
X104999549Y-34466384D01*
X104888365Y-34488500D01*
X104661635Y-34488500D01*
X104550451Y-34466384D01*
X104439266Y-34444268D01*
X104229797Y-34357503D01*
X104041280Y-34231540D01*
X103880960Y-34071220D01*
X103754997Y-33882703D01*
X103668232Y-33673234D01*
X103624000Y-33450864D01*
X103624000Y-33224136D01*
X103668232Y-33001766D01*
X103754997Y-32792297D01*
X103880960Y-32603780D01*
X104041280Y-32443460D01*
X104229797Y-32317497D01*
X104439266Y-32230732D01*
X104550451Y-32208616D01*
X104661635Y-32186500D01*
X104888365Y-32186500D01*
X104999549Y-32208616D01*
G37*
G36*
X85949549Y-32208616D02*
G01*
X86060734Y-32230732D01*
X86270203Y-32317497D01*
X86458720Y-32443460D01*
X86619040Y-32603780D01*
X86745003Y-32792297D01*
X86831768Y-33001766D01*
X86876000Y-33224136D01*
X86876000Y-33450864D01*
X86831768Y-33673234D01*
X86745003Y-33882703D01*
X86619040Y-34071220D01*
X86458720Y-34231540D01*
X86270203Y-34357503D01*
X86060734Y-34444268D01*
X85949549Y-34466384D01*
X85838365Y-34488500D01*
X85611635Y-34488500D01*
X85500451Y-34466384D01*
X85389266Y-34444268D01*
X85179797Y-34357503D01*
X84991280Y-34231540D01*
X84830960Y-34071220D01*
X84704997Y-33882703D01*
X84618232Y-33673234D01*
X84574000Y-33450864D01*
X84574000Y-33224136D01*
X84618232Y-33001766D01*
X84704997Y-32792297D01*
X84830960Y-32603780D01*
X84991280Y-32443460D01*
X85179797Y-32317497D01*
X85389266Y-32230732D01*
X85500451Y-32208616D01*
X85611635Y-32186500D01*
X85838365Y-32186500D01*
X85949549Y-32208616D01*
G37*
G36*
X79599549Y-29668616D02*
G01*
X79710734Y-29690732D01*
X79920203Y-29777497D01*
X80108720Y-29903460D01*
X80269040Y-30063780D01*
X80395003Y-30252297D01*
X80481768Y-30461766D01*
X80526000Y-30684136D01*
X80526000Y-30910864D01*
X80481768Y-31133234D01*
X80395003Y-31342703D01*
X80269040Y-31531220D01*
X80108720Y-31691540D01*
X79920203Y-31817503D01*
X79710734Y-31904268D01*
X79599549Y-31926384D01*
X79488365Y-31948500D01*
X79261635Y-31948500D01*
X79150451Y-31926384D01*
X79039266Y-31904268D01*
X78829797Y-31817503D01*
X78641280Y-31691540D01*
X78480960Y-31531220D01*
X78354997Y-31342703D01*
X78268232Y-31133234D01*
X78224000Y-30910864D01*
X78224000Y-30684136D01*
X78268232Y-30461766D01*
X78354997Y-30252297D01*
X78480960Y-30063780D01*
X78641280Y-29903460D01*
X78829797Y-29777497D01*
X79039266Y-29690732D01*
X79150451Y-29668616D01*
X79261635Y-29646500D01*
X79488365Y-29646500D01*
X79599549Y-29668616D01*
G37*
G36*
X98649549Y-29668616D02*
G01*
X98760734Y-29690732D01*
X98970203Y-29777497D01*
X99158720Y-29903460D01*
X99319040Y-30063780D01*
X99445003Y-30252297D01*
X99531768Y-30461766D01*
X99576000Y-30684136D01*
X99576000Y-30910864D01*
X99531768Y-31133234D01*
X99445003Y-31342703D01*
X99319040Y-31531220D01*
X99158720Y-31691540D01*
X98970203Y-31817503D01*
X98760734Y-31904268D01*
X98649549Y-31926384D01*
X98538365Y-31948500D01*
X98311635Y-31948500D01*
X98200451Y-31926384D01*
X98089266Y-31904268D01*
X97879797Y-31817503D01*
X97691280Y-31691540D01*
X97530960Y-31531220D01*
X97404997Y-31342703D01*
X97318232Y-31133234D01*
X97274000Y-30910864D01*
X97274000Y-30684136D01*
X97318232Y-30461766D01*
X97404997Y-30252297D01*
X97530960Y-30063780D01*
X97691280Y-29903460D01*
X97879797Y-29777497D01*
X98089266Y-29690732D01*
X98200451Y-29668616D01*
X98311635Y-29646500D01*
X98538365Y-29646500D01*
X98649549Y-29668616D01*
G37*
G36*
X102833254Y-26285318D02*
G01*
X103206511Y-26439926D01*
X103206513Y-26439927D01*
X103542436Y-26664384D01*
X103828116Y-26950064D01*
X104052574Y-27285989D01*
X104207182Y-27659246D01*
X104286000Y-28055493D01*
X104286000Y-28459507D01*
X104207182Y-28855754D01*
X104052574Y-29229011D01*
X104052573Y-29229013D01*
X103828116Y-29564936D01*
X103542436Y-29850616D01*
X103206513Y-30075073D01*
X103206512Y-30075074D01*
X103206511Y-30075074D01*
X102833254Y-30229682D01*
X102437007Y-30308500D01*
X102032993Y-30308500D01*
X101636746Y-30229682D01*
X101263489Y-30075074D01*
X101263488Y-30075074D01*
X101263487Y-30075073D01*
X100927564Y-29850616D01*
X100641884Y-29564936D01*
X100417427Y-29229013D01*
X100417426Y-29229011D01*
X100262818Y-28855754D01*
X100184000Y-28459507D01*
X100184000Y-28055493D01*
X100262818Y-27659246D01*
X100417426Y-27285989D01*
X100641884Y-26950064D01*
X100927564Y-26664384D01*
X101263487Y-26439927D01*
X101263489Y-26439926D01*
X101636746Y-26285318D01*
X102032993Y-26206500D01*
X102437007Y-26206500D01*
X102833254Y-26285318D01*
G37*
G36*
X83783254Y-26285318D02*
G01*
X84156511Y-26439926D01*
X84156513Y-26439927D01*
X84492436Y-26664384D01*
X84778116Y-26950064D01*
X85002574Y-27285989D01*
X85157182Y-27659246D01*
X85236000Y-28055493D01*
X85236000Y-28459507D01*
X85157182Y-28855754D01*
X85002574Y-29229011D01*
X85002573Y-29229013D01*
X84778116Y-29564936D01*
X84492436Y-29850616D01*
X84156513Y-30075073D01*
X84156512Y-30075074D01*
X84156511Y-30075074D01*
X83783254Y-30229682D01*
X83387007Y-30308500D01*
X82982993Y-30308500D01*
X82586746Y-30229682D01*
X82213489Y-30075074D01*
X82213488Y-30075074D01*
X82213487Y-30075073D01*
X81877564Y-29850616D01*
X81591884Y-29564936D01*
X81367427Y-29229013D01*
X81367426Y-29229011D01*
X81212818Y-28855754D01*
X81134000Y-28459507D01*
X81134000Y-28055493D01*
X81212818Y-27659246D01*
X81367426Y-27285989D01*
X81591884Y-26950064D01*
X81877564Y-26664384D01*
X82213487Y-26439927D01*
X82213489Y-26439926D01*
X82586746Y-26285318D01*
X82982993Y-26206500D01*
X83387007Y-26206500D01*
X83783254Y-26285318D01*
G37*
G36*
X97268512Y-27361427D02*
G01*
X97417812Y-27391124D01*
X97581784Y-27459044D01*
X97729354Y-27557647D01*
X97854853Y-27683146D01*
X97953456Y-27830716D01*
X98021376Y-27994688D01*
X98056000Y-28168759D01*
X98056000Y-28346241D01*
X98021376Y-28520312D01*
X97953456Y-28684284D01*
X97854853Y-28831854D01*
X97729354Y-28957353D01*
X97581784Y-29055956D01*
X97417812Y-29123876D01*
X97268512Y-29153573D01*
X97243742Y-29158500D01*
X97066258Y-29158500D01*
X97041488Y-29153573D01*
X96892188Y-29123876D01*
X96728216Y-29055956D01*
X96580646Y-28957353D01*
X96455147Y-28831854D01*
X96356544Y-28684284D01*
X96288624Y-28520312D01*
X96254000Y-28346241D01*
X96254000Y-28168759D01*
X96288624Y-27994688D01*
X96356544Y-27830716D01*
X96455147Y-27683146D01*
X96580646Y-27557647D01*
X96728216Y-27459044D01*
X96892188Y-27391124D01*
X97041488Y-27361427D01*
X97066258Y-27356500D01*
X97243742Y-27356500D01*
X97268512Y-27361427D01*
G37*
G36*
X107428512Y-27361427D02*
G01*
X107577812Y-27391124D01*
X107741784Y-27459044D01*
X107889354Y-27557647D01*
X108014853Y-27683146D01*
X108113456Y-27830716D01*
X108181376Y-27994688D01*
X108216000Y-28168759D01*
X108216000Y-28346241D01*
X108181376Y-28520312D01*
X108113456Y-28684284D01*
X108014853Y-28831854D01*
X107889354Y-28957353D01*
X107741784Y-29055956D01*
X107577812Y-29123876D01*
X107428512Y-29153573D01*
X107403742Y-29158500D01*
X107226258Y-29158500D01*
X107201488Y-29153573D01*
X107052188Y-29123876D01*
X106888216Y-29055956D01*
X106740646Y-28957353D01*
X106615147Y-28831854D01*
X106516544Y-28684284D01*
X106448624Y-28520312D01*
X106414000Y-28346241D01*
X106414000Y-28168759D01*
X106448624Y-27994688D01*
X106516544Y-27830716D01*
X106615147Y-27683146D01*
X106740646Y-27557647D01*
X106888216Y-27459044D01*
X107052188Y-27391124D01*
X107201488Y-27361427D01*
X107226258Y-27356500D01*
X107403742Y-27356500D01*
X107428512Y-27361427D01*
G37*
G36*
X88378512Y-27361427D02*
G01*
X88527812Y-27391124D01*
X88691784Y-27459044D01*
X88839354Y-27557647D01*
X88964853Y-27683146D01*
X89063456Y-27830716D01*
X89131376Y-27994688D01*
X89166000Y-28168759D01*
X89166000Y-28346241D01*
X89131376Y-28520312D01*
X89063456Y-28684284D01*
X88964853Y-28831854D01*
X88839354Y-28957353D01*
X88691784Y-29055956D01*
X88527812Y-29123876D01*
X88378512Y-29153573D01*
X88353742Y-29158500D01*
X88176258Y-29158500D01*
X88151488Y-29153573D01*
X88002188Y-29123876D01*
X87838216Y-29055956D01*
X87690646Y-28957353D01*
X87565147Y-28831854D01*
X87466544Y-28684284D01*
X87398624Y-28520312D01*
X87364000Y-28346241D01*
X87364000Y-28168759D01*
X87398624Y-27994688D01*
X87466544Y-27830716D01*
X87565147Y-27683146D01*
X87690646Y-27557647D01*
X87838216Y-27459044D01*
X88002188Y-27391124D01*
X88151488Y-27361427D01*
X88176258Y-27356500D01*
X88353742Y-27356500D01*
X88378512Y-27361427D01*
G37*
G36*
X78218512Y-27361427D02*
G01*
X78367812Y-27391124D01*
X78531784Y-27459044D01*
X78679354Y-27557647D01*
X78804853Y-27683146D01*
X78903456Y-27830716D01*
X78971376Y-27994688D01*
X79006000Y-28168759D01*
X79006000Y-28346241D01*
X78971376Y-28520312D01*
X78903456Y-28684284D01*
X78804853Y-28831854D01*
X78679354Y-28957353D01*
X78531784Y-29055956D01*
X78367812Y-29123876D01*
X78218512Y-29153573D01*
X78193742Y-29158500D01*
X78016258Y-29158500D01*
X77991488Y-29153573D01*
X77842188Y-29123876D01*
X77678216Y-29055956D01*
X77530646Y-28957353D01*
X77405147Y-28831854D01*
X77306544Y-28684284D01*
X77238624Y-28520312D01*
X77204000Y-28346241D01*
X77204000Y-28168759D01*
X77238624Y-27994688D01*
X77306544Y-27830716D01*
X77405147Y-27683146D01*
X77530646Y-27557647D01*
X77678216Y-27459044D01*
X77842188Y-27391124D01*
X77991488Y-27361427D01*
X78016258Y-27356500D01*
X78193742Y-27356500D01*
X78218512Y-27361427D01*
G37*
G36*
X43351627Y-22615037D02*
G01*
X43521466Y-22666557D01*
X43677991Y-22750222D01*
X43713729Y-22779552D01*
X43815186Y-22862814D01*
X43898448Y-22964271D01*
X43927778Y-23000009D01*
X44011443Y-23156534D01*
X44062963Y-23326373D01*
X44076000Y-23458742D01*
X44076000Y-24547258D01*
X44062963Y-24679627D01*
X44011443Y-24849466D01*
X43927778Y-25005991D01*
X43898448Y-25041729D01*
X43815186Y-25143186D01*
X43677989Y-25255779D01*
X43521467Y-25339442D01*
X43521465Y-25339443D01*
X43351626Y-25390963D01*
X43175000Y-25408359D01*
X42998373Y-25390963D01*
X42828534Y-25339443D01*
X42672009Y-25255778D01*
X42636271Y-25226448D01*
X42534814Y-25143186D01*
X42422221Y-25005989D01*
X42338558Y-24849467D01*
X42338557Y-24849465D01*
X42287037Y-24679626D01*
X42274000Y-24547257D01*
X42274001Y-23458742D01*
X42287038Y-23326373D01*
X42338558Y-23156534D01*
X42422223Y-23000009D01*
X42451553Y-22964271D01*
X42534815Y-22862814D01*
X42636272Y-22779552D01*
X42672010Y-22750222D01*
X42828535Y-22666557D01*
X42998374Y-22615037D01*
X43175000Y-22597641D01*
X43351627Y-22615037D01*
G37*
G36*
X50651627Y-22615037D02*
G01*
X50821466Y-22666557D01*
X50977991Y-22750222D01*
X51013729Y-22779552D01*
X51115186Y-22862814D01*
X51198448Y-22964271D01*
X51227778Y-23000009D01*
X51311443Y-23156534D01*
X51362963Y-23326373D01*
X51376000Y-23458742D01*
X51376000Y-24547258D01*
X51362963Y-24679627D01*
X51311443Y-24849466D01*
X51227778Y-25005991D01*
X51198448Y-25041729D01*
X51115186Y-25143186D01*
X50977989Y-25255779D01*
X50821467Y-25339442D01*
X50821465Y-25339443D01*
X50651626Y-25390963D01*
X50475000Y-25408359D01*
X50298373Y-25390963D01*
X50128534Y-25339443D01*
X49972009Y-25255778D01*
X49936271Y-25226448D01*
X49834814Y-25143186D01*
X49722221Y-25005989D01*
X49638558Y-24849467D01*
X49638557Y-24849465D01*
X49587037Y-24679626D01*
X49574000Y-24547257D01*
X49574001Y-23458742D01*
X49587038Y-23326373D01*
X49638558Y-23156534D01*
X49722223Y-23000009D01*
X49751553Y-22964271D01*
X49834815Y-22862814D01*
X49936272Y-22779552D01*
X49972010Y-22750222D01*
X50128535Y-22666557D01*
X50298374Y-22615037D01*
X50475000Y-22597641D01*
X50651627Y-22615037D01*
G37*
G36*
X43351627Y-18115037D02*
G01*
X43521466Y-18166557D01*
X43677991Y-18250222D01*
X43713729Y-18279552D01*
X43815186Y-18362814D01*
X43898448Y-18464271D01*
X43927778Y-18500009D01*
X44011443Y-18656534D01*
X44062963Y-18826373D01*
X44076000Y-18958742D01*
X44076000Y-20047258D01*
X44062963Y-20179627D01*
X44011443Y-20349466D01*
X43927778Y-20505991D01*
X43898448Y-20541729D01*
X43815186Y-20643186D01*
X43677989Y-20755779D01*
X43521467Y-20839442D01*
X43521465Y-20839443D01*
X43351626Y-20890963D01*
X43175000Y-20908359D01*
X42998373Y-20890963D01*
X42828534Y-20839443D01*
X42672009Y-20755778D01*
X42636271Y-20726448D01*
X42534814Y-20643186D01*
X42422221Y-20505989D01*
X42338558Y-20349467D01*
X42338557Y-20349465D01*
X42287037Y-20179626D01*
X42274000Y-20047257D01*
X42274001Y-18958742D01*
X42287038Y-18826373D01*
X42338558Y-18656534D01*
X42422223Y-18500009D01*
X42451553Y-18464271D01*
X42534815Y-18362814D01*
X42636272Y-18279552D01*
X42672010Y-18250222D01*
X42828535Y-18166557D01*
X42998374Y-18115037D01*
X43175000Y-18097641D01*
X43351627Y-18115037D01*
G37*
G36*
X50651627Y-18115037D02*
G01*
X50821466Y-18166557D01*
X50977991Y-18250222D01*
X51013729Y-18279552D01*
X51115186Y-18362814D01*
X51198448Y-18464271D01*
X51227778Y-18500009D01*
X51311443Y-18656534D01*
X51362963Y-18826373D01*
X51376000Y-18958742D01*
X51376000Y-20047258D01*
X51362963Y-20179627D01*
X51311443Y-20349466D01*
X51227778Y-20505991D01*
X51198448Y-20541729D01*
X51115186Y-20643186D01*
X50977989Y-20755779D01*
X50821467Y-20839442D01*
X50821465Y-20839443D01*
X50651626Y-20890963D01*
X50475000Y-20908359D01*
X50298373Y-20890963D01*
X50128534Y-20839443D01*
X49972009Y-20755778D01*
X49936271Y-20726448D01*
X49834814Y-20643186D01*
X49722221Y-20505989D01*
X49638558Y-20349467D01*
X49638557Y-20349465D01*
X49587037Y-20179626D01*
X49574000Y-20047257D01*
X49574001Y-18958742D01*
X49587038Y-18826373D01*
X49638558Y-18656534D01*
X49722223Y-18500009D01*
X49751553Y-18464271D01*
X49834815Y-18362814D01*
X49936272Y-18279552D01*
X49972010Y-18250222D01*
X50128535Y-18166557D01*
X50298374Y-18115037D01*
X50475000Y-18097641D01*
X50651627Y-18115037D01*
G37*
M02*
