G04 #@! TF.GenerationSoftware,KiCad,Pcbnew,(5.1.5)-3*
G04 #@! TF.CreationDate,2020-04-03T11:19:55-04:00*
G04 #@! TF.ProjectId,Claw10 PCB,436c6177-3130-4205-9043-422e6b696361,rev?*
G04 #@! TF.SameCoordinates,Original*
G04 #@! TF.FileFunction,Copper,L2,Bot*
G04 #@! TF.FilePolarity,Positive*
%FSLAX46Y46*%
G04 Gerber Fmt 4.6, Leading zero omitted, Abs format (unit mm)*
G04 Created by KiCad (PCBNEW (5.1.5)-3) date 2020-04-03 11:19:55*
%MOMM*%
%LPD*%
G04 APERTURE LIST*
%ADD10O,1.700000X2.700000*%
%ADD11R,0.500000X2.250000*%
%ADD12R,0.550000X1.500000*%
%ADD13R,1.500000X0.550000*%
%ADD14R,1.400000X1.200000*%
%ADD15R,1.100000X1.800000*%
%ADD16C,0.100000*%
%ADD17C,2.200000*%
%ADD18R,1.200000X0.900000*%
%ADD19C,0.800000*%
%ADD20C,0.381000*%
%ADD21C,0.254000*%
%ADD22C,0.025400*%
G04 APERTURE END LIST*
D10*
X43175000Y-19503000D03*
X50475000Y-19503000D03*
X50475000Y-24003000D03*
X43175000Y-24003000D03*
D11*
X45225000Y-24003000D03*
X46025000Y-24003000D03*
X46825000Y-24003000D03*
X47625000Y-24003000D03*
X48425000Y-24003000D03*
D12*
X52769000Y-52690000D03*
X53569000Y-52690000D03*
X54369000Y-52690000D03*
X55169000Y-52690000D03*
X55969000Y-52690000D03*
X56769000Y-52690000D03*
X57569000Y-52690000D03*
X58369000Y-52690000D03*
X59169000Y-52690000D03*
X59969000Y-52690000D03*
X60769000Y-52690000D03*
D13*
X62469000Y-50990000D03*
X62469000Y-50190000D03*
X62469000Y-49390000D03*
X62469000Y-48590000D03*
X62469000Y-47790000D03*
X62469000Y-46990000D03*
X62469000Y-46190000D03*
X62469000Y-45390000D03*
X62469000Y-44590000D03*
X62469000Y-43790000D03*
X62469000Y-42990000D03*
D12*
X60769000Y-41290000D03*
X59969000Y-41290000D03*
X59169000Y-41290000D03*
X58369000Y-41290000D03*
X57569000Y-41290000D03*
X56769000Y-41290000D03*
X55969000Y-41290000D03*
X55169000Y-41290000D03*
X54369000Y-41290000D03*
X53569000Y-41290000D03*
X52769000Y-41290000D03*
D13*
X51069000Y-42990000D03*
X51069000Y-43790000D03*
X51069000Y-44590000D03*
X51069000Y-45390000D03*
X51069000Y-46190000D03*
X51069000Y-46990000D03*
X51069000Y-47790000D03*
X51069000Y-48590000D03*
X51069000Y-49390000D03*
X51069000Y-50190000D03*
X51069000Y-50990000D03*
D14*
X59139000Y-30646000D03*
X56939000Y-30646000D03*
X56939000Y-32346000D03*
X59139000Y-32346000D03*
D15*
X67238000Y-43740000D03*
X70938000Y-37540000D03*
X70938000Y-43740000D03*
X67238000Y-37540000D03*
G04 #@! TA.AperFunction,SMDPad,CuDef*
D16*
G36*
X66774142Y-53313174D02*
G01*
X66797803Y-53316684D01*
X66821007Y-53322496D01*
X66843529Y-53330554D01*
X66865153Y-53340782D01*
X66885670Y-53353079D01*
X66904883Y-53367329D01*
X66922607Y-53383393D01*
X66938671Y-53401117D01*
X66952921Y-53420330D01*
X66965218Y-53440847D01*
X66975446Y-53462471D01*
X66983504Y-53484993D01*
X66989316Y-53508197D01*
X66992826Y-53531858D01*
X66994000Y-53555750D01*
X66994000Y-54043250D01*
X66992826Y-54067142D01*
X66989316Y-54090803D01*
X66983504Y-54114007D01*
X66975446Y-54136529D01*
X66965218Y-54158153D01*
X66952921Y-54178670D01*
X66938671Y-54197883D01*
X66922607Y-54215607D01*
X66904883Y-54231671D01*
X66885670Y-54245921D01*
X66865153Y-54258218D01*
X66843529Y-54268446D01*
X66821007Y-54276504D01*
X66797803Y-54282316D01*
X66774142Y-54285826D01*
X66750250Y-54287000D01*
X65837750Y-54287000D01*
X65813858Y-54285826D01*
X65790197Y-54282316D01*
X65766993Y-54276504D01*
X65744471Y-54268446D01*
X65722847Y-54258218D01*
X65702330Y-54245921D01*
X65683117Y-54231671D01*
X65665393Y-54215607D01*
X65649329Y-54197883D01*
X65635079Y-54178670D01*
X65622782Y-54158153D01*
X65612554Y-54136529D01*
X65604496Y-54114007D01*
X65598684Y-54090803D01*
X65595174Y-54067142D01*
X65594000Y-54043250D01*
X65594000Y-53555750D01*
X65595174Y-53531858D01*
X65598684Y-53508197D01*
X65604496Y-53484993D01*
X65612554Y-53462471D01*
X65622782Y-53440847D01*
X65635079Y-53420330D01*
X65649329Y-53401117D01*
X65665393Y-53383393D01*
X65683117Y-53367329D01*
X65702330Y-53353079D01*
X65722847Y-53340782D01*
X65744471Y-53330554D01*
X65766993Y-53322496D01*
X65790197Y-53316684D01*
X65813858Y-53313174D01*
X65837750Y-53312000D01*
X66750250Y-53312000D01*
X66774142Y-53313174D01*
G37*
G04 #@! TD.AperFunction*
G04 #@! TA.AperFunction,SMDPad,CuDef*
G36*
X66774142Y-55188174D02*
G01*
X66797803Y-55191684D01*
X66821007Y-55197496D01*
X66843529Y-55205554D01*
X66865153Y-55215782D01*
X66885670Y-55228079D01*
X66904883Y-55242329D01*
X66922607Y-55258393D01*
X66938671Y-55276117D01*
X66952921Y-55295330D01*
X66965218Y-55315847D01*
X66975446Y-55337471D01*
X66983504Y-55359993D01*
X66989316Y-55383197D01*
X66992826Y-55406858D01*
X66994000Y-55430750D01*
X66994000Y-55918250D01*
X66992826Y-55942142D01*
X66989316Y-55965803D01*
X66983504Y-55989007D01*
X66975446Y-56011529D01*
X66965218Y-56033153D01*
X66952921Y-56053670D01*
X66938671Y-56072883D01*
X66922607Y-56090607D01*
X66904883Y-56106671D01*
X66885670Y-56120921D01*
X66865153Y-56133218D01*
X66843529Y-56143446D01*
X66821007Y-56151504D01*
X66797803Y-56157316D01*
X66774142Y-56160826D01*
X66750250Y-56162000D01*
X65837750Y-56162000D01*
X65813858Y-56160826D01*
X65790197Y-56157316D01*
X65766993Y-56151504D01*
X65744471Y-56143446D01*
X65722847Y-56133218D01*
X65702330Y-56120921D01*
X65683117Y-56106671D01*
X65665393Y-56090607D01*
X65649329Y-56072883D01*
X65635079Y-56053670D01*
X65622782Y-56033153D01*
X65612554Y-56011529D01*
X65604496Y-55989007D01*
X65598684Y-55965803D01*
X65595174Y-55942142D01*
X65594000Y-55918250D01*
X65594000Y-55430750D01*
X65595174Y-55406858D01*
X65598684Y-55383197D01*
X65604496Y-55359993D01*
X65612554Y-55337471D01*
X65622782Y-55315847D01*
X65635079Y-55295330D01*
X65649329Y-55276117D01*
X65665393Y-55258393D01*
X65683117Y-55242329D01*
X65702330Y-55228079D01*
X65722847Y-55215782D01*
X65744471Y-55205554D01*
X65766993Y-55197496D01*
X65790197Y-55191684D01*
X65813858Y-55188174D01*
X65837750Y-55187000D01*
X66750250Y-55187000D01*
X66774142Y-55188174D01*
G37*
G04 #@! TD.AperFunction*
G04 #@! TA.AperFunction,SMDPad,CuDef*
G36*
X67282142Y-61441174D02*
G01*
X67305803Y-61444684D01*
X67329007Y-61450496D01*
X67351529Y-61458554D01*
X67373153Y-61468782D01*
X67393670Y-61481079D01*
X67412883Y-61495329D01*
X67430607Y-61511393D01*
X67446671Y-61529117D01*
X67460921Y-61548330D01*
X67473218Y-61568847D01*
X67483446Y-61590471D01*
X67491504Y-61612993D01*
X67497316Y-61636197D01*
X67500826Y-61659858D01*
X67502000Y-61683750D01*
X67502000Y-62171250D01*
X67500826Y-62195142D01*
X67497316Y-62218803D01*
X67491504Y-62242007D01*
X67483446Y-62264529D01*
X67473218Y-62286153D01*
X67460921Y-62306670D01*
X67446671Y-62325883D01*
X67430607Y-62343607D01*
X67412883Y-62359671D01*
X67393670Y-62373921D01*
X67373153Y-62386218D01*
X67351529Y-62396446D01*
X67329007Y-62404504D01*
X67305803Y-62410316D01*
X67282142Y-62413826D01*
X67258250Y-62415000D01*
X66345750Y-62415000D01*
X66321858Y-62413826D01*
X66298197Y-62410316D01*
X66274993Y-62404504D01*
X66252471Y-62396446D01*
X66230847Y-62386218D01*
X66210330Y-62373921D01*
X66191117Y-62359671D01*
X66173393Y-62343607D01*
X66157329Y-62325883D01*
X66143079Y-62306670D01*
X66130782Y-62286153D01*
X66120554Y-62264529D01*
X66112496Y-62242007D01*
X66106684Y-62218803D01*
X66103174Y-62195142D01*
X66102000Y-62171250D01*
X66102000Y-61683750D01*
X66103174Y-61659858D01*
X66106684Y-61636197D01*
X66112496Y-61612993D01*
X66120554Y-61590471D01*
X66130782Y-61568847D01*
X66143079Y-61548330D01*
X66157329Y-61529117D01*
X66173393Y-61511393D01*
X66191117Y-61495329D01*
X66210330Y-61481079D01*
X66230847Y-61468782D01*
X66252471Y-61458554D01*
X66274993Y-61450496D01*
X66298197Y-61444684D01*
X66321858Y-61441174D01*
X66345750Y-61440000D01*
X67258250Y-61440000D01*
X67282142Y-61441174D01*
G37*
G04 #@! TD.AperFunction*
G04 #@! TA.AperFunction,SMDPad,CuDef*
G36*
X67282142Y-63316174D02*
G01*
X67305803Y-63319684D01*
X67329007Y-63325496D01*
X67351529Y-63333554D01*
X67373153Y-63343782D01*
X67393670Y-63356079D01*
X67412883Y-63370329D01*
X67430607Y-63386393D01*
X67446671Y-63404117D01*
X67460921Y-63423330D01*
X67473218Y-63443847D01*
X67483446Y-63465471D01*
X67491504Y-63487993D01*
X67497316Y-63511197D01*
X67500826Y-63534858D01*
X67502000Y-63558750D01*
X67502000Y-64046250D01*
X67500826Y-64070142D01*
X67497316Y-64093803D01*
X67491504Y-64117007D01*
X67483446Y-64139529D01*
X67473218Y-64161153D01*
X67460921Y-64181670D01*
X67446671Y-64200883D01*
X67430607Y-64218607D01*
X67412883Y-64234671D01*
X67393670Y-64248921D01*
X67373153Y-64261218D01*
X67351529Y-64271446D01*
X67329007Y-64279504D01*
X67305803Y-64285316D01*
X67282142Y-64288826D01*
X67258250Y-64290000D01*
X66345750Y-64290000D01*
X66321858Y-64288826D01*
X66298197Y-64285316D01*
X66274993Y-64279504D01*
X66252471Y-64271446D01*
X66230847Y-64261218D01*
X66210330Y-64248921D01*
X66191117Y-64234671D01*
X66173393Y-64218607D01*
X66157329Y-64200883D01*
X66143079Y-64181670D01*
X66130782Y-64161153D01*
X66120554Y-64139529D01*
X66112496Y-64117007D01*
X66106684Y-64093803D01*
X66103174Y-64070142D01*
X66102000Y-64046250D01*
X66102000Y-63558750D01*
X66103174Y-63534858D01*
X66106684Y-63511197D01*
X66112496Y-63487993D01*
X66120554Y-63465471D01*
X66130782Y-63443847D01*
X66143079Y-63423330D01*
X66157329Y-63404117D01*
X66173393Y-63386393D01*
X66191117Y-63370329D01*
X66210330Y-63356079D01*
X66230847Y-63343782D01*
X66252471Y-63333554D01*
X66274993Y-63325496D01*
X66298197Y-63319684D01*
X66321858Y-63316174D01*
X66345750Y-63315000D01*
X67258250Y-63315000D01*
X67282142Y-63316174D01*
G37*
G04 #@! TD.AperFunction*
G04 #@! TA.AperFunction,SMDPad,CuDef*
G36*
X47978142Y-31263674D02*
G01*
X48001803Y-31267184D01*
X48025007Y-31272996D01*
X48047529Y-31281054D01*
X48069153Y-31291282D01*
X48089670Y-31303579D01*
X48108883Y-31317829D01*
X48126607Y-31333893D01*
X48142671Y-31351617D01*
X48156921Y-31370830D01*
X48169218Y-31391347D01*
X48179446Y-31412971D01*
X48187504Y-31435493D01*
X48193316Y-31458697D01*
X48196826Y-31482358D01*
X48198000Y-31506250D01*
X48198000Y-31993750D01*
X48196826Y-32017642D01*
X48193316Y-32041303D01*
X48187504Y-32064507D01*
X48179446Y-32087029D01*
X48169218Y-32108653D01*
X48156921Y-32129170D01*
X48142671Y-32148383D01*
X48126607Y-32166107D01*
X48108883Y-32182171D01*
X48089670Y-32196421D01*
X48069153Y-32208718D01*
X48047529Y-32218946D01*
X48025007Y-32227004D01*
X48001803Y-32232816D01*
X47978142Y-32236326D01*
X47954250Y-32237500D01*
X47041750Y-32237500D01*
X47017858Y-32236326D01*
X46994197Y-32232816D01*
X46970993Y-32227004D01*
X46948471Y-32218946D01*
X46926847Y-32208718D01*
X46906330Y-32196421D01*
X46887117Y-32182171D01*
X46869393Y-32166107D01*
X46853329Y-32148383D01*
X46839079Y-32129170D01*
X46826782Y-32108653D01*
X46816554Y-32087029D01*
X46808496Y-32064507D01*
X46802684Y-32041303D01*
X46799174Y-32017642D01*
X46798000Y-31993750D01*
X46798000Y-31506250D01*
X46799174Y-31482358D01*
X46802684Y-31458697D01*
X46808496Y-31435493D01*
X46816554Y-31412971D01*
X46826782Y-31391347D01*
X46839079Y-31370830D01*
X46853329Y-31351617D01*
X46869393Y-31333893D01*
X46887117Y-31317829D01*
X46906330Y-31303579D01*
X46926847Y-31291282D01*
X46948471Y-31281054D01*
X46970993Y-31272996D01*
X46994197Y-31267184D01*
X47017858Y-31263674D01*
X47041750Y-31262500D01*
X47954250Y-31262500D01*
X47978142Y-31263674D01*
G37*
G04 #@! TD.AperFunction*
G04 #@! TA.AperFunction,SMDPad,CuDef*
G36*
X47978142Y-33138674D02*
G01*
X48001803Y-33142184D01*
X48025007Y-33147996D01*
X48047529Y-33156054D01*
X48069153Y-33166282D01*
X48089670Y-33178579D01*
X48108883Y-33192829D01*
X48126607Y-33208893D01*
X48142671Y-33226617D01*
X48156921Y-33245830D01*
X48169218Y-33266347D01*
X48179446Y-33287971D01*
X48187504Y-33310493D01*
X48193316Y-33333697D01*
X48196826Y-33357358D01*
X48198000Y-33381250D01*
X48198000Y-33868750D01*
X48196826Y-33892642D01*
X48193316Y-33916303D01*
X48187504Y-33939507D01*
X48179446Y-33962029D01*
X48169218Y-33983653D01*
X48156921Y-34004170D01*
X48142671Y-34023383D01*
X48126607Y-34041107D01*
X48108883Y-34057171D01*
X48089670Y-34071421D01*
X48069153Y-34083718D01*
X48047529Y-34093946D01*
X48025007Y-34102004D01*
X48001803Y-34107816D01*
X47978142Y-34111326D01*
X47954250Y-34112500D01*
X47041750Y-34112500D01*
X47017858Y-34111326D01*
X46994197Y-34107816D01*
X46970993Y-34102004D01*
X46948471Y-34093946D01*
X46926847Y-34083718D01*
X46906330Y-34071421D01*
X46887117Y-34057171D01*
X46869393Y-34041107D01*
X46853329Y-34023383D01*
X46839079Y-34004170D01*
X46826782Y-33983653D01*
X46816554Y-33962029D01*
X46808496Y-33939507D01*
X46802684Y-33916303D01*
X46799174Y-33892642D01*
X46798000Y-33868750D01*
X46798000Y-33381250D01*
X46799174Y-33357358D01*
X46802684Y-33333697D01*
X46808496Y-33310493D01*
X46816554Y-33287971D01*
X46826782Y-33266347D01*
X46839079Y-33245830D01*
X46853329Y-33226617D01*
X46869393Y-33208893D01*
X46887117Y-33192829D01*
X46906330Y-33178579D01*
X46926847Y-33166282D01*
X46948471Y-33156054D01*
X46970993Y-33147996D01*
X46994197Y-33142184D01*
X47017858Y-33138674D01*
X47041750Y-33137500D01*
X47954250Y-33137500D01*
X47978142Y-33138674D01*
G37*
G04 #@! TD.AperFunction*
G04 #@! TA.AperFunction,SMDPad,CuDef*
G36*
X45946142Y-31215174D02*
G01*
X45969803Y-31218684D01*
X45993007Y-31224496D01*
X46015529Y-31232554D01*
X46037153Y-31242782D01*
X46057670Y-31255079D01*
X46076883Y-31269329D01*
X46094607Y-31285393D01*
X46110671Y-31303117D01*
X46124921Y-31322330D01*
X46137218Y-31342847D01*
X46147446Y-31364471D01*
X46155504Y-31386993D01*
X46161316Y-31410197D01*
X46164826Y-31433858D01*
X46166000Y-31457750D01*
X46166000Y-31945250D01*
X46164826Y-31969142D01*
X46161316Y-31992803D01*
X46155504Y-32016007D01*
X46147446Y-32038529D01*
X46137218Y-32060153D01*
X46124921Y-32080670D01*
X46110671Y-32099883D01*
X46094607Y-32117607D01*
X46076883Y-32133671D01*
X46057670Y-32147921D01*
X46037153Y-32160218D01*
X46015529Y-32170446D01*
X45993007Y-32178504D01*
X45969803Y-32184316D01*
X45946142Y-32187826D01*
X45922250Y-32189000D01*
X45009750Y-32189000D01*
X44985858Y-32187826D01*
X44962197Y-32184316D01*
X44938993Y-32178504D01*
X44916471Y-32170446D01*
X44894847Y-32160218D01*
X44874330Y-32147921D01*
X44855117Y-32133671D01*
X44837393Y-32117607D01*
X44821329Y-32099883D01*
X44807079Y-32080670D01*
X44794782Y-32060153D01*
X44784554Y-32038529D01*
X44776496Y-32016007D01*
X44770684Y-31992803D01*
X44767174Y-31969142D01*
X44766000Y-31945250D01*
X44766000Y-31457750D01*
X44767174Y-31433858D01*
X44770684Y-31410197D01*
X44776496Y-31386993D01*
X44784554Y-31364471D01*
X44794782Y-31342847D01*
X44807079Y-31322330D01*
X44821329Y-31303117D01*
X44837393Y-31285393D01*
X44855117Y-31269329D01*
X44874330Y-31255079D01*
X44894847Y-31242782D01*
X44916471Y-31232554D01*
X44938993Y-31224496D01*
X44962197Y-31218684D01*
X44985858Y-31215174D01*
X45009750Y-31214000D01*
X45922250Y-31214000D01*
X45946142Y-31215174D01*
G37*
G04 #@! TD.AperFunction*
G04 #@! TA.AperFunction,SMDPad,CuDef*
G36*
X45946142Y-33090174D02*
G01*
X45969803Y-33093684D01*
X45993007Y-33099496D01*
X46015529Y-33107554D01*
X46037153Y-33117782D01*
X46057670Y-33130079D01*
X46076883Y-33144329D01*
X46094607Y-33160393D01*
X46110671Y-33178117D01*
X46124921Y-33197330D01*
X46137218Y-33217847D01*
X46147446Y-33239471D01*
X46155504Y-33261993D01*
X46161316Y-33285197D01*
X46164826Y-33308858D01*
X46166000Y-33332750D01*
X46166000Y-33820250D01*
X46164826Y-33844142D01*
X46161316Y-33867803D01*
X46155504Y-33891007D01*
X46147446Y-33913529D01*
X46137218Y-33935153D01*
X46124921Y-33955670D01*
X46110671Y-33974883D01*
X46094607Y-33992607D01*
X46076883Y-34008671D01*
X46057670Y-34022921D01*
X46037153Y-34035218D01*
X46015529Y-34045446D01*
X45993007Y-34053504D01*
X45969803Y-34059316D01*
X45946142Y-34062826D01*
X45922250Y-34064000D01*
X45009750Y-34064000D01*
X44985858Y-34062826D01*
X44962197Y-34059316D01*
X44938993Y-34053504D01*
X44916471Y-34045446D01*
X44894847Y-34035218D01*
X44874330Y-34022921D01*
X44855117Y-34008671D01*
X44837393Y-33992607D01*
X44821329Y-33974883D01*
X44807079Y-33955670D01*
X44794782Y-33935153D01*
X44784554Y-33913529D01*
X44776496Y-33891007D01*
X44770684Y-33867803D01*
X44767174Y-33844142D01*
X44766000Y-33820250D01*
X44766000Y-33332750D01*
X44767174Y-33308858D01*
X44770684Y-33285197D01*
X44776496Y-33261993D01*
X44784554Y-33239471D01*
X44794782Y-33217847D01*
X44807079Y-33197330D01*
X44821329Y-33178117D01*
X44837393Y-33160393D01*
X44855117Y-33144329D01*
X44874330Y-33130079D01*
X44894847Y-33117782D01*
X44916471Y-33107554D01*
X44938993Y-33099496D01*
X44962197Y-33093684D01*
X44985858Y-33090174D01*
X45009750Y-33089000D01*
X45922250Y-33089000D01*
X45946142Y-33090174D01*
G37*
G04 #@! TD.AperFunction*
D17*
X98425000Y-49847500D03*
X104775000Y-52387500D03*
X79375000Y-49847500D03*
X85725000Y-52387500D03*
X98425000Y-30797500D03*
X104775000Y-33337500D03*
X79375000Y-30797500D03*
X85725000Y-33337500D03*
G04 #@! TA.AperFunction,SMDPad,CuDef*
D16*
G36*
X43956504Y-30739204D02*
G01*
X43980773Y-30742804D01*
X44004571Y-30748765D01*
X44027671Y-30757030D01*
X44049849Y-30767520D01*
X44070893Y-30780133D01*
X44090598Y-30794747D01*
X44108777Y-30811223D01*
X44125253Y-30829402D01*
X44139867Y-30849107D01*
X44152480Y-30870151D01*
X44162970Y-30892329D01*
X44171235Y-30915429D01*
X44177196Y-30939227D01*
X44180796Y-30963496D01*
X44182000Y-30988000D01*
X44182000Y-31738000D01*
X44180796Y-31762504D01*
X44177196Y-31786773D01*
X44171235Y-31810571D01*
X44162970Y-31833671D01*
X44152480Y-31855849D01*
X44139867Y-31876893D01*
X44125253Y-31896598D01*
X44108777Y-31914777D01*
X44090598Y-31931253D01*
X44070893Y-31945867D01*
X44049849Y-31958480D01*
X44027671Y-31968970D01*
X44004571Y-31977235D01*
X43980773Y-31983196D01*
X43956504Y-31986796D01*
X43932000Y-31988000D01*
X42682000Y-31988000D01*
X42657496Y-31986796D01*
X42633227Y-31983196D01*
X42609429Y-31977235D01*
X42586329Y-31968970D01*
X42564151Y-31958480D01*
X42543107Y-31945867D01*
X42523402Y-31931253D01*
X42505223Y-31914777D01*
X42488747Y-31896598D01*
X42474133Y-31876893D01*
X42461520Y-31855849D01*
X42451030Y-31833671D01*
X42442765Y-31810571D01*
X42436804Y-31786773D01*
X42433204Y-31762504D01*
X42432000Y-31738000D01*
X42432000Y-30988000D01*
X42433204Y-30963496D01*
X42436804Y-30939227D01*
X42442765Y-30915429D01*
X42451030Y-30892329D01*
X42461520Y-30870151D01*
X42474133Y-30849107D01*
X42488747Y-30829402D01*
X42505223Y-30811223D01*
X42523402Y-30794747D01*
X42543107Y-30780133D01*
X42564151Y-30767520D01*
X42586329Y-30757030D01*
X42609429Y-30748765D01*
X42633227Y-30742804D01*
X42657496Y-30739204D01*
X42682000Y-30738000D01*
X43932000Y-30738000D01*
X43956504Y-30739204D01*
G37*
G04 #@! TD.AperFunction*
G04 #@! TA.AperFunction,SMDPad,CuDef*
G36*
X43956504Y-33539204D02*
G01*
X43980773Y-33542804D01*
X44004571Y-33548765D01*
X44027671Y-33557030D01*
X44049849Y-33567520D01*
X44070893Y-33580133D01*
X44090598Y-33594747D01*
X44108777Y-33611223D01*
X44125253Y-33629402D01*
X44139867Y-33649107D01*
X44152480Y-33670151D01*
X44162970Y-33692329D01*
X44171235Y-33715429D01*
X44177196Y-33739227D01*
X44180796Y-33763496D01*
X44182000Y-33788000D01*
X44182000Y-34538000D01*
X44180796Y-34562504D01*
X44177196Y-34586773D01*
X44171235Y-34610571D01*
X44162970Y-34633671D01*
X44152480Y-34655849D01*
X44139867Y-34676893D01*
X44125253Y-34696598D01*
X44108777Y-34714777D01*
X44090598Y-34731253D01*
X44070893Y-34745867D01*
X44049849Y-34758480D01*
X44027671Y-34768970D01*
X44004571Y-34777235D01*
X43980773Y-34783196D01*
X43956504Y-34786796D01*
X43932000Y-34788000D01*
X42682000Y-34788000D01*
X42657496Y-34786796D01*
X42633227Y-34783196D01*
X42609429Y-34777235D01*
X42586329Y-34768970D01*
X42564151Y-34758480D01*
X42543107Y-34745867D01*
X42523402Y-34731253D01*
X42505223Y-34714777D01*
X42488747Y-34696598D01*
X42474133Y-34676893D01*
X42461520Y-34655849D01*
X42451030Y-34633671D01*
X42442765Y-34610571D01*
X42436804Y-34586773D01*
X42433204Y-34562504D01*
X42432000Y-34538000D01*
X42432000Y-33788000D01*
X42433204Y-33763496D01*
X42436804Y-33739227D01*
X42442765Y-33715429D01*
X42451030Y-33692329D01*
X42461520Y-33670151D01*
X42474133Y-33649107D01*
X42488747Y-33629402D01*
X42505223Y-33611223D01*
X42523402Y-33594747D01*
X42543107Y-33580133D01*
X42564151Y-33567520D01*
X42586329Y-33557030D01*
X42609429Y-33548765D01*
X42633227Y-33542804D01*
X42657496Y-33539204D01*
X42682000Y-33538000D01*
X43932000Y-33538000D01*
X43956504Y-33539204D01*
G37*
G04 #@! TD.AperFunction*
D18*
X110331250Y-49275000D03*
X110331250Y-45975000D03*
X91281250Y-49275000D03*
X91281250Y-45975000D03*
X110331250Y-26925000D03*
X110331250Y-30225000D03*
X91281250Y-26925000D03*
X91281250Y-30225000D03*
G04 #@! TA.AperFunction,SMDPad,CuDef*
D16*
G36*
X54074142Y-62330174D02*
G01*
X54097803Y-62333684D01*
X54121007Y-62339496D01*
X54143529Y-62347554D01*
X54165153Y-62357782D01*
X54185670Y-62370079D01*
X54204883Y-62384329D01*
X54222607Y-62400393D01*
X54238671Y-62418117D01*
X54252921Y-62437330D01*
X54265218Y-62457847D01*
X54275446Y-62479471D01*
X54283504Y-62501993D01*
X54289316Y-62525197D01*
X54292826Y-62548858D01*
X54294000Y-62572750D01*
X54294000Y-63060250D01*
X54292826Y-63084142D01*
X54289316Y-63107803D01*
X54283504Y-63131007D01*
X54275446Y-63153529D01*
X54265218Y-63175153D01*
X54252921Y-63195670D01*
X54238671Y-63214883D01*
X54222607Y-63232607D01*
X54204883Y-63248671D01*
X54185670Y-63262921D01*
X54165153Y-63275218D01*
X54143529Y-63285446D01*
X54121007Y-63293504D01*
X54097803Y-63299316D01*
X54074142Y-63302826D01*
X54050250Y-63304000D01*
X53137750Y-63304000D01*
X53113858Y-63302826D01*
X53090197Y-63299316D01*
X53066993Y-63293504D01*
X53044471Y-63285446D01*
X53022847Y-63275218D01*
X53002330Y-63262921D01*
X52983117Y-63248671D01*
X52965393Y-63232607D01*
X52949329Y-63214883D01*
X52935079Y-63195670D01*
X52922782Y-63175153D01*
X52912554Y-63153529D01*
X52904496Y-63131007D01*
X52898684Y-63107803D01*
X52895174Y-63084142D01*
X52894000Y-63060250D01*
X52894000Y-62572750D01*
X52895174Y-62548858D01*
X52898684Y-62525197D01*
X52904496Y-62501993D01*
X52912554Y-62479471D01*
X52922782Y-62457847D01*
X52935079Y-62437330D01*
X52949329Y-62418117D01*
X52965393Y-62400393D01*
X52983117Y-62384329D01*
X53002330Y-62370079D01*
X53022847Y-62357782D01*
X53044471Y-62347554D01*
X53066993Y-62339496D01*
X53090197Y-62333684D01*
X53113858Y-62330174D01*
X53137750Y-62329000D01*
X54050250Y-62329000D01*
X54074142Y-62330174D01*
G37*
G04 #@! TD.AperFunction*
G04 #@! TA.AperFunction,SMDPad,CuDef*
G36*
X54074142Y-64205174D02*
G01*
X54097803Y-64208684D01*
X54121007Y-64214496D01*
X54143529Y-64222554D01*
X54165153Y-64232782D01*
X54185670Y-64245079D01*
X54204883Y-64259329D01*
X54222607Y-64275393D01*
X54238671Y-64293117D01*
X54252921Y-64312330D01*
X54265218Y-64332847D01*
X54275446Y-64354471D01*
X54283504Y-64376993D01*
X54289316Y-64400197D01*
X54292826Y-64423858D01*
X54294000Y-64447750D01*
X54294000Y-64935250D01*
X54292826Y-64959142D01*
X54289316Y-64982803D01*
X54283504Y-65006007D01*
X54275446Y-65028529D01*
X54265218Y-65050153D01*
X54252921Y-65070670D01*
X54238671Y-65089883D01*
X54222607Y-65107607D01*
X54204883Y-65123671D01*
X54185670Y-65137921D01*
X54165153Y-65150218D01*
X54143529Y-65160446D01*
X54121007Y-65168504D01*
X54097803Y-65174316D01*
X54074142Y-65177826D01*
X54050250Y-65179000D01*
X53137750Y-65179000D01*
X53113858Y-65177826D01*
X53090197Y-65174316D01*
X53066993Y-65168504D01*
X53044471Y-65160446D01*
X53022847Y-65150218D01*
X53002330Y-65137921D01*
X52983117Y-65123671D01*
X52965393Y-65107607D01*
X52949329Y-65089883D01*
X52935079Y-65070670D01*
X52922782Y-65050153D01*
X52912554Y-65028529D01*
X52904496Y-65006007D01*
X52898684Y-64982803D01*
X52895174Y-64959142D01*
X52894000Y-64935250D01*
X52894000Y-64447750D01*
X52895174Y-64423858D01*
X52898684Y-64400197D01*
X52904496Y-64376993D01*
X52912554Y-64354471D01*
X52922782Y-64332847D01*
X52935079Y-64312330D01*
X52949329Y-64293117D01*
X52965393Y-64275393D01*
X52983117Y-64259329D01*
X53002330Y-64245079D01*
X53022847Y-64232782D01*
X53044471Y-64222554D01*
X53066993Y-64214496D01*
X53090197Y-64208684D01*
X53113858Y-64205174D01*
X53137750Y-64204000D01*
X54050250Y-64204000D01*
X54074142Y-64205174D01*
G37*
G04 #@! TD.AperFunction*
G04 #@! TA.AperFunction,SMDPad,CuDef*
G36*
X44041142Y-46854674D02*
G01*
X44064803Y-46858184D01*
X44088007Y-46863996D01*
X44110529Y-46872054D01*
X44132153Y-46882282D01*
X44152670Y-46894579D01*
X44171883Y-46908829D01*
X44189607Y-46924893D01*
X44205671Y-46942617D01*
X44219921Y-46961830D01*
X44232218Y-46982347D01*
X44242446Y-47003971D01*
X44250504Y-47026493D01*
X44256316Y-47049697D01*
X44259826Y-47073358D01*
X44261000Y-47097250D01*
X44261000Y-47584750D01*
X44259826Y-47608642D01*
X44256316Y-47632303D01*
X44250504Y-47655507D01*
X44242446Y-47678029D01*
X44232218Y-47699653D01*
X44219921Y-47720170D01*
X44205671Y-47739383D01*
X44189607Y-47757107D01*
X44171883Y-47773171D01*
X44152670Y-47787421D01*
X44132153Y-47799718D01*
X44110529Y-47809946D01*
X44088007Y-47818004D01*
X44064803Y-47823816D01*
X44041142Y-47827326D01*
X44017250Y-47828500D01*
X43104750Y-47828500D01*
X43080858Y-47827326D01*
X43057197Y-47823816D01*
X43033993Y-47818004D01*
X43011471Y-47809946D01*
X42989847Y-47799718D01*
X42969330Y-47787421D01*
X42950117Y-47773171D01*
X42932393Y-47757107D01*
X42916329Y-47739383D01*
X42902079Y-47720170D01*
X42889782Y-47699653D01*
X42879554Y-47678029D01*
X42871496Y-47655507D01*
X42865684Y-47632303D01*
X42862174Y-47608642D01*
X42861000Y-47584750D01*
X42861000Y-47097250D01*
X42862174Y-47073358D01*
X42865684Y-47049697D01*
X42871496Y-47026493D01*
X42879554Y-47003971D01*
X42889782Y-46982347D01*
X42902079Y-46961830D01*
X42916329Y-46942617D01*
X42932393Y-46924893D01*
X42950117Y-46908829D01*
X42969330Y-46894579D01*
X42989847Y-46882282D01*
X43011471Y-46872054D01*
X43033993Y-46863996D01*
X43057197Y-46858184D01*
X43080858Y-46854674D01*
X43104750Y-46853500D01*
X44017250Y-46853500D01*
X44041142Y-46854674D01*
G37*
G04 #@! TD.AperFunction*
G04 #@! TA.AperFunction,SMDPad,CuDef*
G36*
X44041142Y-44979674D02*
G01*
X44064803Y-44983184D01*
X44088007Y-44988996D01*
X44110529Y-44997054D01*
X44132153Y-45007282D01*
X44152670Y-45019579D01*
X44171883Y-45033829D01*
X44189607Y-45049893D01*
X44205671Y-45067617D01*
X44219921Y-45086830D01*
X44232218Y-45107347D01*
X44242446Y-45128971D01*
X44250504Y-45151493D01*
X44256316Y-45174697D01*
X44259826Y-45198358D01*
X44261000Y-45222250D01*
X44261000Y-45709750D01*
X44259826Y-45733642D01*
X44256316Y-45757303D01*
X44250504Y-45780507D01*
X44242446Y-45803029D01*
X44232218Y-45824653D01*
X44219921Y-45845170D01*
X44205671Y-45864383D01*
X44189607Y-45882107D01*
X44171883Y-45898171D01*
X44152670Y-45912421D01*
X44132153Y-45924718D01*
X44110529Y-45934946D01*
X44088007Y-45943004D01*
X44064803Y-45948816D01*
X44041142Y-45952326D01*
X44017250Y-45953500D01*
X43104750Y-45953500D01*
X43080858Y-45952326D01*
X43057197Y-45948816D01*
X43033993Y-45943004D01*
X43011471Y-45934946D01*
X42989847Y-45924718D01*
X42969330Y-45912421D01*
X42950117Y-45898171D01*
X42932393Y-45882107D01*
X42916329Y-45864383D01*
X42902079Y-45845170D01*
X42889782Y-45824653D01*
X42879554Y-45803029D01*
X42871496Y-45780507D01*
X42865684Y-45757303D01*
X42862174Y-45733642D01*
X42861000Y-45709750D01*
X42861000Y-45222250D01*
X42862174Y-45198358D01*
X42865684Y-45174697D01*
X42871496Y-45151493D01*
X42879554Y-45128971D01*
X42889782Y-45107347D01*
X42902079Y-45086830D01*
X42916329Y-45067617D01*
X42932393Y-45049893D01*
X42950117Y-45033829D01*
X42969330Y-45019579D01*
X42989847Y-45007282D01*
X43011471Y-44997054D01*
X43033993Y-44988996D01*
X43057197Y-44983184D01*
X43080858Y-44979674D01*
X43104750Y-44978500D01*
X44017250Y-44978500D01*
X44041142Y-44979674D01*
G37*
G04 #@! TD.AperFunction*
G04 #@! TA.AperFunction,SMDPad,CuDef*
G36*
X43955642Y-40830174D02*
G01*
X43979303Y-40833684D01*
X44002507Y-40839496D01*
X44025029Y-40847554D01*
X44046653Y-40857782D01*
X44067170Y-40870079D01*
X44086383Y-40884329D01*
X44104107Y-40900393D01*
X44120171Y-40918117D01*
X44134421Y-40937330D01*
X44146718Y-40957847D01*
X44156946Y-40979471D01*
X44165004Y-41001993D01*
X44170816Y-41025197D01*
X44174326Y-41048858D01*
X44175500Y-41072750D01*
X44175500Y-41985250D01*
X44174326Y-42009142D01*
X44170816Y-42032803D01*
X44165004Y-42056007D01*
X44156946Y-42078529D01*
X44146718Y-42100153D01*
X44134421Y-42120670D01*
X44120171Y-42139883D01*
X44104107Y-42157607D01*
X44086383Y-42173671D01*
X44067170Y-42187921D01*
X44046653Y-42200218D01*
X44025029Y-42210446D01*
X44002507Y-42218504D01*
X43979303Y-42224316D01*
X43955642Y-42227826D01*
X43931750Y-42229000D01*
X43444250Y-42229000D01*
X43420358Y-42227826D01*
X43396697Y-42224316D01*
X43373493Y-42218504D01*
X43350971Y-42210446D01*
X43329347Y-42200218D01*
X43308830Y-42187921D01*
X43289617Y-42173671D01*
X43271893Y-42157607D01*
X43255829Y-42139883D01*
X43241579Y-42120670D01*
X43229282Y-42100153D01*
X43219054Y-42078529D01*
X43210996Y-42056007D01*
X43205184Y-42032803D01*
X43201674Y-42009142D01*
X43200500Y-41985250D01*
X43200500Y-41072750D01*
X43201674Y-41048858D01*
X43205184Y-41025197D01*
X43210996Y-41001993D01*
X43219054Y-40979471D01*
X43229282Y-40957847D01*
X43241579Y-40937330D01*
X43255829Y-40918117D01*
X43271893Y-40900393D01*
X43289617Y-40884329D01*
X43308830Y-40870079D01*
X43329347Y-40857782D01*
X43350971Y-40847554D01*
X43373493Y-40839496D01*
X43396697Y-40833684D01*
X43420358Y-40830174D01*
X43444250Y-40829000D01*
X43931750Y-40829000D01*
X43955642Y-40830174D01*
G37*
G04 #@! TD.AperFunction*
G04 #@! TA.AperFunction,SMDPad,CuDef*
G36*
X45830642Y-40830174D02*
G01*
X45854303Y-40833684D01*
X45877507Y-40839496D01*
X45900029Y-40847554D01*
X45921653Y-40857782D01*
X45942170Y-40870079D01*
X45961383Y-40884329D01*
X45979107Y-40900393D01*
X45995171Y-40918117D01*
X46009421Y-40937330D01*
X46021718Y-40957847D01*
X46031946Y-40979471D01*
X46040004Y-41001993D01*
X46045816Y-41025197D01*
X46049326Y-41048858D01*
X46050500Y-41072750D01*
X46050500Y-41985250D01*
X46049326Y-42009142D01*
X46045816Y-42032803D01*
X46040004Y-42056007D01*
X46031946Y-42078529D01*
X46021718Y-42100153D01*
X46009421Y-42120670D01*
X45995171Y-42139883D01*
X45979107Y-42157607D01*
X45961383Y-42173671D01*
X45942170Y-42187921D01*
X45921653Y-42200218D01*
X45900029Y-42210446D01*
X45877507Y-42218504D01*
X45854303Y-42224316D01*
X45830642Y-42227826D01*
X45806750Y-42229000D01*
X45319250Y-42229000D01*
X45295358Y-42227826D01*
X45271697Y-42224316D01*
X45248493Y-42218504D01*
X45225971Y-42210446D01*
X45204347Y-42200218D01*
X45183830Y-42187921D01*
X45164617Y-42173671D01*
X45146893Y-42157607D01*
X45130829Y-42139883D01*
X45116579Y-42120670D01*
X45104282Y-42100153D01*
X45094054Y-42078529D01*
X45085996Y-42056007D01*
X45080184Y-42032803D01*
X45076674Y-42009142D01*
X45075500Y-41985250D01*
X45075500Y-41072750D01*
X45076674Y-41048858D01*
X45080184Y-41025197D01*
X45085996Y-41001993D01*
X45094054Y-40979471D01*
X45104282Y-40957847D01*
X45116579Y-40937330D01*
X45130829Y-40918117D01*
X45146893Y-40900393D01*
X45164617Y-40884329D01*
X45183830Y-40870079D01*
X45204347Y-40857782D01*
X45225971Y-40847554D01*
X45248493Y-40839496D01*
X45271697Y-40833684D01*
X45295358Y-40830174D01*
X45319250Y-40829000D01*
X45806750Y-40829000D01*
X45830642Y-40830174D01*
G37*
G04 #@! TD.AperFunction*
G04 #@! TA.AperFunction,SMDPad,CuDef*
G36*
X62329142Y-62330174D02*
G01*
X62352803Y-62333684D01*
X62376007Y-62339496D01*
X62398529Y-62347554D01*
X62420153Y-62357782D01*
X62440670Y-62370079D01*
X62459883Y-62384329D01*
X62477607Y-62400393D01*
X62493671Y-62418117D01*
X62507921Y-62437330D01*
X62520218Y-62457847D01*
X62530446Y-62479471D01*
X62538504Y-62501993D01*
X62544316Y-62525197D01*
X62547826Y-62548858D01*
X62549000Y-62572750D01*
X62549000Y-63060250D01*
X62547826Y-63084142D01*
X62544316Y-63107803D01*
X62538504Y-63131007D01*
X62530446Y-63153529D01*
X62520218Y-63175153D01*
X62507921Y-63195670D01*
X62493671Y-63214883D01*
X62477607Y-63232607D01*
X62459883Y-63248671D01*
X62440670Y-63262921D01*
X62420153Y-63275218D01*
X62398529Y-63285446D01*
X62376007Y-63293504D01*
X62352803Y-63299316D01*
X62329142Y-63302826D01*
X62305250Y-63304000D01*
X61392750Y-63304000D01*
X61368858Y-63302826D01*
X61345197Y-63299316D01*
X61321993Y-63293504D01*
X61299471Y-63285446D01*
X61277847Y-63275218D01*
X61257330Y-63262921D01*
X61238117Y-63248671D01*
X61220393Y-63232607D01*
X61204329Y-63214883D01*
X61190079Y-63195670D01*
X61177782Y-63175153D01*
X61167554Y-63153529D01*
X61159496Y-63131007D01*
X61153684Y-63107803D01*
X61150174Y-63084142D01*
X61149000Y-63060250D01*
X61149000Y-62572750D01*
X61150174Y-62548858D01*
X61153684Y-62525197D01*
X61159496Y-62501993D01*
X61167554Y-62479471D01*
X61177782Y-62457847D01*
X61190079Y-62437330D01*
X61204329Y-62418117D01*
X61220393Y-62400393D01*
X61238117Y-62384329D01*
X61257330Y-62370079D01*
X61277847Y-62357782D01*
X61299471Y-62347554D01*
X61321993Y-62339496D01*
X61345197Y-62333684D01*
X61368858Y-62330174D01*
X61392750Y-62329000D01*
X62305250Y-62329000D01*
X62329142Y-62330174D01*
G37*
G04 #@! TD.AperFunction*
G04 #@! TA.AperFunction,SMDPad,CuDef*
G36*
X62329142Y-64205174D02*
G01*
X62352803Y-64208684D01*
X62376007Y-64214496D01*
X62398529Y-64222554D01*
X62420153Y-64232782D01*
X62440670Y-64245079D01*
X62459883Y-64259329D01*
X62477607Y-64275393D01*
X62493671Y-64293117D01*
X62507921Y-64312330D01*
X62520218Y-64332847D01*
X62530446Y-64354471D01*
X62538504Y-64376993D01*
X62544316Y-64400197D01*
X62547826Y-64423858D01*
X62549000Y-64447750D01*
X62549000Y-64935250D01*
X62547826Y-64959142D01*
X62544316Y-64982803D01*
X62538504Y-65006007D01*
X62530446Y-65028529D01*
X62520218Y-65050153D01*
X62507921Y-65070670D01*
X62493671Y-65089883D01*
X62477607Y-65107607D01*
X62459883Y-65123671D01*
X62440670Y-65137921D01*
X62420153Y-65150218D01*
X62398529Y-65160446D01*
X62376007Y-65168504D01*
X62352803Y-65174316D01*
X62329142Y-65177826D01*
X62305250Y-65179000D01*
X61392750Y-65179000D01*
X61368858Y-65177826D01*
X61345197Y-65174316D01*
X61321993Y-65168504D01*
X61299471Y-65160446D01*
X61277847Y-65150218D01*
X61257330Y-65137921D01*
X61238117Y-65123671D01*
X61220393Y-65107607D01*
X61204329Y-65089883D01*
X61190079Y-65070670D01*
X61177782Y-65050153D01*
X61167554Y-65028529D01*
X61159496Y-65006007D01*
X61153684Y-64982803D01*
X61150174Y-64959142D01*
X61149000Y-64935250D01*
X61149000Y-64447750D01*
X61150174Y-64423858D01*
X61153684Y-64400197D01*
X61159496Y-64376993D01*
X61167554Y-64354471D01*
X61177782Y-64332847D01*
X61190079Y-64312330D01*
X61204329Y-64293117D01*
X61220393Y-64275393D01*
X61238117Y-64259329D01*
X61257330Y-64245079D01*
X61277847Y-64232782D01*
X61299471Y-64222554D01*
X61321993Y-64214496D01*
X61345197Y-64208684D01*
X61368858Y-64205174D01*
X61392750Y-64204000D01*
X62305250Y-64204000D01*
X62329142Y-64205174D01*
G37*
G04 #@! TD.AperFunction*
G04 #@! TA.AperFunction,SMDPad,CuDef*
G36*
X53058142Y-31820174D02*
G01*
X53081803Y-31823684D01*
X53105007Y-31829496D01*
X53127529Y-31837554D01*
X53149153Y-31847782D01*
X53169670Y-31860079D01*
X53188883Y-31874329D01*
X53206607Y-31890393D01*
X53222671Y-31908117D01*
X53236921Y-31927330D01*
X53249218Y-31947847D01*
X53259446Y-31969471D01*
X53267504Y-31991993D01*
X53273316Y-32015197D01*
X53276826Y-32038858D01*
X53278000Y-32062750D01*
X53278000Y-32550250D01*
X53276826Y-32574142D01*
X53273316Y-32597803D01*
X53267504Y-32621007D01*
X53259446Y-32643529D01*
X53249218Y-32665153D01*
X53236921Y-32685670D01*
X53222671Y-32704883D01*
X53206607Y-32722607D01*
X53188883Y-32738671D01*
X53169670Y-32752921D01*
X53149153Y-32765218D01*
X53127529Y-32775446D01*
X53105007Y-32783504D01*
X53081803Y-32789316D01*
X53058142Y-32792826D01*
X53034250Y-32794000D01*
X52121750Y-32794000D01*
X52097858Y-32792826D01*
X52074197Y-32789316D01*
X52050993Y-32783504D01*
X52028471Y-32775446D01*
X52006847Y-32765218D01*
X51986330Y-32752921D01*
X51967117Y-32738671D01*
X51949393Y-32722607D01*
X51933329Y-32704883D01*
X51919079Y-32685670D01*
X51906782Y-32665153D01*
X51896554Y-32643529D01*
X51888496Y-32621007D01*
X51882684Y-32597803D01*
X51879174Y-32574142D01*
X51878000Y-32550250D01*
X51878000Y-32062750D01*
X51879174Y-32038858D01*
X51882684Y-32015197D01*
X51888496Y-31991993D01*
X51896554Y-31969471D01*
X51906782Y-31947847D01*
X51919079Y-31927330D01*
X51933329Y-31908117D01*
X51949393Y-31890393D01*
X51967117Y-31874329D01*
X51986330Y-31860079D01*
X52006847Y-31847782D01*
X52028471Y-31837554D01*
X52050993Y-31829496D01*
X52074197Y-31823684D01*
X52097858Y-31820174D01*
X52121750Y-31819000D01*
X53034250Y-31819000D01*
X53058142Y-31820174D01*
G37*
G04 #@! TD.AperFunction*
G04 #@! TA.AperFunction,SMDPad,CuDef*
G36*
X53058142Y-29945174D02*
G01*
X53081803Y-29948684D01*
X53105007Y-29954496D01*
X53127529Y-29962554D01*
X53149153Y-29972782D01*
X53169670Y-29985079D01*
X53188883Y-29999329D01*
X53206607Y-30015393D01*
X53222671Y-30033117D01*
X53236921Y-30052330D01*
X53249218Y-30072847D01*
X53259446Y-30094471D01*
X53267504Y-30116993D01*
X53273316Y-30140197D01*
X53276826Y-30163858D01*
X53278000Y-30187750D01*
X53278000Y-30675250D01*
X53276826Y-30699142D01*
X53273316Y-30722803D01*
X53267504Y-30746007D01*
X53259446Y-30768529D01*
X53249218Y-30790153D01*
X53236921Y-30810670D01*
X53222671Y-30829883D01*
X53206607Y-30847607D01*
X53188883Y-30863671D01*
X53169670Y-30877921D01*
X53149153Y-30890218D01*
X53127529Y-30900446D01*
X53105007Y-30908504D01*
X53081803Y-30914316D01*
X53058142Y-30917826D01*
X53034250Y-30919000D01*
X52121750Y-30919000D01*
X52097858Y-30917826D01*
X52074197Y-30914316D01*
X52050993Y-30908504D01*
X52028471Y-30900446D01*
X52006847Y-30890218D01*
X51986330Y-30877921D01*
X51967117Y-30863671D01*
X51949393Y-30847607D01*
X51933329Y-30829883D01*
X51919079Y-30810670D01*
X51906782Y-30790153D01*
X51896554Y-30768529D01*
X51888496Y-30746007D01*
X51882684Y-30722803D01*
X51879174Y-30699142D01*
X51878000Y-30675250D01*
X51878000Y-30187750D01*
X51879174Y-30163858D01*
X51882684Y-30140197D01*
X51888496Y-30116993D01*
X51896554Y-30094471D01*
X51906782Y-30072847D01*
X51919079Y-30052330D01*
X51933329Y-30033117D01*
X51949393Y-30015393D01*
X51967117Y-29999329D01*
X51986330Y-29985079D01*
X52006847Y-29972782D01*
X52028471Y-29962554D01*
X52050993Y-29954496D01*
X52074197Y-29948684D01*
X52097858Y-29945174D01*
X52121750Y-29944000D01*
X53034250Y-29944000D01*
X53058142Y-29945174D01*
G37*
G04 #@! TD.AperFunction*
G04 #@! TA.AperFunction,SMDPad,CuDef*
G36*
X63599142Y-31995674D02*
G01*
X63622803Y-31999184D01*
X63646007Y-32004996D01*
X63668529Y-32013054D01*
X63690153Y-32023282D01*
X63710670Y-32035579D01*
X63729883Y-32049829D01*
X63747607Y-32065893D01*
X63763671Y-32083617D01*
X63777921Y-32102830D01*
X63790218Y-32123347D01*
X63800446Y-32144971D01*
X63808504Y-32167493D01*
X63814316Y-32190697D01*
X63817826Y-32214358D01*
X63819000Y-32238250D01*
X63819000Y-32725750D01*
X63817826Y-32749642D01*
X63814316Y-32773303D01*
X63808504Y-32796507D01*
X63800446Y-32819029D01*
X63790218Y-32840653D01*
X63777921Y-32861170D01*
X63763671Y-32880383D01*
X63747607Y-32898107D01*
X63729883Y-32914171D01*
X63710670Y-32928421D01*
X63690153Y-32940718D01*
X63668529Y-32950946D01*
X63646007Y-32959004D01*
X63622803Y-32964816D01*
X63599142Y-32968326D01*
X63575250Y-32969500D01*
X62662750Y-32969500D01*
X62638858Y-32968326D01*
X62615197Y-32964816D01*
X62591993Y-32959004D01*
X62569471Y-32950946D01*
X62547847Y-32940718D01*
X62527330Y-32928421D01*
X62508117Y-32914171D01*
X62490393Y-32898107D01*
X62474329Y-32880383D01*
X62460079Y-32861170D01*
X62447782Y-32840653D01*
X62437554Y-32819029D01*
X62429496Y-32796507D01*
X62423684Y-32773303D01*
X62420174Y-32749642D01*
X62419000Y-32725750D01*
X62419000Y-32238250D01*
X62420174Y-32214358D01*
X62423684Y-32190697D01*
X62429496Y-32167493D01*
X62437554Y-32144971D01*
X62447782Y-32123347D01*
X62460079Y-32102830D01*
X62474329Y-32083617D01*
X62490393Y-32065893D01*
X62508117Y-32049829D01*
X62527330Y-32035579D01*
X62547847Y-32023282D01*
X62569471Y-32013054D01*
X62591993Y-32004996D01*
X62615197Y-31999184D01*
X62638858Y-31995674D01*
X62662750Y-31994500D01*
X63575250Y-31994500D01*
X63599142Y-31995674D01*
G37*
G04 #@! TD.AperFunction*
G04 #@! TA.AperFunction,SMDPad,CuDef*
G36*
X63599142Y-30120674D02*
G01*
X63622803Y-30124184D01*
X63646007Y-30129996D01*
X63668529Y-30138054D01*
X63690153Y-30148282D01*
X63710670Y-30160579D01*
X63729883Y-30174829D01*
X63747607Y-30190893D01*
X63763671Y-30208617D01*
X63777921Y-30227830D01*
X63790218Y-30248347D01*
X63800446Y-30269971D01*
X63808504Y-30292493D01*
X63814316Y-30315697D01*
X63817826Y-30339358D01*
X63819000Y-30363250D01*
X63819000Y-30850750D01*
X63817826Y-30874642D01*
X63814316Y-30898303D01*
X63808504Y-30921507D01*
X63800446Y-30944029D01*
X63790218Y-30965653D01*
X63777921Y-30986170D01*
X63763671Y-31005383D01*
X63747607Y-31023107D01*
X63729883Y-31039171D01*
X63710670Y-31053421D01*
X63690153Y-31065718D01*
X63668529Y-31075946D01*
X63646007Y-31084004D01*
X63622803Y-31089816D01*
X63599142Y-31093326D01*
X63575250Y-31094500D01*
X62662750Y-31094500D01*
X62638858Y-31093326D01*
X62615197Y-31089816D01*
X62591993Y-31084004D01*
X62569471Y-31075946D01*
X62547847Y-31065718D01*
X62527330Y-31053421D01*
X62508117Y-31039171D01*
X62490393Y-31023107D01*
X62474329Y-31005383D01*
X62460079Y-30986170D01*
X62447782Y-30965653D01*
X62437554Y-30944029D01*
X62429496Y-30921507D01*
X62423684Y-30898303D01*
X62420174Y-30874642D01*
X62419000Y-30850750D01*
X62419000Y-30363250D01*
X62420174Y-30339358D01*
X62423684Y-30315697D01*
X62429496Y-30292493D01*
X62437554Y-30269971D01*
X62447782Y-30248347D01*
X62460079Y-30227830D01*
X62474329Y-30208617D01*
X62490393Y-30190893D01*
X62508117Y-30174829D01*
X62527330Y-30160579D01*
X62547847Y-30148282D01*
X62569471Y-30138054D01*
X62591993Y-30129996D01*
X62615197Y-30124184D01*
X62638858Y-30120674D01*
X62662750Y-30119500D01*
X63575250Y-30119500D01*
X63599142Y-30120674D01*
G37*
G04 #@! TD.AperFunction*
G04 #@! TA.AperFunction,SMDPad,CuDef*
G36*
X44041142Y-50138174D02*
G01*
X44064803Y-50141684D01*
X44088007Y-50147496D01*
X44110529Y-50155554D01*
X44132153Y-50165782D01*
X44152670Y-50178079D01*
X44171883Y-50192329D01*
X44189607Y-50208393D01*
X44205671Y-50226117D01*
X44219921Y-50245330D01*
X44232218Y-50265847D01*
X44242446Y-50287471D01*
X44250504Y-50309993D01*
X44256316Y-50333197D01*
X44259826Y-50356858D01*
X44261000Y-50380750D01*
X44261000Y-50868250D01*
X44259826Y-50892142D01*
X44256316Y-50915803D01*
X44250504Y-50939007D01*
X44242446Y-50961529D01*
X44232218Y-50983153D01*
X44219921Y-51003670D01*
X44205671Y-51022883D01*
X44189607Y-51040607D01*
X44171883Y-51056671D01*
X44152670Y-51070921D01*
X44132153Y-51083218D01*
X44110529Y-51093446D01*
X44088007Y-51101504D01*
X44064803Y-51107316D01*
X44041142Y-51110826D01*
X44017250Y-51112000D01*
X43104750Y-51112000D01*
X43080858Y-51110826D01*
X43057197Y-51107316D01*
X43033993Y-51101504D01*
X43011471Y-51093446D01*
X42989847Y-51083218D01*
X42969330Y-51070921D01*
X42950117Y-51056671D01*
X42932393Y-51040607D01*
X42916329Y-51022883D01*
X42902079Y-51003670D01*
X42889782Y-50983153D01*
X42879554Y-50961529D01*
X42871496Y-50939007D01*
X42865684Y-50915803D01*
X42862174Y-50892142D01*
X42861000Y-50868250D01*
X42861000Y-50380750D01*
X42862174Y-50356858D01*
X42865684Y-50333197D01*
X42871496Y-50309993D01*
X42879554Y-50287471D01*
X42889782Y-50265847D01*
X42902079Y-50245330D01*
X42916329Y-50226117D01*
X42932393Y-50208393D01*
X42950117Y-50192329D01*
X42969330Y-50178079D01*
X42989847Y-50165782D01*
X43011471Y-50155554D01*
X43033993Y-50147496D01*
X43057197Y-50141684D01*
X43080858Y-50138174D01*
X43104750Y-50137000D01*
X44017250Y-50137000D01*
X44041142Y-50138174D01*
G37*
G04 #@! TD.AperFunction*
G04 #@! TA.AperFunction,SMDPad,CuDef*
G36*
X44041142Y-52013174D02*
G01*
X44064803Y-52016684D01*
X44088007Y-52022496D01*
X44110529Y-52030554D01*
X44132153Y-52040782D01*
X44152670Y-52053079D01*
X44171883Y-52067329D01*
X44189607Y-52083393D01*
X44205671Y-52101117D01*
X44219921Y-52120330D01*
X44232218Y-52140847D01*
X44242446Y-52162471D01*
X44250504Y-52184993D01*
X44256316Y-52208197D01*
X44259826Y-52231858D01*
X44261000Y-52255750D01*
X44261000Y-52743250D01*
X44259826Y-52767142D01*
X44256316Y-52790803D01*
X44250504Y-52814007D01*
X44242446Y-52836529D01*
X44232218Y-52858153D01*
X44219921Y-52878670D01*
X44205671Y-52897883D01*
X44189607Y-52915607D01*
X44171883Y-52931671D01*
X44152670Y-52945921D01*
X44132153Y-52958218D01*
X44110529Y-52968446D01*
X44088007Y-52976504D01*
X44064803Y-52982316D01*
X44041142Y-52985826D01*
X44017250Y-52987000D01*
X43104750Y-52987000D01*
X43080858Y-52985826D01*
X43057197Y-52982316D01*
X43033993Y-52976504D01*
X43011471Y-52968446D01*
X42989847Y-52958218D01*
X42969330Y-52945921D01*
X42950117Y-52931671D01*
X42932393Y-52915607D01*
X42916329Y-52897883D01*
X42902079Y-52878670D01*
X42889782Y-52858153D01*
X42879554Y-52836529D01*
X42871496Y-52814007D01*
X42865684Y-52790803D01*
X42862174Y-52767142D01*
X42861000Y-52743250D01*
X42861000Y-52255750D01*
X42862174Y-52231858D01*
X42865684Y-52208197D01*
X42871496Y-52184993D01*
X42879554Y-52162471D01*
X42889782Y-52140847D01*
X42902079Y-52120330D01*
X42916329Y-52101117D01*
X42932393Y-52083393D01*
X42950117Y-52067329D01*
X42969330Y-52053079D01*
X42989847Y-52040782D01*
X43011471Y-52030554D01*
X43033993Y-52022496D01*
X43057197Y-52016684D01*
X43080858Y-52013174D01*
X43104750Y-52012000D01*
X44017250Y-52012000D01*
X44041142Y-52013174D01*
G37*
G04 #@! TD.AperFunction*
D19*
X55880000Y-55880000D03*
X44831000Y-49149000D03*
X59944000Y-55880000D03*
X68580000Y-57150000D03*
X54610000Y-49530000D03*
X56007000Y-38100000D03*
X55880000Y-27940000D03*
X68580000Y-46228000D03*
X71120000Y-52070000D03*
X69850000Y-46990000D03*
X81280000Y-52451000D03*
X48260000Y-48663000D03*
X47879000Y-39370000D03*
X66802000Y-59690000D03*
X52451000Y-39243000D03*
X72390000Y-35560000D03*
X74930000Y-59690000D03*
D20*
X63080000Y-30646000D02*
X63119000Y-30607000D01*
X59139000Y-30646000D02*
X63080000Y-30646000D01*
X48425000Y-28153500D02*
X52578000Y-32306500D01*
X48425000Y-24003000D02*
X48425000Y-28153500D01*
X56899500Y-32306500D02*
X56939000Y-32346000D01*
X52578000Y-32306500D02*
X56899500Y-32306500D01*
X57136098Y-32346000D02*
X56939000Y-32346000D01*
D21*
X58836098Y-30646000D02*
X57136098Y-32346000D01*
D20*
X59139000Y-30646000D02*
X58836098Y-30646000D01*
X43075473Y-46855473D02*
X43561000Y-47341000D01*
X42470490Y-46250490D02*
X43075473Y-46855473D01*
X42470490Y-43446510D02*
X42470490Y-46250490D01*
X43688000Y-42229000D02*
X42470490Y-43446510D01*
X43688000Y-41529000D02*
X43688000Y-42229000D01*
X43561000Y-47341000D02*
X43561000Y-50624500D01*
X49938000Y-47790000D02*
X51069000Y-47790000D01*
X44261000Y-47341000D02*
X44710000Y-47790000D01*
X43561000Y-47341000D02*
X44261000Y-47341000D01*
X61338000Y-42990000D02*
X62469000Y-42990000D01*
X55738000Y-42990000D02*
X61338000Y-42990000D01*
X55169000Y-42421000D02*
X55738000Y-42990000D01*
X55169000Y-41290000D02*
X55169000Y-42421000D01*
X59959499Y-53830501D02*
X59969000Y-53821000D01*
X59969000Y-53821000D02*
X59969000Y-52690000D01*
X53578501Y-53830501D02*
X59959499Y-53830501D01*
X53569000Y-53821000D02*
X53578501Y-53830501D01*
X53569000Y-52690000D02*
X53569000Y-53821000D01*
X53594000Y-53846000D02*
X53594000Y-62816500D01*
X53569000Y-53821000D02*
X53594000Y-53846000D01*
X61149000Y-62816500D02*
X53594000Y-62816500D01*
X61849000Y-62816500D02*
X61149000Y-62816500D01*
X53569000Y-53821000D02*
X55628000Y-55880000D01*
X55628000Y-55880000D02*
X55880000Y-55880000D01*
X44831000Y-48133000D02*
X45085000Y-47879000D01*
X44831000Y-49149000D02*
X44831000Y-48133000D01*
X44710000Y-47790000D02*
X45085000Y-47879000D01*
X45085000Y-47879000D02*
X49938000Y-47790000D01*
X59959499Y-53830501D02*
X59959499Y-55864501D01*
X59959499Y-55864501D02*
X59944000Y-55880000D01*
X67769500Y-57150000D02*
X66294000Y-55674500D01*
X68580000Y-57150000D02*
X67769500Y-57150000D01*
X55169000Y-40159000D02*
X55169000Y-41290000D01*
X56939000Y-34668132D02*
X55169000Y-36438132D01*
X55169000Y-36438132D02*
X55169000Y-40159000D01*
X56939000Y-32346000D02*
X56939000Y-34668132D01*
X55738000Y-42990000D02*
X55738000Y-48275000D01*
X55738000Y-48275000D02*
X54610000Y-49403000D01*
X54610000Y-49403000D02*
X54610000Y-49530000D01*
X66307000Y-37540000D02*
X67238000Y-37540000D01*
X62469000Y-41378000D02*
X66307000Y-37540000D01*
X62469000Y-42990000D02*
X62469000Y-41378000D01*
X43307000Y-39273000D02*
X45563000Y-41529000D01*
X43307000Y-34163000D02*
X43307000Y-39273000D01*
X49938000Y-50190000D02*
X51069000Y-50190000D01*
X44261000Y-52499500D02*
X46570500Y-50190000D01*
X46570500Y-50190000D02*
X49938000Y-50190000D01*
X43561000Y-52499500D02*
X44261000Y-52499500D01*
X60759499Y-51549499D02*
X60769000Y-51559000D01*
X52981599Y-51549499D02*
X60759499Y-51549499D01*
X52903499Y-51627599D02*
X52981599Y-51549499D01*
X52903499Y-52555501D02*
X52903499Y-51627599D01*
X60769000Y-51559000D02*
X60769000Y-52690000D01*
X52769000Y-52690000D02*
X52903499Y-52555501D01*
X52200000Y-50190000D02*
X51069000Y-50190000D01*
X52903499Y-50893499D02*
X52200000Y-50190000D01*
X52903499Y-51627599D02*
X52903499Y-50893499D01*
X52200000Y-46190000D02*
X51069000Y-46190000D01*
X52200000Y-49986902D02*
X52209501Y-49977401D01*
X52209501Y-46199501D02*
X52200000Y-46190000D01*
X52209501Y-49977401D02*
X52209501Y-46199501D01*
X52200000Y-50190000D02*
X52200000Y-49986902D01*
X54369000Y-44040002D02*
X54369000Y-41290000D01*
X52209501Y-46199501D02*
X54369000Y-44040002D01*
X61338000Y-43790000D02*
X62469000Y-43790000D01*
X60769000Y-44359000D02*
X61338000Y-43790000D01*
X60769000Y-51559000D02*
X60769000Y-44359000D01*
X53108473Y-64205973D02*
X53594000Y-64691500D01*
X52503490Y-63600990D02*
X53108473Y-64205973D01*
X52503490Y-54086510D02*
X52503490Y-63600990D01*
X52769000Y-53821000D02*
X52503490Y-54086510D01*
X52769000Y-52690000D02*
X52769000Y-53821000D01*
X53594000Y-64691500D02*
X61849000Y-64691500D01*
X50224000Y-46190000D02*
X51069000Y-46190000D01*
X45563000Y-41529000D02*
X50224000Y-46190000D01*
X65913000Y-64691500D02*
X66802000Y-63802500D01*
X61849000Y-64691500D02*
X65913000Y-64691500D01*
D21*
X62983000Y-32346000D02*
X63119000Y-32482000D01*
X59139000Y-32346000D02*
X62983000Y-32346000D01*
X56769000Y-35570000D02*
X56769000Y-41290000D01*
X59139000Y-32346000D02*
X59139000Y-33200000D01*
X59139000Y-33200000D02*
X56769000Y-35570000D01*
X56724500Y-30431500D02*
X56939000Y-30646000D01*
X52578000Y-30431500D02*
X56724500Y-30431500D01*
X55969000Y-41290000D02*
X55969000Y-38138000D01*
X55969000Y-38138000D02*
X56007000Y-38100000D01*
X56939000Y-29792000D02*
X56939000Y-30646000D01*
X56939000Y-28433315D02*
X56939000Y-29792000D01*
X56445685Y-27940000D02*
X56939000Y-28433315D01*
X55880000Y-27940000D02*
X56445685Y-27940000D01*
X45085000Y-46990000D02*
X51069000Y-46990000D01*
X43561000Y-45466000D02*
X45085000Y-46990000D01*
X91281250Y-27629000D02*
X91281250Y-26925000D01*
X88112750Y-30797500D02*
X91281250Y-27629000D01*
X79375000Y-30797500D02*
X88112750Y-30797500D01*
X92135250Y-45975000D02*
X91281250Y-45975000D01*
X94249462Y-45975000D02*
X92135250Y-45975000D01*
X106202001Y-34022461D02*
X94249462Y-45975000D01*
X106202001Y-32652539D02*
X106202001Y-34022461D01*
X103615538Y-32385000D02*
X104090039Y-31910499D01*
X105459961Y-31910499D02*
X106202001Y-32652539D01*
X92737250Y-32385000D02*
X103615538Y-32385000D01*
X91281250Y-30929000D02*
X92737250Y-32385000D01*
X104090039Y-31910499D02*
X105459961Y-31910499D01*
X91281250Y-30225000D02*
X91281250Y-30929000D01*
X63511000Y-46228000D02*
X68580000Y-46228000D01*
X62469000Y-46190000D02*
X63473000Y-46190000D01*
X63473000Y-46190000D02*
X63511000Y-46228000D01*
X90427250Y-45975000D02*
X91281250Y-45975000D01*
X89432749Y-44980499D02*
X90427250Y-45975000D01*
X71519999Y-51670001D02*
X72000537Y-51670001D01*
X71120000Y-52070000D02*
X71519999Y-51670001D01*
X72000537Y-51670001D02*
X78690039Y-44980499D01*
X78690039Y-44980499D02*
X89432749Y-44980499D01*
X110331250Y-27629000D02*
X110331250Y-26925000D01*
X107162750Y-30797500D02*
X110331250Y-27629000D01*
X98425000Y-30797500D02*
X107162750Y-30797500D01*
X110331250Y-45271000D02*
X110331250Y-30225000D01*
X110331250Y-45975000D02*
X110331250Y-45271000D01*
X104777540Y-45975000D02*
X110331250Y-45975000D01*
X104562001Y-46190539D02*
X104777540Y-45975000D01*
X86723963Y-51274501D02*
X101379499Y-51274501D01*
X104587001Y-48497999D02*
X104562001Y-48472999D01*
X101693501Y-50960499D02*
X110284353Y-50960499D01*
X86409961Y-50960499D02*
X86723963Y-51274501D01*
X104562001Y-48472999D02*
X104562001Y-46190539D01*
X80373963Y-50960499D02*
X86409961Y-50960499D01*
X110284353Y-50960499D02*
X111258251Y-49986601D01*
X77918462Y-53416000D02*
X80373963Y-50960499D01*
X101379499Y-51274501D02*
X101693501Y-50960499D01*
X111258251Y-49986601D02*
X111258251Y-48563399D01*
X111258251Y-48563399D02*
X111192851Y-48497999D01*
X111192851Y-48497999D02*
X104587001Y-48497999D01*
X68299000Y-53416000D02*
X77918462Y-53416000D01*
X63473000Y-48590000D02*
X68299000Y-53416000D01*
X62469000Y-48590000D02*
X63473000Y-48590000D01*
X90708750Y-49847500D02*
X91281250Y-49275000D01*
X79375000Y-49847500D02*
X90708750Y-49847500D01*
X109758750Y-49847500D02*
X110331250Y-49275000D01*
X98425000Y-49847500D02*
X109758750Y-49847500D01*
D20*
X44182000Y-31363000D02*
X43307000Y-31363000D01*
X45225000Y-30320000D02*
X44182000Y-31363000D01*
X45225000Y-24003000D02*
X45225000Y-30320000D01*
D21*
X85725000Y-33337500D02*
X104775000Y-33337500D01*
X85725000Y-33337500D02*
X71869499Y-47193001D01*
X63473000Y-47790000D02*
X63511000Y-47752000D01*
X62469000Y-47790000D02*
X63473000Y-47790000D01*
X71310500Y-47752000D02*
X71869499Y-47193001D01*
X63511000Y-47752000D02*
X71310500Y-47752000D01*
X85725000Y-52387500D02*
X104775000Y-52387500D01*
X62469000Y-46990000D02*
X62484000Y-46990000D01*
X62469000Y-46990000D02*
X68893962Y-46990000D01*
X68893962Y-46990000D02*
X69850000Y-46990000D01*
X85661500Y-52451000D02*
X85725000Y-52387500D01*
X81280000Y-52451000D02*
X85661500Y-52451000D01*
X46025000Y-31142500D02*
X45466000Y-31701500D01*
X46025000Y-24003000D02*
X46025000Y-31142500D01*
X46302678Y-49390000D02*
X51069000Y-49390000D01*
X44253668Y-51439010D02*
X46302678Y-49390000D01*
X42868332Y-51439010D02*
X44253668Y-51439010D01*
X44980473Y-33090973D02*
X42563009Y-33090973D01*
X45466000Y-33576500D02*
X44980473Y-33090973D01*
X42563009Y-33090973D02*
X41952980Y-33701002D01*
X41952980Y-33701002D02*
X41952980Y-50523658D01*
X41952980Y-50523658D02*
X42868332Y-51439010D01*
X46825000Y-31077000D02*
X47498000Y-31750000D01*
X46825000Y-24003000D02*
X46825000Y-31077000D01*
X49992000Y-48663000D02*
X48260000Y-48663000D01*
X51069000Y-48590000D02*
X50065000Y-48590000D01*
X50065000Y-48590000D02*
X49992000Y-48663000D01*
X47983527Y-34110527D02*
X47498000Y-33625000D01*
X48278999Y-34405999D02*
X47983527Y-34110527D01*
X48278999Y-38970001D02*
X48278999Y-34405999D01*
X47879000Y-39370000D02*
X48278999Y-38970001D01*
X66802000Y-61927500D02*
X66802000Y-59690000D01*
X52925999Y-39642999D02*
X53569000Y-40286000D01*
X52850999Y-39642999D02*
X52925999Y-39642999D01*
X53569000Y-40286000D02*
X53569000Y-41290000D01*
X52451000Y-39243000D02*
X52850999Y-39642999D01*
X71742000Y-43740000D02*
X72390000Y-43092000D01*
X70938000Y-43740000D02*
X71742000Y-43740000D01*
X72390000Y-43092000D02*
X72390000Y-35560000D01*
X74364315Y-59690000D02*
X66802000Y-59690000D01*
X74930000Y-59690000D02*
X74364315Y-59690000D01*
X62469000Y-51519000D02*
X62469000Y-50990000D01*
X64749500Y-53799500D02*
X62469000Y-51519000D01*
X66294000Y-53799500D02*
X64749500Y-53799500D01*
D22*
G36*
X49412300Y-20055197D02*
G01*
X49427677Y-20211324D01*
X49488444Y-20411644D01*
X49587123Y-20596261D01*
X49719922Y-20758078D01*
X49881739Y-20890877D01*
X50066355Y-20989556D01*
X50266675Y-21050323D01*
X50475000Y-21070841D01*
X50533300Y-21065099D01*
X50533300Y-22440901D01*
X50475000Y-22435159D01*
X50266676Y-22455677D01*
X50066356Y-22516444D01*
X49881740Y-22615123D01*
X49719923Y-22747922D01*
X49587124Y-22909739D01*
X49488445Y-23094355D01*
X49427678Y-23294675D01*
X49412300Y-23450802D01*
X49412300Y-24117300D01*
X48175000Y-24117300D01*
X48175000Y-23761700D01*
X48187700Y-23761700D01*
X48187700Y-22487475D01*
X48662300Y-22487475D01*
X48662300Y-23761700D01*
X49065525Y-23761700D01*
X49195700Y-23631525D01*
X49197749Y-22900164D01*
X49192029Y-22797755D01*
X49166439Y-22698429D01*
X49121964Y-22606005D01*
X49060312Y-22524033D01*
X48983853Y-22455664D01*
X48895524Y-22403524D01*
X48798722Y-22369619D01*
X48792475Y-22357300D01*
X48662300Y-22487475D01*
X48187700Y-22487475D01*
X48057525Y-22357300D01*
X48051278Y-22369619D01*
X47954476Y-22403524D01*
X47866147Y-22455664D01*
X47789688Y-22524033D01*
X47728036Y-22606005D01*
X47699998Y-22664271D01*
X47375000Y-22664271D01*
X47333304Y-22668378D01*
X47293209Y-22680540D01*
X47256259Y-22700291D01*
X47225000Y-22725944D01*
X47193741Y-22700291D01*
X47156791Y-22680540D01*
X47116696Y-22668378D01*
X47075000Y-22664271D01*
X46575000Y-22664271D01*
X46533304Y-22668378D01*
X46493209Y-22680540D01*
X46456259Y-22700291D01*
X46425000Y-22725944D01*
X46393741Y-22700291D01*
X46356791Y-22680540D01*
X46316696Y-22668378D01*
X46275000Y-22664271D01*
X45775000Y-22664271D01*
X45733304Y-22668378D01*
X45693209Y-22680540D01*
X45656259Y-22700291D01*
X45625000Y-22725944D01*
X45593741Y-22700291D01*
X45556791Y-22680540D01*
X45516696Y-22668378D01*
X45475000Y-22664271D01*
X44975000Y-22664271D01*
X44933304Y-22668378D01*
X44893209Y-22680540D01*
X44856259Y-22700291D01*
X44823871Y-22726871D01*
X44797291Y-22759259D01*
X44777540Y-22796209D01*
X44765378Y-22836304D01*
X44761271Y-22878000D01*
X44761271Y-24117300D01*
X44237700Y-24117300D01*
X44237700Y-23450802D01*
X44222323Y-23294675D01*
X44161556Y-23094355D01*
X44062877Y-22909739D01*
X43930078Y-22747922D01*
X43768261Y-22615123D01*
X43583645Y-22516444D01*
X43383325Y-22455677D01*
X43192700Y-22436902D01*
X43192700Y-21069098D01*
X43383324Y-21050323D01*
X43583644Y-20989556D01*
X43768261Y-20890877D01*
X43930078Y-20758078D01*
X44062877Y-20596261D01*
X44161556Y-20411645D01*
X44222323Y-20211325D01*
X44237700Y-20055198D01*
X44237700Y-19443700D01*
X49412300Y-19443700D01*
X49412300Y-20055197D01*
G37*
X49412300Y-20055197D02*
X49427677Y-20211324D01*
X49488444Y-20411644D01*
X49587123Y-20596261D01*
X49719922Y-20758078D01*
X49881739Y-20890877D01*
X50066355Y-20989556D01*
X50266675Y-21050323D01*
X50475000Y-21070841D01*
X50533300Y-21065099D01*
X50533300Y-22440901D01*
X50475000Y-22435159D01*
X50266676Y-22455677D01*
X50066356Y-22516444D01*
X49881740Y-22615123D01*
X49719923Y-22747922D01*
X49587124Y-22909739D01*
X49488445Y-23094355D01*
X49427678Y-23294675D01*
X49412300Y-23450802D01*
X49412300Y-24117300D01*
X48175000Y-24117300D01*
X48175000Y-23761700D01*
X48187700Y-23761700D01*
X48187700Y-22487475D01*
X48662300Y-22487475D01*
X48662300Y-23761700D01*
X49065525Y-23761700D01*
X49195700Y-23631525D01*
X49197749Y-22900164D01*
X49192029Y-22797755D01*
X49166439Y-22698429D01*
X49121964Y-22606005D01*
X49060312Y-22524033D01*
X48983853Y-22455664D01*
X48895524Y-22403524D01*
X48798722Y-22369619D01*
X48792475Y-22357300D01*
X48662300Y-22487475D01*
X48187700Y-22487475D01*
X48057525Y-22357300D01*
X48051278Y-22369619D01*
X47954476Y-22403524D01*
X47866147Y-22455664D01*
X47789688Y-22524033D01*
X47728036Y-22606005D01*
X47699998Y-22664271D01*
X47375000Y-22664271D01*
X47333304Y-22668378D01*
X47293209Y-22680540D01*
X47256259Y-22700291D01*
X47225000Y-22725944D01*
X47193741Y-22700291D01*
X47156791Y-22680540D01*
X47116696Y-22668378D01*
X47075000Y-22664271D01*
X46575000Y-22664271D01*
X46533304Y-22668378D01*
X46493209Y-22680540D01*
X46456259Y-22700291D01*
X46425000Y-22725944D01*
X46393741Y-22700291D01*
X46356791Y-22680540D01*
X46316696Y-22668378D01*
X46275000Y-22664271D01*
X45775000Y-22664271D01*
X45733304Y-22668378D01*
X45693209Y-22680540D01*
X45656259Y-22700291D01*
X45625000Y-22725944D01*
X45593741Y-22700291D01*
X45556791Y-22680540D01*
X45516696Y-22668378D01*
X45475000Y-22664271D01*
X44975000Y-22664271D01*
X44933304Y-22668378D01*
X44893209Y-22680540D01*
X44856259Y-22700291D01*
X44823871Y-22726871D01*
X44797291Y-22759259D01*
X44777540Y-22796209D01*
X44765378Y-22836304D01*
X44761271Y-22878000D01*
X44761271Y-24117300D01*
X44237700Y-24117300D01*
X44237700Y-23450802D01*
X44222323Y-23294675D01*
X44161556Y-23094355D01*
X44062877Y-22909739D01*
X43930078Y-22747922D01*
X43768261Y-22615123D01*
X43583645Y-22516444D01*
X43383325Y-22455677D01*
X43192700Y-22436902D01*
X43192700Y-21069098D01*
X43383324Y-21050323D01*
X43583644Y-20989556D01*
X43768261Y-20890877D01*
X43930078Y-20758078D01*
X44062877Y-20596261D01*
X44161556Y-20411645D01*
X44222323Y-20211325D01*
X44237700Y-20055198D01*
X44237700Y-19443700D01*
X49412300Y-19443700D01*
X49412300Y-20055197D01*
G36*
X66027300Y-35547300D02*
G01*
X57272107Y-35547300D01*
X59367412Y-33451997D01*
X59380366Y-33441366D01*
X59422816Y-33389640D01*
X59454360Y-33330626D01*
X59473784Y-33266593D01*
X59478700Y-33216681D01*
X59478700Y-33216672D01*
X59480342Y-33200001D01*
X59478700Y-33183330D01*
X59478700Y-33159729D01*
X59839000Y-33159729D01*
X59880696Y-33155622D01*
X59920791Y-33143460D01*
X59957741Y-33123709D01*
X59990129Y-33097129D01*
X60016709Y-33064741D01*
X60036460Y-33027791D01*
X60048622Y-32987696D01*
X60052729Y-32946000D01*
X60052729Y-32685700D01*
X62205271Y-32685700D01*
X62205271Y-32725750D01*
X62214061Y-32815000D01*
X62240095Y-32900820D01*
X62282370Y-32979912D01*
X62339263Y-33049237D01*
X62408588Y-33106130D01*
X62487680Y-33148405D01*
X62573500Y-33174439D01*
X62662750Y-33183229D01*
X63575250Y-33183229D01*
X63664500Y-33174439D01*
X63750320Y-33148405D01*
X63829412Y-33106130D01*
X63898737Y-33049237D01*
X63955630Y-32979912D01*
X63997905Y-32900820D01*
X64023939Y-32815000D01*
X64032729Y-32725750D01*
X64032729Y-32238250D01*
X64023939Y-32149000D01*
X63997905Y-32063180D01*
X63955630Y-31984088D01*
X63898737Y-31914763D01*
X63829412Y-31857870D01*
X63750320Y-31815595D01*
X63664500Y-31789561D01*
X63575250Y-31780771D01*
X62662750Y-31780771D01*
X62573500Y-31789561D01*
X62487680Y-31815595D01*
X62408588Y-31857870D01*
X62339263Y-31914763D01*
X62282370Y-31984088D01*
X62270498Y-32006300D01*
X60052729Y-32006300D01*
X60052729Y-31746000D01*
X60050500Y-31723366D01*
X60129685Y-31681041D01*
X60208972Y-31615972D01*
X60274041Y-31536685D01*
X60322391Y-31446227D01*
X60352165Y-31348075D01*
X60362219Y-31246000D01*
X60360550Y-31094500D01*
X61895781Y-31094500D01*
X61905835Y-31196575D01*
X61935609Y-31294727D01*
X61983959Y-31385185D01*
X62049028Y-31464472D01*
X62128315Y-31529541D01*
X62218773Y-31577891D01*
X62316925Y-31607665D01*
X62419000Y-31617719D01*
X62747525Y-31615200D01*
X62877700Y-31485025D01*
X62877700Y-30848300D01*
X63360300Y-30848300D01*
X63360300Y-31485025D01*
X63490475Y-31615200D01*
X63819000Y-31617719D01*
X63921075Y-31607665D01*
X64019227Y-31577891D01*
X64109685Y-31529541D01*
X64188972Y-31464472D01*
X64254041Y-31385185D01*
X64302391Y-31294727D01*
X64332165Y-31196575D01*
X64342219Y-31094500D01*
X64339700Y-30978475D01*
X64209525Y-30848300D01*
X63360300Y-30848300D01*
X62877700Y-30848300D01*
X62028475Y-30848300D01*
X61898300Y-30978475D01*
X61895781Y-31094500D01*
X60360550Y-31094500D01*
X60359700Y-31017475D01*
X60229525Y-30887300D01*
X59380300Y-30887300D01*
X59380300Y-30907300D01*
X58897700Y-30907300D01*
X58897700Y-30887300D01*
X58048475Y-30887300D01*
X57918300Y-31017475D01*
X57915781Y-31246000D01*
X57921762Y-31306724D01*
X57850500Y-31268634D01*
X57852729Y-31246000D01*
X57852729Y-30046000D01*
X57915781Y-30046000D01*
X57918300Y-30274525D01*
X58048475Y-30404700D01*
X58897700Y-30404700D01*
X58897700Y-29655475D01*
X59380300Y-29655475D01*
X59380300Y-30404700D01*
X60229525Y-30404700D01*
X60359700Y-30274525D01*
X60361408Y-30119500D01*
X61895781Y-30119500D01*
X61898300Y-30235525D01*
X62028475Y-30365700D01*
X62877700Y-30365700D01*
X62877700Y-29728975D01*
X63360300Y-29728975D01*
X63360300Y-30365700D01*
X64209525Y-30365700D01*
X64339700Y-30235525D01*
X64342219Y-30119500D01*
X64332165Y-30017425D01*
X64302391Y-29919273D01*
X64254041Y-29828815D01*
X64188972Y-29749528D01*
X64109685Y-29684459D01*
X64019227Y-29636109D01*
X63921075Y-29606335D01*
X63819000Y-29596281D01*
X63490475Y-29598800D01*
X63360300Y-29728975D01*
X62877700Y-29728975D01*
X62747525Y-29598800D01*
X62419000Y-29596281D01*
X62316925Y-29606335D01*
X62218773Y-29636109D01*
X62128315Y-29684459D01*
X62049028Y-29749528D01*
X61983959Y-29828815D01*
X61935609Y-29919273D01*
X61905835Y-30017425D01*
X61895781Y-30119500D01*
X60361408Y-30119500D01*
X60362219Y-30046000D01*
X60352165Y-29943925D01*
X60322391Y-29845773D01*
X60274041Y-29755315D01*
X60208972Y-29676028D01*
X60129685Y-29610959D01*
X60039227Y-29562609D01*
X59941075Y-29532835D01*
X59839000Y-29522781D01*
X59510475Y-29525300D01*
X59380300Y-29655475D01*
X58897700Y-29655475D01*
X58767525Y-29525300D01*
X58439000Y-29522781D01*
X58336925Y-29532835D01*
X58238773Y-29562609D01*
X58148315Y-29610959D01*
X58069028Y-29676028D01*
X58003959Y-29755315D01*
X57955609Y-29845773D01*
X57925835Y-29943925D01*
X57915781Y-30046000D01*
X57852729Y-30046000D01*
X57848622Y-30004304D01*
X57836460Y-29964209D01*
X57816709Y-29927259D01*
X57790129Y-29894871D01*
X57757741Y-29868291D01*
X57720791Y-29848540D01*
X57680696Y-29836378D01*
X57639000Y-29832271D01*
X57278700Y-29832271D01*
X57278700Y-28449996D01*
X57280343Y-28433315D01*
X57273784Y-28366722D01*
X57254360Y-28302689D01*
X57222816Y-28243675D01*
X57180365Y-28191949D01*
X57167411Y-28181318D01*
X56697691Y-27711599D01*
X56687051Y-27698634D01*
X56635325Y-27656184D01*
X56576311Y-27624640D01*
X56512278Y-27605216D01*
X56462366Y-27600300D01*
X56462363Y-27600300D01*
X56445685Y-27598657D01*
X56429007Y-27600300D01*
X56389908Y-27600300D01*
X56355915Y-27549426D01*
X56270574Y-27464085D01*
X56170222Y-27397032D01*
X56058718Y-27350845D01*
X55940346Y-27327300D01*
X55819654Y-27327300D01*
X55701282Y-27350845D01*
X55589778Y-27397032D01*
X55489426Y-27464085D01*
X55404085Y-27549426D01*
X55337032Y-27649778D01*
X55290845Y-27761282D01*
X55267300Y-27879654D01*
X55267300Y-28000346D01*
X55290845Y-28118718D01*
X55337032Y-28230222D01*
X55404085Y-28330574D01*
X55489426Y-28415915D01*
X55589778Y-28482968D01*
X55701282Y-28529155D01*
X55819654Y-28552700D01*
X55940346Y-28552700D01*
X56058718Y-28529155D01*
X56170222Y-28482968D01*
X56270574Y-28415915D01*
X56355883Y-28330606D01*
X56599300Y-28574023D01*
X56599301Y-29775310D01*
X56599300Y-29775320D01*
X56599300Y-29832271D01*
X56239000Y-29832271D01*
X56197304Y-29836378D01*
X56157209Y-29848540D01*
X56120259Y-29868291D01*
X56087871Y-29894871D01*
X56061291Y-29927259D01*
X56041540Y-29964209D01*
X56029378Y-30004304D01*
X56025271Y-30046000D01*
X56025271Y-30091800D01*
X53480907Y-30091800D01*
X53456905Y-30012680D01*
X53414630Y-29933588D01*
X53357737Y-29864263D01*
X53288412Y-29807370D01*
X53209320Y-29765095D01*
X53123500Y-29739061D01*
X53034250Y-29730271D01*
X52121750Y-29730271D01*
X52032500Y-29739061D01*
X51946680Y-29765095D01*
X51867588Y-29807370D01*
X51798263Y-29864263D01*
X51741370Y-29933588D01*
X51699095Y-30012680D01*
X51673061Y-30098500D01*
X51664271Y-30187750D01*
X51664271Y-30675250D01*
X51673061Y-30764500D01*
X51699095Y-30850320D01*
X51741370Y-30929412D01*
X51798263Y-30998737D01*
X51867588Y-31055630D01*
X51946680Y-31097905D01*
X52032500Y-31123939D01*
X52121750Y-31132729D01*
X53034250Y-31132729D01*
X53123500Y-31123939D01*
X53209320Y-31097905D01*
X53288412Y-31055630D01*
X53357737Y-30998737D01*
X53414630Y-30929412D01*
X53456905Y-30850320D01*
X53480907Y-30771200D01*
X56025271Y-30771200D01*
X56025271Y-31246000D01*
X56027500Y-31268634D01*
X55948315Y-31310959D01*
X55869028Y-31376028D01*
X55803959Y-31455315D01*
X55755609Y-31545773D01*
X55725835Y-31643925D01*
X55715781Y-31746000D01*
X55718300Y-31974525D01*
X55848475Y-32104700D01*
X56697700Y-32104700D01*
X56697700Y-32084700D01*
X57180300Y-32084700D01*
X57180300Y-32104700D01*
X58029525Y-32104700D01*
X58159700Y-31974525D01*
X58162219Y-31746000D01*
X58156238Y-31685276D01*
X58227500Y-31723366D01*
X58225271Y-31746000D01*
X58225271Y-32946000D01*
X58229378Y-32987696D01*
X58241540Y-33027791D01*
X58261291Y-33064741D01*
X58287871Y-33097129D01*
X58320259Y-33123709D01*
X58357209Y-33143460D01*
X58397304Y-33155622D01*
X58439000Y-33159729D01*
X58698862Y-33159729D01*
X56540595Y-35317998D01*
X56527634Y-35328635D01*
X56485184Y-35380361D01*
X56453640Y-35439375D01*
X56434216Y-35503408D01*
X56429893Y-35547300D01*
X50812700Y-35547300D01*
X50812700Y-32794000D01*
X51354781Y-32794000D01*
X51364835Y-32896075D01*
X51394609Y-32994227D01*
X51442959Y-33084685D01*
X51508028Y-33163972D01*
X51587315Y-33229041D01*
X51677773Y-33277391D01*
X51775925Y-33307165D01*
X51878000Y-33317219D01*
X52206525Y-33314700D01*
X52336700Y-33184525D01*
X52336700Y-32547800D01*
X52819300Y-32547800D01*
X52819300Y-33184525D01*
X52949475Y-33314700D01*
X53278000Y-33317219D01*
X53380075Y-33307165D01*
X53478227Y-33277391D01*
X53568685Y-33229041D01*
X53647972Y-33163972D01*
X53713041Y-33084685D01*
X53761391Y-32994227D01*
X53776020Y-32946000D01*
X55715781Y-32946000D01*
X55725835Y-33048075D01*
X55755609Y-33146227D01*
X55803959Y-33236685D01*
X55869028Y-33315972D01*
X55948315Y-33381041D01*
X56038773Y-33429391D01*
X56136925Y-33459165D01*
X56239000Y-33469219D01*
X56567525Y-33466700D01*
X56697700Y-33336525D01*
X56697700Y-32587300D01*
X57180300Y-32587300D01*
X57180300Y-33336525D01*
X57310475Y-33466700D01*
X57639000Y-33469219D01*
X57741075Y-33459165D01*
X57839227Y-33429391D01*
X57929685Y-33381041D01*
X58008972Y-33315972D01*
X58074041Y-33236685D01*
X58122391Y-33146227D01*
X58152165Y-33048075D01*
X58162219Y-32946000D01*
X58159700Y-32717475D01*
X58029525Y-32587300D01*
X57180300Y-32587300D01*
X56697700Y-32587300D01*
X55848475Y-32587300D01*
X55718300Y-32717475D01*
X55715781Y-32946000D01*
X53776020Y-32946000D01*
X53791165Y-32896075D01*
X53801219Y-32794000D01*
X53798700Y-32677975D01*
X53668525Y-32547800D01*
X52819300Y-32547800D01*
X52336700Y-32547800D01*
X51487475Y-32547800D01*
X51357300Y-32677975D01*
X51354781Y-32794000D01*
X50812700Y-32794000D01*
X50812700Y-31819000D01*
X51354781Y-31819000D01*
X51357300Y-31935025D01*
X51487475Y-32065200D01*
X52336700Y-32065200D01*
X52336700Y-31428475D01*
X52819300Y-31428475D01*
X52819300Y-32065200D01*
X53668525Y-32065200D01*
X53798700Y-31935025D01*
X53801219Y-31819000D01*
X53791165Y-31716925D01*
X53761391Y-31618773D01*
X53713041Y-31528315D01*
X53647972Y-31449028D01*
X53568685Y-31383959D01*
X53478227Y-31335609D01*
X53380075Y-31305835D01*
X53278000Y-31295781D01*
X52949475Y-31298300D01*
X52819300Y-31428475D01*
X52336700Y-31428475D01*
X52206525Y-31298300D01*
X51878000Y-31295781D01*
X51775925Y-31305835D01*
X51677773Y-31335609D01*
X51587315Y-31383959D01*
X51508028Y-31449028D01*
X51442959Y-31528315D01*
X51394609Y-31618773D01*
X51364835Y-31716925D01*
X51354781Y-31819000D01*
X50812700Y-31819000D01*
X50812700Y-26682700D01*
X66027300Y-26682700D01*
X66027300Y-35547300D01*
G37*
X66027300Y-35547300D02*
X57272107Y-35547300D01*
X59367412Y-33451997D01*
X59380366Y-33441366D01*
X59422816Y-33389640D01*
X59454360Y-33330626D01*
X59473784Y-33266593D01*
X59478700Y-33216681D01*
X59478700Y-33216672D01*
X59480342Y-33200001D01*
X59478700Y-33183330D01*
X59478700Y-33159729D01*
X59839000Y-33159729D01*
X59880696Y-33155622D01*
X59920791Y-33143460D01*
X59957741Y-33123709D01*
X59990129Y-33097129D01*
X60016709Y-33064741D01*
X60036460Y-33027791D01*
X60048622Y-32987696D01*
X60052729Y-32946000D01*
X60052729Y-32685700D01*
X62205271Y-32685700D01*
X62205271Y-32725750D01*
X62214061Y-32815000D01*
X62240095Y-32900820D01*
X62282370Y-32979912D01*
X62339263Y-33049237D01*
X62408588Y-33106130D01*
X62487680Y-33148405D01*
X62573500Y-33174439D01*
X62662750Y-33183229D01*
X63575250Y-33183229D01*
X63664500Y-33174439D01*
X63750320Y-33148405D01*
X63829412Y-33106130D01*
X63898737Y-33049237D01*
X63955630Y-32979912D01*
X63997905Y-32900820D01*
X64023939Y-32815000D01*
X64032729Y-32725750D01*
X64032729Y-32238250D01*
X64023939Y-32149000D01*
X63997905Y-32063180D01*
X63955630Y-31984088D01*
X63898737Y-31914763D01*
X63829412Y-31857870D01*
X63750320Y-31815595D01*
X63664500Y-31789561D01*
X63575250Y-31780771D01*
X62662750Y-31780771D01*
X62573500Y-31789561D01*
X62487680Y-31815595D01*
X62408588Y-31857870D01*
X62339263Y-31914763D01*
X62282370Y-31984088D01*
X62270498Y-32006300D01*
X60052729Y-32006300D01*
X60052729Y-31746000D01*
X60050500Y-31723366D01*
X60129685Y-31681041D01*
X60208972Y-31615972D01*
X60274041Y-31536685D01*
X60322391Y-31446227D01*
X60352165Y-31348075D01*
X60362219Y-31246000D01*
X60360550Y-31094500D01*
X61895781Y-31094500D01*
X61905835Y-31196575D01*
X61935609Y-31294727D01*
X61983959Y-31385185D01*
X62049028Y-31464472D01*
X62128315Y-31529541D01*
X62218773Y-31577891D01*
X62316925Y-31607665D01*
X62419000Y-31617719D01*
X62747525Y-31615200D01*
X62877700Y-31485025D01*
X62877700Y-30848300D01*
X63360300Y-30848300D01*
X63360300Y-31485025D01*
X63490475Y-31615200D01*
X63819000Y-31617719D01*
X63921075Y-31607665D01*
X64019227Y-31577891D01*
X64109685Y-31529541D01*
X64188972Y-31464472D01*
X64254041Y-31385185D01*
X64302391Y-31294727D01*
X64332165Y-31196575D01*
X64342219Y-31094500D01*
X64339700Y-30978475D01*
X64209525Y-30848300D01*
X63360300Y-30848300D01*
X62877700Y-30848300D01*
X62028475Y-30848300D01*
X61898300Y-30978475D01*
X61895781Y-31094500D01*
X60360550Y-31094500D01*
X60359700Y-31017475D01*
X60229525Y-30887300D01*
X59380300Y-30887300D01*
X59380300Y-30907300D01*
X58897700Y-30907300D01*
X58897700Y-30887300D01*
X58048475Y-30887300D01*
X57918300Y-31017475D01*
X57915781Y-31246000D01*
X57921762Y-31306724D01*
X57850500Y-31268634D01*
X57852729Y-31246000D01*
X57852729Y-30046000D01*
X57915781Y-30046000D01*
X57918300Y-30274525D01*
X58048475Y-30404700D01*
X58897700Y-30404700D01*
X58897700Y-29655475D01*
X59380300Y-29655475D01*
X59380300Y-30404700D01*
X60229525Y-30404700D01*
X60359700Y-30274525D01*
X60361408Y-30119500D01*
X61895781Y-30119500D01*
X61898300Y-30235525D01*
X62028475Y-30365700D01*
X62877700Y-30365700D01*
X62877700Y-29728975D01*
X63360300Y-29728975D01*
X63360300Y-30365700D01*
X64209525Y-30365700D01*
X64339700Y-30235525D01*
X64342219Y-30119500D01*
X64332165Y-30017425D01*
X64302391Y-29919273D01*
X64254041Y-29828815D01*
X64188972Y-29749528D01*
X64109685Y-29684459D01*
X64019227Y-29636109D01*
X63921075Y-29606335D01*
X63819000Y-29596281D01*
X63490475Y-29598800D01*
X63360300Y-29728975D01*
X62877700Y-29728975D01*
X62747525Y-29598800D01*
X62419000Y-29596281D01*
X62316925Y-29606335D01*
X62218773Y-29636109D01*
X62128315Y-29684459D01*
X62049028Y-29749528D01*
X61983959Y-29828815D01*
X61935609Y-29919273D01*
X61905835Y-30017425D01*
X61895781Y-30119500D01*
X60361408Y-30119500D01*
X60362219Y-30046000D01*
X60352165Y-29943925D01*
X60322391Y-29845773D01*
X60274041Y-29755315D01*
X60208972Y-29676028D01*
X60129685Y-29610959D01*
X60039227Y-29562609D01*
X59941075Y-29532835D01*
X59839000Y-29522781D01*
X59510475Y-29525300D01*
X59380300Y-29655475D01*
X58897700Y-29655475D01*
X58767525Y-29525300D01*
X58439000Y-29522781D01*
X58336925Y-29532835D01*
X58238773Y-29562609D01*
X58148315Y-29610959D01*
X58069028Y-29676028D01*
X58003959Y-29755315D01*
X57955609Y-29845773D01*
X57925835Y-29943925D01*
X57915781Y-30046000D01*
X57852729Y-30046000D01*
X57848622Y-30004304D01*
X57836460Y-29964209D01*
X57816709Y-29927259D01*
X57790129Y-29894871D01*
X57757741Y-29868291D01*
X57720791Y-29848540D01*
X57680696Y-29836378D01*
X57639000Y-29832271D01*
X57278700Y-29832271D01*
X57278700Y-28449996D01*
X57280343Y-28433315D01*
X57273784Y-28366722D01*
X57254360Y-28302689D01*
X57222816Y-28243675D01*
X57180365Y-28191949D01*
X57167411Y-28181318D01*
X56697691Y-27711599D01*
X56687051Y-27698634D01*
X56635325Y-27656184D01*
X56576311Y-27624640D01*
X56512278Y-27605216D01*
X56462366Y-27600300D01*
X56462363Y-27600300D01*
X56445685Y-27598657D01*
X56429007Y-27600300D01*
X56389908Y-27600300D01*
X56355915Y-27549426D01*
X56270574Y-27464085D01*
X56170222Y-27397032D01*
X56058718Y-27350845D01*
X55940346Y-27327300D01*
X55819654Y-27327300D01*
X55701282Y-27350845D01*
X55589778Y-27397032D01*
X55489426Y-27464085D01*
X55404085Y-27549426D01*
X55337032Y-27649778D01*
X55290845Y-27761282D01*
X55267300Y-27879654D01*
X55267300Y-28000346D01*
X55290845Y-28118718D01*
X55337032Y-28230222D01*
X55404085Y-28330574D01*
X55489426Y-28415915D01*
X55589778Y-28482968D01*
X55701282Y-28529155D01*
X55819654Y-28552700D01*
X55940346Y-28552700D01*
X56058718Y-28529155D01*
X56170222Y-28482968D01*
X56270574Y-28415915D01*
X56355883Y-28330606D01*
X56599300Y-28574023D01*
X56599301Y-29775310D01*
X56599300Y-29775320D01*
X56599300Y-29832271D01*
X56239000Y-29832271D01*
X56197304Y-29836378D01*
X56157209Y-29848540D01*
X56120259Y-29868291D01*
X56087871Y-29894871D01*
X56061291Y-29927259D01*
X56041540Y-29964209D01*
X56029378Y-30004304D01*
X56025271Y-30046000D01*
X56025271Y-30091800D01*
X53480907Y-30091800D01*
X53456905Y-30012680D01*
X53414630Y-29933588D01*
X53357737Y-29864263D01*
X53288412Y-29807370D01*
X53209320Y-29765095D01*
X53123500Y-29739061D01*
X53034250Y-29730271D01*
X52121750Y-29730271D01*
X52032500Y-29739061D01*
X51946680Y-29765095D01*
X51867588Y-29807370D01*
X51798263Y-29864263D01*
X51741370Y-29933588D01*
X51699095Y-30012680D01*
X51673061Y-30098500D01*
X51664271Y-30187750D01*
X51664271Y-30675250D01*
X51673061Y-30764500D01*
X51699095Y-30850320D01*
X51741370Y-30929412D01*
X51798263Y-30998737D01*
X51867588Y-31055630D01*
X51946680Y-31097905D01*
X52032500Y-31123939D01*
X52121750Y-31132729D01*
X53034250Y-31132729D01*
X53123500Y-31123939D01*
X53209320Y-31097905D01*
X53288412Y-31055630D01*
X53357737Y-30998737D01*
X53414630Y-30929412D01*
X53456905Y-30850320D01*
X53480907Y-30771200D01*
X56025271Y-30771200D01*
X56025271Y-31246000D01*
X56027500Y-31268634D01*
X55948315Y-31310959D01*
X55869028Y-31376028D01*
X55803959Y-31455315D01*
X55755609Y-31545773D01*
X55725835Y-31643925D01*
X55715781Y-31746000D01*
X55718300Y-31974525D01*
X55848475Y-32104700D01*
X56697700Y-32104700D01*
X56697700Y-32084700D01*
X57180300Y-32084700D01*
X57180300Y-32104700D01*
X58029525Y-32104700D01*
X58159700Y-31974525D01*
X58162219Y-31746000D01*
X58156238Y-31685276D01*
X58227500Y-31723366D01*
X58225271Y-31746000D01*
X58225271Y-32946000D01*
X58229378Y-32987696D01*
X58241540Y-33027791D01*
X58261291Y-33064741D01*
X58287871Y-33097129D01*
X58320259Y-33123709D01*
X58357209Y-33143460D01*
X58397304Y-33155622D01*
X58439000Y-33159729D01*
X58698862Y-33159729D01*
X56540595Y-35317998D01*
X56527634Y-35328635D01*
X56485184Y-35380361D01*
X56453640Y-35439375D01*
X56434216Y-35503408D01*
X56429893Y-35547300D01*
X50812700Y-35547300D01*
X50812700Y-32794000D01*
X51354781Y-32794000D01*
X51364835Y-32896075D01*
X51394609Y-32994227D01*
X51442959Y-33084685D01*
X51508028Y-33163972D01*
X51587315Y-33229041D01*
X51677773Y-33277391D01*
X51775925Y-33307165D01*
X51878000Y-33317219D01*
X52206525Y-33314700D01*
X52336700Y-33184525D01*
X52336700Y-32547800D01*
X52819300Y-32547800D01*
X52819300Y-33184525D01*
X52949475Y-33314700D01*
X53278000Y-33317219D01*
X53380075Y-33307165D01*
X53478227Y-33277391D01*
X53568685Y-33229041D01*
X53647972Y-33163972D01*
X53713041Y-33084685D01*
X53761391Y-32994227D01*
X53776020Y-32946000D01*
X55715781Y-32946000D01*
X55725835Y-33048075D01*
X55755609Y-33146227D01*
X55803959Y-33236685D01*
X55869028Y-33315972D01*
X55948315Y-33381041D01*
X56038773Y-33429391D01*
X56136925Y-33459165D01*
X56239000Y-33469219D01*
X56567525Y-33466700D01*
X56697700Y-33336525D01*
X56697700Y-32587300D01*
X57180300Y-32587300D01*
X57180300Y-33336525D01*
X57310475Y-33466700D01*
X57639000Y-33469219D01*
X57741075Y-33459165D01*
X57839227Y-33429391D01*
X57929685Y-33381041D01*
X58008972Y-33315972D01*
X58074041Y-33236685D01*
X58122391Y-33146227D01*
X58152165Y-33048075D01*
X58162219Y-32946000D01*
X58159700Y-32717475D01*
X58029525Y-32587300D01*
X57180300Y-32587300D01*
X56697700Y-32587300D01*
X55848475Y-32587300D01*
X55718300Y-32717475D01*
X55715781Y-32946000D01*
X53776020Y-32946000D01*
X53791165Y-32896075D01*
X53801219Y-32794000D01*
X53798700Y-32677975D01*
X53668525Y-32547800D01*
X52819300Y-32547800D01*
X52336700Y-32547800D01*
X51487475Y-32547800D01*
X51357300Y-32677975D01*
X51354781Y-32794000D01*
X50812700Y-32794000D01*
X50812700Y-31819000D01*
X51354781Y-31819000D01*
X51357300Y-31935025D01*
X51487475Y-32065200D01*
X52336700Y-32065200D01*
X52336700Y-31428475D01*
X52819300Y-31428475D01*
X52819300Y-32065200D01*
X53668525Y-32065200D01*
X53798700Y-31935025D01*
X53801219Y-31819000D01*
X53791165Y-31716925D01*
X53761391Y-31618773D01*
X53713041Y-31528315D01*
X53647972Y-31449028D01*
X53568685Y-31383959D01*
X53478227Y-31335609D01*
X53380075Y-31305835D01*
X53278000Y-31295781D01*
X52949475Y-31298300D01*
X52819300Y-31428475D01*
X52336700Y-31428475D01*
X52206525Y-31298300D01*
X51878000Y-31295781D01*
X51775925Y-31305835D01*
X51677773Y-31335609D01*
X51587315Y-31383959D01*
X51508028Y-31449028D01*
X51442959Y-31528315D01*
X51394609Y-31618773D01*
X51364835Y-31716925D01*
X51354781Y-31819000D01*
X50812700Y-31819000D01*
X50812700Y-26682700D01*
X66027300Y-26682700D01*
X66027300Y-35547300D01*
G36*
X60210300Y-52448700D02*
G01*
X60230300Y-52448700D01*
X60230300Y-52931300D01*
X60210300Y-52931300D01*
X60210300Y-52951300D01*
X59727700Y-52951300D01*
X59727700Y-52931300D01*
X59707700Y-52931300D01*
X59707700Y-52448700D01*
X59727700Y-52448700D01*
X59727700Y-52428700D01*
X60210300Y-52428700D01*
X60210300Y-52448700D01*
G37*
X60210300Y-52448700D02*
X60230300Y-52448700D01*
X60230300Y-52931300D01*
X60210300Y-52931300D01*
X60210300Y-52951300D01*
X59727700Y-52951300D01*
X59727700Y-52931300D01*
X59707700Y-52931300D01*
X59707700Y-52448700D01*
X59727700Y-52448700D01*
X59727700Y-52428700D01*
X60210300Y-52428700D01*
X60210300Y-52448700D01*
G36*
X53810300Y-52448700D02*
G01*
X53830300Y-52448700D01*
X53830300Y-52931300D01*
X53810300Y-52931300D01*
X53810300Y-52951300D01*
X53327700Y-52951300D01*
X53327700Y-52931300D01*
X53307700Y-52931300D01*
X53307700Y-52565127D01*
X53308648Y-52555502D01*
X53307700Y-52545877D01*
X53307700Y-52448700D01*
X53327700Y-52448700D01*
X53327700Y-52428700D01*
X53810300Y-52428700D01*
X53810300Y-52448700D01*
G37*
X53810300Y-52448700D02*
X53830300Y-52448700D01*
X53830300Y-52931300D01*
X53810300Y-52931300D01*
X53810300Y-52951300D01*
X53327700Y-52951300D01*
X53327700Y-52931300D01*
X53307700Y-52931300D01*
X53307700Y-52565127D01*
X53308648Y-52555502D01*
X53307700Y-52545877D01*
X53307700Y-52448700D01*
X53327700Y-52448700D01*
X53327700Y-52428700D01*
X53810300Y-52428700D01*
X53810300Y-52448700D01*
G36*
X63487300Y-42265972D02*
G01*
X63395947Y-42222610D01*
X63296486Y-42197551D01*
X63194048Y-42192376D01*
X62840475Y-42194300D01*
X62710300Y-42324475D01*
X62710300Y-42748700D01*
X62730300Y-42748700D01*
X62730300Y-43231300D01*
X62710300Y-43231300D01*
X62710300Y-43251300D01*
X62227700Y-43251300D01*
X62227700Y-43231300D01*
X61328475Y-43231300D01*
X61198300Y-43361475D01*
X61211286Y-43391431D01*
X61216322Y-43405568D01*
X61182955Y-43415690D01*
X61112911Y-43453130D01*
X61066894Y-43490895D01*
X61066891Y-43490898D01*
X61051516Y-43503516D01*
X61038898Y-43518892D01*
X60497892Y-44059898D01*
X60482517Y-44072516D01*
X60469899Y-44087891D01*
X60469896Y-44087894D01*
X60432131Y-44133911D01*
X60394691Y-44203956D01*
X60371635Y-44279959D01*
X60363851Y-44359000D01*
X60365801Y-44378801D01*
X60365800Y-51146299D01*
X53306699Y-51146299D01*
X53306699Y-50913290D01*
X53308648Y-50893499D01*
X53306699Y-50873708D01*
X53306699Y-50873701D01*
X53300864Y-50814458D01*
X53277809Y-50738455D01*
X53240369Y-50668410D01*
X53189983Y-50607015D01*
X53174608Y-50594397D01*
X52609537Y-50029326D01*
X52612701Y-49997199D01*
X52612701Y-49997190D01*
X52614650Y-49977402D01*
X52612701Y-49957614D01*
X52612701Y-46366511D01*
X54640104Y-44339108D01*
X54655484Y-44326486D01*
X54705870Y-44265091D01*
X54743310Y-44195046D01*
X54766365Y-44119043D01*
X54772200Y-44059800D01*
X54772200Y-44059793D01*
X54774149Y-44040002D01*
X54772200Y-44020211D01*
X54772200Y-42618525D01*
X61198300Y-42618525D01*
X61328475Y-42748700D01*
X62227700Y-42748700D01*
X62227700Y-42324475D01*
X62097525Y-42194300D01*
X61743952Y-42192376D01*
X61641514Y-42197551D01*
X61542053Y-42222610D01*
X61449393Y-42266592D01*
X61367093Y-42327806D01*
X61298317Y-42403899D01*
X61245707Y-42491948D01*
X61211286Y-42588569D01*
X61198300Y-42618525D01*
X54772200Y-42618525D01*
X54772200Y-42549722D01*
X54797525Y-42560700D01*
X54927700Y-42430525D01*
X54927700Y-41531300D01*
X54907700Y-41531300D01*
X54907700Y-41048700D01*
X54927700Y-41048700D01*
X54927700Y-41028700D01*
X55410300Y-41028700D01*
X55410300Y-41048700D01*
X55430300Y-41048700D01*
X55430300Y-41531300D01*
X55410300Y-41531300D01*
X55410300Y-42430525D01*
X55540475Y-42560700D01*
X55570431Y-42547714D01*
X55667052Y-42513293D01*
X55755101Y-42460683D01*
X55831194Y-42391907D01*
X55892408Y-42309607D01*
X55918931Y-42253729D01*
X56244000Y-42253729D01*
X56285696Y-42249622D01*
X56325791Y-42237460D01*
X56362741Y-42217709D01*
X56369000Y-42212572D01*
X56375259Y-42217709D01*
X56412209Y-42237460D01*
X56452304Y-42249622D01*
X56494000Y-42253729D01*
X57044000Y-42253729D01*
X57085696Y-42249622D01*
X57125791Y-42237460D01*
X57162741Y-42217709D01*
X57169000Y-42212572D01*
X57175259Y-42217709D01*
X57212209Y-42237460D01*
X57252304Y-42249622D01*
X57294000Y-42253729D01*
X57844000Y-42253729D01*
X57885696Y-42249622D01*
X57925791Y-42237460D01*
X57962741Y-42217709D01*
X57969000Y-42212572D01*
X57975259Y-42217709D01*
X58012209Y-42237460D01*
X58052304Y-42249622D01*
X58094000Y-42253729D01*
X58644000Y-42253729D01*
X58685696Y-42249622D01*
X58725791Y-42237460D01*
X58762741Y-42217709D01*
X58769000Y-42212572D01*
X58775259Y-42217709D01*
X58812209Y-42237460D01*
X58852304Y-42249622D01*
X58894000Y-42253729D01*
X59444000Y-42253729D01*
X59485696Y-42249622D01*
X59525791Y-42237460D01*
X59562741Y-42217709D01*
X59569000Y-42212572D01*
X59575259Y-42217709D01*
X59612209Y-42237460D01*
X59652304Y-42249622D01*
X59694000Y-42253729D01*
X60244000Y-42253729D01*
X60285696Y-42249622D01*
X60325791Y-42237460D01*
X60362741Y-42217709D01*
X60369000Y-42212572D01*
X60375259Y-42217709D01*
X60412209Y-42237460D01*
X60452304Y-42249622D01*
X60494000Y-42253729D01*
X61044000Y-42253729D01*
X61085696Y-42249622D01*
X61125791Y-42237460D01*
X61162741Y-42217709D01*
X61195129Y-42191129D01*
X61221709Y-42158741D01*
X61241460Y-42121791D01*
X61253622Y-42081696D01*
X61257729Y-42040000D01*
X61257729Y-40540000D01*
X61253622Y-40498304D01*
X61241460Y-40458209D01*
X61221709Y-40421259D01*
X61195129Y-40388871D01*
X61162741Y-40362291D01*
X61125791Y-40342540D01*
X61085696Y-40330378D01*
X61044000Y-40326271D01*
X60494000Y-40326271D01*
X60452304Y-40330378D01*
X60412209Y-40342540D01*
X60375259Y-40362291D01*
X60369000Y-40367428D01*
X60362741Y-40362291D01*
X60325791Y-40342540D01*
X60285696Y-40330378D01*
X60244000Y-40326271D01*
X59694000Y-40326271D01*
X59652304Y-40330378D01*
X59612209Y-40342540D01*
X59575259Y-40362291D01*
X59569000Y-40367428D01*
X59562741Y-40362291D01*
X59525791Y-40342540D01*
X59485696Y-40330378D01*
X59444000Y-40326271D01*
X58894000Y-40326271D01*
X58852304Y-40330378D01*
X58812209Y-40342540D01*
X58775259Y-40362291D01*
X58769000Y-40367428D01*
X58762741Y-40362291D01*
X58725791Y-40342540D01*
X58685696Y-40330378D01*
X58644000Y-40326271D01*
X58094000Y-40326271D01*
X58052304Y-40330378D01*
X58012209Y-40342540D01*
X57975259Y-40362291D01*
X57969000Y-40367428D01*
X57962741Y-40362291D01*
X57925791Y-40342540D01*
X57885696Y-40330378D01*
X57844000Y-40326271D01*
X57294000Y-40326271D01*
X57252304Y-40330378D01*
X57212209Y-40342540D01*
X57175259Y-40362291D01*
X57169000Y-40367428D01*
X57162741Y-40362291D01*
X57125791Y-40342540D01*
X57108700Y-40337356D01*
X57108700Y-40271700D01*
X63487300Y-40271700D01*
X63487300Y-42265972D01*
G37*
X63487300Y-42265972D02*
X63395947Y-42222610D01*
X63296486Y-42197551D01*
X63194048Y-42192376D01*
X62840475Y-42194300D01*
X62710300Y-42324475D01*
X62710300Y-42748700D01*
X62730300Y-42748700D01*
X62730300Y-43231300D01*
X62710300Y-43231300D01*
X62710300Y-43251300D01*
X62227700Y-43251300D01*
X62227700Y-43231300D01*
X61328475Y-43231300D01*
X61198300Y-43361475D01*
X61211286Y-43391431D01*
X61216322Y-43405568D01*
X61182955Y-43415690D01*
X61112911Y-43453130D01*
X61066894Y-43490895D01*
X61066891Y-43490898D01*
X61051516Y-43503516D01*
X61038898Y-43518892D01*
X60497892Y-44059898D01*
X60482517Y-44072516D01*
X60469899Y-44087891D01*
X60469896Y-44087894D01*
X60432131Y-44133911D01*
X60394691Y-44203956D01*
X60371635Y-44279959D01*
X60363851Y-44359000D01*
X60365801Y-44378801D01*
X60365800Y-51146299D01*
X53306699Y-51146299D01*
X53306699Y-50913290D01*
X53308648Y-50893499D01*
X53306699Y-50873708D01*
X53306699Y-50873701D01*
X53300864Y-50814458D01*
X53277809Y-50738455D01*
X53240369Y-50668410D01*
X53189983Y-50607015D01*
X53174608Y-50594397D01*
X52609537Y-50029326D01*
X52612701Y-49997199D01*
X52612701Y-49997190D01*
X52614650Y-49977402D01*
X52612701Y-49957614D01*
X52612701Y-46366511D01*
X54640104Y-44339108D01*
X54655484Y-44326486D01*
X54705870Y-44265091D01*
X54743310Y-44195046D01*
X54766365Y-44119043D01*
X54772200Y-44059800D01*
X54772200Y-44059793D01*
X54774149Y-44040002D01*
X54772200Y-44020211D01*
X54772200Y-42618525D01*
X61198300Y-42618525D01*
X61328475Y-42748700D01*
X62227700Y-42748700D01*
X62227700Y-42324475D01*
X62097525Y-42194300D01*
X61743952Y-42192376D01*
X61641514Y-42197551D01*
X61542053Y-42222610D01*
X61449393Y-42266592D01*
X61367093Y-42327806D01*
X61298317Y-42403899D01*
X61245707Y-42491948D01*
X61211286Y-42588569D01*
X61198300Y-42618525D01*
X54772200Y-42618525D01*
X54772200Y-42549722D01*
X54797525Y-42560700D01*
X54927700Y-42430525D01*
X54927700Y-41531300D01*
X54907700Y-41531300D01*
X54907700Y-41048700D01*
X54927700Y-41048700D01*
X54927700Y-41028700D01*
X55410300Y-41028700D01*
X55410300Y-41048700D01*
X55430300Y-41048700D01*
X55430300Y-41531300D01*
X55410300Y-41531300D01*
X55410300Y-42430525D01*
X55540475Y-42560700D01*
X55570431Y-42547714D01*
X55667052Y-42513293D01*
X55755101Y-42460683D01*
X55831194Y-42391907D01*
X55892408Y-42309607D01*
X55918931Y-42253729D01*
X56244000Y-42253729D01*
X56285696Y-42249622D01*
X56325791Y-42237460D01*
X56362741Y-42217709D01*
X56369000Y-42212572D01*
X56375259Y-42217709D01*
X56412209Y-42237460D01*
X56452304Y-42249622D01*
X56494000Y-42253729D01*
X57044000Y-42253729D01*
X57085696Y-42249622D01*
X57125791Y-42237460D01*
X57162741Y-42217709D01*
X57169000Y-42212572D01*
X57175259Y-42217709D01*
X57212209Y-42237460D01*
X57252304Y-42249622D01*
X57294000Y-42253729D01*
X57844000Y-42253729D01*
X57885696Y-42249622D01*
X57925791Y-42237460D01*
X57962741Y-42217709D01*
X57969000Y-42212572D01*
X57975259Y-42217709D01*
X58012209Y-42237460D01*
X58052304Y-42249622D01*
X58094000Y-42253729D01*
X58644000Y-42253729D01*
X58685696Y-42249622D01*
X58725791Y-42237460D01*
X58762741Y-42217709D01*
X58769000Y-42212572D01*
X58775259Y-42217709D01*
X58812209Y-42237460D01*
X58852304Y-42249622D01*
X58894000Y-42253729D01*
X59444000Y-42253729D01*
X59485696Y-42249622D01*
X59525791Y-42237460D01*
X59562741Y-42217709D01*
X59569000Y-42212572D01*
X59575259Y-42217709D01*
X59612209Y-42237460D01*
X59652304Y-42249622D01*
X59694000Y-42253729D01*
X60244000Y-42253729D01*
X60285696Y-42249622D01*
X60325791Y-42237460D01*
X60362741Y-42217709D01*
X60369000Y-42212572D01*
X60375259Y-42217709D01*
X60412209Y-42237460D01*
X60452304Y-42249622D01*
X60494000Y-42253729D01*
X61044000Y-42253729D01*
X61085696Y-42249622D01*
X61125791Y-42237460D01*
X61162741Y-42217709D01*
X61195129Y-42191129D01*
X61221709Y-42158741D01*
X61241460Y-42121791D01*
X61253622Y-42081696D01*
X61257729Y-42040000D01*
X61257729Y-40540000D01*
X61253622Y-40498304D01*
X61241460Y-40458209D01*
X61221709Y-40421259D01*
X61195129Y-40388871D01*
X61162741Y-40362291D01*
X61125791Y-40342540D01*
X61085696Y-40330378D01*
X61044000Y-40326271D01*
X60494000Y-40326271D01*
X60452304Y-40330378D01*
X60412209Y-40342540D01*
X60375259Y-40362291D01*
X60369000Y-40367428D01*
X60362741Y-40362291D01*
X60325791Y-40342540D01*
X60285696Y-40330378D01*
X60244000Y-40326271D01*
X59694000Y-40326271D01*
X59652304Y-40330378D01*
X59612209Y-40342540D01*
X59575259Y-40362291D01*
X59569000Y-40367428D01*
X59562741Y-40362291D01*
X59525791Y-40342540D01*
X59485696Y-40330378D01*
X59444000Y-40326271D01*
X58894000Y-40326271D01*
X58852304Y-40330378D01*
X58812209Y-40342540D01*
X58775259Y-40362291D01*
X58769000Y-40367428D01*
X58762741Y-40362291D01*
X58725791Y-40342540D01*
X58685696Y-40330378D01*
X58644000Y-40326271D01*
X58094000Y-40326271D01*
X58052304Y-40330378D01*
X58012209Y-40342540D01*
X57975259Y-40362291D01*
X57969000Y-40367428D01*
X57962741Y-40362291D01*
X57925791Y-40342540D01*
X57885696Y-40330378D01*
X57844000Y-40326271D01*
X57294000Y-40326271D01*
X57252304Y-40330378D01*
X57212209Y-40342540D01*
X57175259Y-40362291D01*
X57169000Y-40367428D01*
X57162741Y-40362291D01*
X57125791Y-40342540D01*
X57108700Y-40337356D01*
X57108700Y-40271700D01*
X63487300Y-40271700D01*
X63487300Y-42265972D01*
G36*
X51310300Y-47548700D02*
G01*
X51330300Y-47548700D01*
X51330300Y-48031300D01*
X51310300Y-48031300D01*
X51310300Y-48051300D01*
X50827700Y-48051300D01*
X50827700Y-48031300D01*
X50807700Y-48031300D01*
X50807700Y-47548700D01*
X50827700Y-47548700D01*
X50827700Y-47528700D01*
X51310300Y-47528700D01*
X51310300Y-47548700D01*
G37*
X51310300Y-47548700D02*
X51330300Y-47548700D01*
X51330300Y-48031300D01*
X51310300Y-48031300D01*
X51310300Y-48051300D01*
X50827700Y-48051300D01*
X50827700Y-48031300D01*
X50807700Y-48031300D01*
X50807700Y-47548700D01*
X50827700Y-47548700D01*
X50827700Y-47528700D01*
X51310300Y-47528700D01*
X51310300Y-47548700D01*
M02*
